%TF.GenerationSoftware,KiCad,Pcbnew,(6.0.2)*%
%TF.CreationDate,2022-09-07T19:19:14-04:00*%
%TF.ProjectId,plusz-end-card-with-turnstile-mezzanine,706c7573-7a2d-4656-9e64-2d636172642d,rev?*%
%TF.SameCoordinates,Original*%
%TF.FileFunction,Soldermask,Bot*%
%TF.FilePolarity,Negative*%
%FSLAX46Y46*%
G04 Gerber Fmt 4.6, Leading zero omitted, Abs format (unit mm)*
G04 Created by KiCad (PCBNEW (6.0.2)) date 2022-09-07 19:19:14*
%MOMM*%
%LPD*%
G01*
G04 APERTURE LIST*
G04 Aperture macros list*
%AMRoundRect*
0 Rectangle with rounded corners*
0 $1 Rounding radius*
0 $2 $3 $4 $5 $6 $7 $8 $9 X,Y pos of 4 corners*
0 Add a 4 corners polygon primitive as box body*
4,1,4,$2,$3,$4,$5,$6,$7,$8,$9,$2,$3,0*
0 Add four circle primitives for the rounded corners*
1,1,$1+$1,$2,$3*
1,1,$1+$1,$4,$5*
1,1,$1+$1,$6,$7*
1,1,$1+$1,$8,$9*
0 Add four rect primitives between the rounded corners*
20,1,$1+$1,$2,$3,$4,$5,0*
20,1,$1+$1,$4,$5,$6,$7,0*
20,1,$1+$1,$6,$7,$8,$9,0*
20,1,$1+$1,$8,$9,$2,$3,0*%
G04 Aperture macros list end*
%ADD10C,1.500000*%
%ADD11C,0.100000*%
%ADD12C,0.038250*%
%ADD13C,0.430000*%
%ADD14C,0.080000*%
%ADD15C,1.000000*%
%ADD16C,5.500000*%
%ADD17C,3.100000*%
%ADD18C,2.400000*%
%ADD19RoundRect,0.124500X-0.474000X0.244000X-0.474000X-0.244000X0.474000X-0.244000X0.474000X0.244000X0*%
%ADD20RoundRect,0.124500X0.474000X-0.244000X0.474000X0.244000X-0.474000X0.244000X-0.474000X-0.244000X0*%
G04 APERTURE END LIST*
D10*
X135501100Y-89453600D02*
X135501100Y-96753600D01*
X150401100Y-86953600D02*
G75*
G03*
X147001098Y-83553600I-3340379J59621D01*
G01*
X124040440Y-117514260D02*
X131404528Y-110150172D01*
X150401100Y-89653601D02*
G75*
G03*
X153301100Y-94253600I5246827J93653D01*
G01*
D11*
X150401100Y-127453600D02*
G75*
G03*
X150401100Y-127453600I-3000000J0D01*
G01*
D10*
X175201100Y-86553600D02*
X173301100Y-86553600D01*
X131404528Y-110150172D02*
G75*
G03*
X132576100Y-107321747I-2828427J2828426D01*
G01*
X154101100Y-94653600D02*
X153301100Y-94253600D01*
X161901100Y-99053600D02*
X161901100Y-98153600D01*
X132576099Y-76412072D02*
G75*
G03*
X131544281Y-74496781I-2827871J-287871D01*
G01*
X146801100Y-83553600D02*
X141201100Y-83553600D01*
X155776100Y-103514388D02*
G75*
G03*
X156068993Y-104221493I1000005J4D01*
G01*
X161707306Y-114753600D02*
X161707306Y-124259807D01*
X173301100Y-86553600D02*
G75*
G03*
X171201099Y-87553600I-2J-2704999D01*
G01*
X159808206Y-93881494D02*
G75*
G03*
X159901099Y-93374388I-565688J365685D01*
G01*
X157698206Y-105850707D02*
G75*
G03*
X158305311Y-106143600I657106J586395D01*
G01*
D11*
X175501100Y-102353600D02*
G75*
G03*
X175501100Y-102353600I-3000000J0D01*
G01*
D10*
X162511937Y-129464438D02*
X163201100Y-130153600D01*
X161926100Y-98553600D02*
X161926100Y-102863600D01*
X132576100Y-97463600D02*
X132576100Y-76412072D01*
X159901100Y-93374388D02*
X159901100Y-75867813D01*
X161726196Y-127963966D02*
G75*
G03*
X162511936Y-129464437I2221913J207565D01*
G01*
X119601100Y-118153600D02*
X122496934Y-118153600D01*
X162901101Y-95853600D02*
G75*
G03*
X161901100Y-98153600I2144997J-2300000D01*
G01*
X161701100Y-115253600D02*
X161701100Y-107553600D01*
D11*
X125301100Y-102353600D02*
G75*
G03*
X125301100Y-102353600I-3000000J0D01*
G01*
D10*
X135301100Y-97553600D02*
G75*
G03*
X135501100Y-96753600I-1500004J800001D01*
G01*
X171401100Y-87353600D02*
X162901100Y-95853600D01*
X156212031Y-72164535D02*
X159891050Y-75843554D01*
X122496934Y-118153600D02*
G75*
G03*
X124040439Y-117514260I1J2182846D01*
G01*
X132576100Y-107321747D02*
X132576100Y-102143600D01*
X141201100Y-83553600D02*
G75*
G03*
X135501099Y-89353601I0J-5700863D01*
G01*
X159318993Y-94370707D02*
X159808206Y-93881494D01*
D11*
X150401100Y-77253600D02*
G75*
G03*
X150401100Y-77253600I-3000000J0D01*
G01*
D10*
X156068993Y-104221494D02*
X157698206Y-105850707D01*
X155776100Y-98243600D02*
X155776100Y-103514388D01*
X161707306Y-124259807D02*
X161701100Y-124353600D01*
X161701100Y-124353600D02*
X161726196Y-127963966D01*
X150401100Y-86953600D02*
G75*
G03*
X150401100Y-89653600I75635215J-1350000D01*
G01*
D12*
%TO.C,R6*%
X136364748Y-101871307D02*
X136192486Y-101750724D01*
X136364748Y-101664593D02*
X136002998Y-101664593D01*
X136002998Y-101802402D01*
X136020225Y-101836855D01*
X136037451Y-101854081D01*
X136071903Y-101871307D01*
X136123582Y-101871307D01*
X136158034Y-101854081D01*
X136175260Y-101836855D01*
X136192486Y-101802402D01*
X136192486Y-101664593D01*
X136002998Y-102181379D02*
X136002998Y-102112474D01*
X136020225Y-102078022D01*
X136037451Y-102060795D01*
X136089129Y-102026343D01*
X136158034Y-102009117D01*
X136295844Y-102009117D01*
X136330296Y-102026343D01*
X136347522Y-102043569D01*
X136364748Y-102078022D01*
X136364748Y-102146926D01*
X136347522Y-102181379D01*
X136330296Y-102198605D01*
X136295844Y-102215831D01*
X136209713Y-102215831D01*
X136175260Y-102198605D01*
X136158034Y-102181379D01*
X136140808Y-102146926D01*
X136140808Y-102078022D01*
X136158034Y-102043569D01*
X136175260Y-102026343D01*
X136209713Y-102009117D01*
%TO.C,R4*%
X157964748Y-99571307D02*
X157792486Y-99450724D01*
X157964748Y-99364593D02*
X157602998Y-99364593D01*
X157602998Y-99502402D01*
X157620225Y-99536855D01*
X157637451Y-99554081D01*
X157671903Y-99571307D01*
X157723582Y-99571307D01*
X157758034Y-99554081D01*
X157775260Y-99536855D01*
X157792486Y-99502402D01*
X157792486Y-99364593D01*
X157723582Y-99881379D02*
X157964748Y-99881379D01*
X157585772Y-99795248D02*
X157844165Y-99709117D01*
X157844165Y-99933057D01*
%TO.C,R5*%
X160064748Y-101015308D02*
X159892486Y-100894725D01*
X160064748Y-100808594D02*
X159702998Y-100808594D01*
X159702998Y-100946404D01*
X159720225Y-100980856D01*
X159737451Y-100998082D01*
X159771903Y-101015308D01*
X159823582Y-101015308D01*
X159858034Y-100998082D01*
X159875260Y-100980856D01*
X159892486Y-100946404D01*
X159892486Y-100808594D01*
X159702998Y-101342606D02*
X159702998Y-101170344D01*
X159875260Y-101153118D01*
X159858034Y-101170344D01*
X159840808Y-101204797D01*
X159840808Y-101290927D01*
X159858034Y-101325380D01*
X159875260Y-101342606D01*
X159909713Y-101359832D01*
X159995844Y-101359832D01*
X160030296Y-101342606D01*
X160047522Y-101325380D01*
X160064748Y-101290927D01*
X160064748Y-101204797D01*
X160047522Y-101170344D01*
X160030296Y-101153118D01*
D13*
%TO.C,R6*%
X136496100Y-102398600D02*
X135906100Y-102398600D01*
X135906100Y-102108600D02*
X135906100Y-102398600D01*
X136496100Y-100708600D02*
X136496100Y-100998600D01*
D14*
X135791100Y-102353600D02*
X136611100Y-102353600D01*
X136611100Y-100753600D02*
X135791100Y-100753600D01*
D13*
X136496100Y-102108600D02*
X136496100Y-102398600D01*
D11*
X136601100Y-102343600D02*
X136601100Y-100763600D01*
D13*
X136496100Y-100708600D02*
X135906100Y-100708600D01*
D11*
X135801100Y-100763600D02*
X135801100Y-102343600D01*
D13*
X135906100Y-100708600D02*
X135906100Y-100998600D01*
X136496100Y-102108600D02*
X135906100Y-102108600D01*
X136496100Y-100998600D02*
X135906100Y-100998600D01*
D15*
%TO.C,FIDUCIAL6*%
X112001100Y-72153600D02*
G75*
G03*
X112001100Y-72153600I-500000J0D01*
G01*
%TO.C,FIDUCIAL1*%
X112001100Y-138153600D02*
G75*
G03*
X112001100Y-138153600I-500000J0D01*
G01*
D13*
%TO.C,R4*%
X158096100Y-99808600D02*
X157506100Y-99808600D01*
X158096100Y-98408600D02*
X158096100Y-98698600D01*
X157506100Y-98408600D02*
X157506100Y-98698600D01*
D14*
X157391100Y-100053600D02*
X158211100Y-100053600D01*
X158211100Y-98453600D02*
X157391100Y-98453600D01*
D13*
X158096100Y-99808600D02*
X158096100Y-100098600D01*
X158096100Y-98408600D02*
X157506100Y-98408600D01*
D11*
X158201100Y-100043600D02*
X158201100Y-98463600D01*
D13*
X158096100Y-98698600D02*
X157506100Y-98698600D01*
X158096100Y-100098600D02*
X157506100Y-100098600D01*
X157506100Y-99808600D02*
X157506100Y-100098600D01*
D11*
X157401100Y-98463600D02*
X157401100Y-100043600D01*
D15*
%TO.C,FIDUCIAL7*%
X186001100Y-72153600D02*
G75*
G03*
X186001100Y-72153600I-500000J0D01*
G01*
D13*
%TO.C,R5*%
X160196100Y-102298600D02*
X160196100Y-102008600D01*
X160196100Y-100898600D02*
X160196100Y-100608600D01*
X159606100Y-102298600D02*
X160196100Y-102298600D01*
X159606100Y-100898600D02*
X160196100Y-100898600D01*
X159606100Y-100608600D02*
X160196100Y-100608600D01*
D11*
X159501100Y-100663600D02*
X159501100Y-102243600D01*
D14*
X159491100Y-102253600D02*
X160311100Y-102253600D01*
D11*
X160301100Y-102243600D02*
X160301100Y-100663600D01*
D14*
X160311100Y-100653600D02*
X159491100Y-100653600D01*
D13*
X159606100Y-102008600D02*
X160196100Y-102008600D01*
X159606100Y-100898600D02*
X159606100Y-100608600D01*
X159606100Y-102298600D02*
X159606100Y-102008600D01*
%TD*%
D16*
%TO.C,@HOLE7*%
X120371100Y-129383600D03*
%TD*%
D17*
%TO.C,@HOLE3*%
X147401100Y-127453600D03*
%TD*%
D18*
%TO.C,@HOLE0*%
X122301100Y-102353600D03*
%TD*%
%TO.C,@HOLE1*%
X172501100Y-102353600D03*
%TD*%
D16*
%TO.C,@HOLE6*%
X174431100Y-129383600D03*
%TD*%
%TO.C,@HOLE4*%
X174431100Y-75323600D03*
%TD*%
%TO.C,@HOLE5*%
X120371100Y-75323600D03*
%TD*%
D17*
%TO.C,@HOLE2*%
X147401100Y-77253600D03*
%TD*%
D19*
%TO.C,U9*%
X134626100Y-98863600D03*
X134626100Y-99853600D03*
X134626100Y-100843600D03*
D20*
X132576100Y-100843600D03*
X132576100Y-99853600D03*
X132576100Y-98863600D03*
%TD*%
D19*
%TO.C,U7*%
X157826100Y-94863600D03*
X157826100Y-95853600D03*
X157826100Y-96843600D03*
D20*
X155776100Y-96843600D03*
X155776100Y-95853600D03*
X155776100Y-94863600D03*
%TD*%
%TO.C,U8*%
X159876100Y-106143600D03*
X159876100Y-105153600D03*
X159876100Y-104163600D03*
D19*
X161926100Y-104163600D03*
X161926100Y-105153600D03*
X161926100Y-106143600D03*
%TD*%
M02*
