%TF.GenerationSoftware,KiCad,Pcbnew,(6.0.2)*%
%TF.CreationDate,2022-09-07T19:19:14-04:00*%
%TF.ProjectId,plusz-end-card-with-turnstile-mezzanine,706c7573-7a2d-4656-9e64-2d636172642d,rev?*%
%TF.SameCoordinates,Original*%
%TF.FileFunction,Soldermask,Top*%
%TF.FilePolarity,Negative*%
%FSLAX46Y46*%
G04 Gerber Fmt 4.6, Leading zero omitted, Abs format (unit mm)*
G04 Created by KiCad (PCBNEW (6.0.2)) date 2022-09-07 19:19:14*
%MOMM*%
%LPD*%
G01*
G04 APERTURE LIST*
G04 Aperture macros list*
%AMRoundRect*
0 Rectangle with rounded corners*
0 $1 Rounding radius*
0 $2 $3 $4 $5 $6 $7 $8 $9 X,Y pos of 4 corners*
0 Add a 4 corners polygon primitive as box body*
4,1,4,$2,$3,$4,$5,$6,$7,$8,$9,$2,$3,0*
0 Add four circle primitives for the rounded corners*
1,1,$1+$1,$2,$3*
1,1,$1+$1,$4,$5*
1,1,$1+$1,$6,$7*
1,1,$1+$1,$8,$9*
0 Add four rect primitives between the rounded corners*
20,1,$1+$1,$2,$3,$4,$5,0*
20,1,$1+$1,$4,$5,$6,$7,0*
20,1,$1+$1,$6,$7,$8,$9,0*
20,1,$1+$1,$8,$9,$2,$3,0*%
G04 Aperture macros list end*
%ADD10C,1.500000*%
%ADD11C,0.100000*%
%ADD12C,0.038250*%
%ADD13C,0.430000*%
%ADD14C,0.080000*%
%ADD15C,1.000000*%
%ADD16RoundRect,0.063500X0.070711X-0.919239X0.919239X-0.070711X-0.070711X0.919239X-0.919239X0.070711X0*%
%ADD17RoundRect,0.063500X0.813173X-0.035355X-0.035355X0.813173X-0.813173X0.035355X0.035355X-0.813173X0*%
%ADD18C,5.500000*%
%ADD19RoundRect,0.063500X-0.700000X0.600000X-0.700000X-0.600000X0.700000X-0.600000X0.700000X0.600000X0*%
%ADD20RoundRect,0.063500X-0.600000X-0.550000X0.600000X-0.550000X0.600000X0.550000X-0.600000X0.550000X0*%
%ADD21C,3.100000*%
%ADD22RoundRect,0.063500X-0.919239X-0.070711X-0.070711X-0.919239X0.919239X0.070711X0.070711X0.919239X0*%
%ADD23RoundRect,0.063500X-0.035355X-0.813173X0.813173X0.035355X0.035355X0.813173X-0.813173X-0.035355X0*%
%ADD24C,2.400000*%
%ADD25RoundRect,0.063500X0.700000X-0.600000X0.700000X0.600000X-0.700000X0.600000X-0.700000X-0.600000X0*%
%ADD26RoundRect,0.063500X0.600000X0.550000X-0.600000X0.550000X-0.600000X-0.550000X0.600000X-0.550000X0*%
%ADD27RoundRect,0.063500X0.381000X1.206500X-0.381000X1.206500X-0.381000X-1.206500X0.381000X-1.206500X0*%
%ADD28RoundRect,0.063500X-0.381000X-1.206500X0.381000X-1.206500X0.381000X1.206500X-0.381000X1.206500X0*%
%ADD29RoundRect,0.063500X0.919239X0.070711X0.070711X0.919239X-0.919239X-0.070711X-0.070711X-0.919239X0*%
%ADD30RoundRect,0.063500X0.035355X0.813173X-0.813173X-0.035355X-0.035355X-0.813173X0.813173X0.035355X0*%
%ADD31RoundRect,0.063500X-0.070711X0.919239X-0.919239X0.070711X0.070711X-0.919239X0.919239X-0.070711X0*%
%ADD32RoundRect,0.063500X-0.813173X0.035355X0.035355X-0.813173X0.813173X-0.035355X-0.035355X0.813173X0*%
G04 APERTURE END LIST*
D10*
X180501100Y-85010960D02*
G75*
G03*
X181379777Y-87132279I2999996J-3D01*
G01*
X127968865Y-82921366D02*
X125701100Y-80653600D01*
X127868865Y-121885835D02*
X125601100Y-124153600D01*
X180501100Y-79253600D02*
X180501100Y-85010960D01*
X144861100Y-91753600D02*
X144861100Y-96518066D01*
X114961765Y-117592935D02*
X123559684Y-108995016D01*
X159015312Y-111767813D02*
X145801100Y-98553600D01*
X113701100Y-128563600D02*
X113701100Y-120636447D01*
X186041100Y-93036242D02*
G75*
G03*
X185162421Y-90914922I-2999998J1D01*
G01*
X186041100Y-93036241D02*
X186011100Y-96988600D01*
X144861100Y-96518066D02*
G75*
G03*
X145533333Y-98285835I2470004J-72427D01*
G01*
X150001100Y-112953600D02*
X150001100Y-109353600D01*
D11*
X150401100Y-77253600D02*
G75*
G03*
X150401100Y-77253600I-3000000J0D01*
G01*
D10*
X145801100Y-98553600D02*
X145739778Y-98492279D01*
X177961100Y-112353600D02*
X160429528Y-112353600D01*
D11*
X164001100Y-130153600D02*
G75*
G03*
X164001100Y-130153600I-800000J0D01*
G01*
D10*
X181379778Y-87132279D02*
X185162421Y-90914922D01*
X166933335Y-121885836D02*
G75*
G03*
X165165565Y-121153600I-1767771J-1767767D01*
G01*
D11*
X132401100Y-74553600D02*
G75*
G03*
X132401100Y-74553600I-800000J0D01*
G01*
D10*
X186041100Y-107458600D02*
X186041100Y-119473600D01*
X151301100Y-121153600D02*
X165165565Y-121153600D01*
D11*
X176001100Y-86553600D02*
G75*
G03*
X176001100Y-86553600I-800000J0D01*
G01*
D10*
X129636634Y-121153600D02*
G75*
G03*
X127868864Y-121885834I-2J-2500001D01*
G01*
X166933334Y-121885835D02*
X169201100Y-124153600D01*
X151301100Y-83553600D02*
X165165565Y-83553600D01*
X113701100Y-128563600D02*
G75*
G03*
X123291100Y-138153600I9590000J0D01*
G01*
D11*
X150401100Y-127453600D02*
G75*
G03*
X150401100Y-127453600I-3000000J0D01*
G01*
D10*
X143501100Y-121153600D02*
X129636634Y-121153600D01*
X127968865Y-82921367D02*
G75*
G03*
X129736634Y-83653600I1767767J1767768D01*
G01*
X143601100Y-83653600D02*
X129736634Y-83653600D01*
X129743740Y-106253600D02*
X146901100Y-106253600D01*
X177961100Y-112353600D02*
G75*
G03*
X180961100Y-109353600I-1J3000001D01*
G01*
X180961100Y-107538600D02*
X180961100Y-109353600D01*
D11*
X175001100Y-102353600D02*
G75*
G03*
X175001100Y-102353600I-2500000J0D01*
G01*
D10*
X159015312Y-111767813D02*
G75*
G03*
X160429528Y-112353600I1414216J1414217D01*
G01*
X182801100Y-76353600D02*
G75*
G03*
X180501099Y-79253600I920813J-3092370D01*
G01*
D11*
X120401100Y-118153600D02*
G75*
G03*
X120401100Y-118153600I-800000J0D01*
G01*
D10*
X145533334Y-98285835D02*
X145801100Y-98553600D01*
X166933334Y-82821366D02*
X169201100Y-80553600D01*
X150001100Y-109353600D02*
G75*
G03*
X146901100Y-106253600I-3100000J0D01*
G01*
X130178053Y-106253601D02*
G75*
G03*
X123559684Y-108995016I2J-9359800D01*
G01*
D11*
X124801100Y-102353600D02*
G75*
G03*
X124801100Y-102353600I-2500000J0D01*
G01*
D10*
X165165565Y-83553600D02*
G75*
G03*
X166933334Y-82821365I-1J2500003D01*
G01*
X114961765Y-117592936D02*
G75*
G03*
X113701100Y-120636447I3043502J-3043509D01*
G01*
X167461100Y-138153600D02*
G75*
G03*
X186041100Y-119473600I-49999J18629999D01*
G01*
X167461100Y-138153600D02*
X123291100Y-138153600D01*
D11*
X157001100Y-72153600D02*
G75*
G03*
X157001100Y-72153600I-800000J0D01*
G01*
D12*
%TO.C,R2*%
X150162808Y-91717248D02*
X150042225Y-91544986D01*
X149956094Y-91717248D02*
X149956094Y-91355498D01*
X150093904Y-91355498D01*
X150128356Y-91372725D01*
X150145582Y-91389951D01*
X150162808Y-91424403D01*
X150162808Y-91476082D01*
X150145582Y-91510534D01*
X150128356Y-91527760D01*
X150093904Y-91544986D01*
X149956094Y-91544986D01*
X150300618Y-91389951D02*
X150317844Y-91372725D01*
X150352297Y-91355498D01*
X150438427Y-91355498D01*
X150472880Y-91372725D01*
X150490106Y-91389951D01*
X150507332Y-91424403D01*
X150507332Y-91458855D01*
X150490106Y-91510534D01*
X150283392Y-91717248D01*
X150507332Y-91717248D01*
%TO.C,R1*%
X181114748Y-97031891D02*
X180942486Y-97152474D01*
X181114748Y-97238605D02*
X180752998Y-97238605D01*
X180752998Y-97100795D01*
X180770225Y-97066343D01*
X180787451Y-97049117D01*
X180821903Y-97031891D01*
X180873582Y-97031891D01*
X180908034Y-97049117D01*
X180925260Y-97066343D01*
X180942486Y-97100795D01*
X180942486Y-97238605D01*
X181114748Y-96687367D02*
X181114748Y-96894081D01*
X181114748Y-96790724D02*
X180752998Y-96790724D01*
X180804677Y-96825176D01*
X180839129Y-96859629D01*
X180856355Y-96894081D01*
%TO.C,R3*%
X144518807Y-113117248D02*
X144398224Y-112944986D01*
X144312093Y-113117248D02*
X144312093Y-112755498D01*
X144449902Y-112755498D01*
X144484355Y-112772725D01*
X144501581Y-112789951D01*
X144518807Y-112824403D01*
X144518807Y-112876082D01*
X144501581Y-112910534D01*
X144484355Y-112927760D01*
X144449902Y-112944986D01*
X144312093Y-112944986D01*
X144639391Y-112755498D02*
X144863331Y-112755498D01*
X144742748Y-112893308D01*
X144794426Y-112893308D01*
X144828879Y-112910534D01*
X144846105Y-112927760D01*
X144863331Y-112962213D01*
X144863331Y-113048344D01*
X144846105Y-113082796D01*
X144828879Y-113100022D01*
X144794426Y-113117248D01*
X144691069Y-113117248D01*
X144656617Y-113100022D01*
X144639391Y-113082796D01*
D13*
%TO.C,R2*%
X151446100Y-91848600D02*
X151446100Y-91258600D01*
X149756100Y-91848600D02*
X149756100Y-91258600D01*
D11*
X151391100Y-91953600D02*
X149811100Y-91953600D01*
D13*
X149756100Y-91258600D02*
X150046100Y-91258600D01*
X149756100Y-91848600D02*
X150046100Y-91848600D01*
D14*
X149801100Y-91963600D02*
X149801100Y-91143600D01*
D13*
X151156100Y-91848600D02*
X151446100Y-91848600D01*
X151156100Y-91848600D02*
X151156100Y-91258600D01*
X150046100Y-91848600D02*
X150046100Y-91258600D01*
X151156100Y-91258600D02*
X151446100Y-91258600D01*
D14*
X151401100Y-91143600D02*
X151401100Y-91963600D01*
D11*
X149811100Y-91153600D02*
X151391100Y-91153600D01*
D15*
%TO.C,FIDUCIAL3*%
X112001100Y-72153600D02*
G75*
G03*
X112001100Y-72153600I-500000J0D01*
G01*
%TO.C,FIDUCIAL2*%
X112001100Y-138153600D02*
G75*
G03*
X112001100Y-138153600I-500000J0D01*
G01*
%TO.C,FIDUCIAL4*%
X186001100Y-72153600D02*
G75*
G03*
X186001100Y-72153600I-500000J0D01*
G01*
D13*
%TO.C,R1*%
X180656100Y-97438600D02*
X180656100Y-97148600D01*
X181246100Y-97438600D02*
X181246100Y-97148600D01*
X181246100Y-96038600D02*
X181246100Y-95748600D01*
X180656100Y-96038600D02*
X180656100Y-95748600D01*
X181246100Y-96038600D02*
X180656100Y-96038600D01*
X181246100Y-97148600D02*
X180656100Y-97148600D01*
X181246100Y-95748600D02*
X180656100Y-95748600D01*
X181246100Y-97438600D02*
X180656100Y-97438600D01*
D11*
X180551100Y-97383600D02*
X180551100Y-95803600D01*
D14*
X181361100Y-97393600D02*
X180541100Y-97393600D01*
X180541100Y-95793600D02*
X181361100Y-95793600D01*
D11*
X181351100Y-95803600D02*
X181351100Y-97383600D01*
D14*
%TO.C,R3*%
X145001100Y-112543600D02*
X145001100Y-113363600D01*
D13*
X143646100Y-112658600D02*
X143356100Y-112658600D01*
X144756100Y-112658600D02*
X144756100Y-113248600D01*
X145046100Y-112658600D02*
X145046100Y-113248600D01*
X143646100Y-112658600D02*
X143646100Y-113248600D01*
X143646100Y-113248600D02*
X143356100Y-113248600D01*
D14*
X143401100Y-113363600D02*
X143401100Y-112543600D01*
D11*
X143411100Y-112553600D02*
X144991100Y-112553600D01*
D13*
X143356100Y-112658600D02*
X143356100Y-113248600D01*
D11*
X144991100Y-113353600D02*
X143411100Y-113353600D01*
D13*
X145046100Y-113248600D02*
X144756100Y-113248600D01*
X145046100Y-112658600D02*
X144756100Y-112658600D01*
%TD*%
D16*
%TO.C,J10*%
X130413235Y-73356982D03*
D17*
X128362625Y-73993378D03*
X131049631Y-71306372D03*
%TD*%
D18*
%TO.C,@HOLE7*%
X120371100Y-129383600D03*
%TD*%
D19*
%TO.C,J1*%
X184501100Y-76253600D03*
D20*
X185501100Y-74353600D03*
X185501100Y-78153600D03*
%TD*%
D21*
%TO.C,@HOLE3*%
X147401100Y-127453600D03*
%TD*%
D22*
%TO.C,J2*%
X170393993Y-79360707D03*
D23*
X169757597Y-77310097D03*
X172444603Y-79997103D03*
%TD*%
D24*
%TO.C,@HOLE0*%
X122301100Y-102353600D03*
%TD*%
D25*
%TO.C,J6*%
X154501100Y-72153600D03*
D26*
X153501100Y-74053600D03*
X153501100Y-70253600D03*
%TD*%
D16*
%TO.C,J3*%
X124408207Y-79360707D03*
D17*
X122357597Y-79997103D03*
X125044603Y-77310097D03*
%TD*%
D27*
%TO.C,U1*%
X186041100Y-99268600D03*
X184771100Y-99268600D03*
X183501100Y-99268600D03*
X182231100Y-99268600D03*
X180961100Y-99268600D03*
X180961100Y-105238600D03*
X182231100Y-105238600D03*
X183501100Y-105238600D03*
X184771100Y-105238600D03*
X186041100Y-105238600D03*
%TD*%
D28*
%TO.C,U2*%
X144861100Y-89538600D03*
X146131100Y-89538600D03*
X147401100Y-89538600D03*
X148671100Y-89538600D03*
X149941100Y-89538600D03*
X149941100Y-83568600D03*
X148671100Y-83568600D03*
X147401100Y-83568600D03*
X146131100Y-83568600D03*
X144861100Y-83568600D03*
%TD*%
D29*
%TO.C,J9*%
X118408207Y-119346493D03*
D30*
X119044603Y-121397103D03*
X116357597Y-118710097D03*
%TD*%
D24*
%TO.C,@HOLE1*%
X172501100Y-102353600D03*
%TD*%
D18*
%TO.C,@HOLE6*%
X174431100Y-129383600D03*
%TD*%
D29*
%TO.C,J5*%
X124408207Y-125346493D03*
D30*
X125044603Y-127397103D03*
X122357597Y-124710097D03*
%TD*%
D22*
%TO.C,J7*%
X176393993Y-85360707D03*
D23*
X175757597Y-83310097D03*
X178444603Y-85997103D03*
%TD*%
D27*
%TO.C,U3*%
X149941100Y-115168600D03*
X148671100Y-115168600D03*
X147401100Y-115168600D03*
X146131100Y-115168600D03*
X144861100Y-115168600D03*
X144861100Y-121138600D03*
X146131100Y-121138600D03*
X147401100Y-121138600D03*
X148671100Y-121138600D03*
X149941100Y-121138600D03*
%TD*%
D18*
%TO.C,@HOLE4*%
X174431100Y-75323600D03*
%TD*%
%TO.C,@HOLE5*%
X120371100Y-75323600D03*
%TD*%
D21*
%TO.C,@HOLE2*%
X147401100Y-77253600D03*
%TD*%
D31*
%TO.C,J4*%
X170393993Y-125346493D03*
D32*
X172444603Y-124710097D03*
X169757597Y-127397103D03*
%TD*%
D31*
%TO.C,J8*%
X164393993Y-131346493D03*
D32*
X166444603Y-130710097D03*
X163757597Y-133397103D03*
%TD*%
M02*
