%FSLAX45Y45*%
G04 Gerber Fmt 4.5, Leading zero omitted, Abs format (unit mm)*
G04 Created by KiCad (PCBNEW (6.0.2)) date 2022-09-07 19:19:19*
%MOMM*%
%LPD*%
G01*
G04 APERTURE LIST*
%TA.AperFunction,Profile*%
%ADD10C,0.001000*%
%TD*%
%ADD11C,0.200000*%
%ADD12C,0.025400*%
%ADD13C,0.038000*%
G04 APERTURE END LIST*
D10*
X11050110Y-6925360D02*
G75*
G03*
X10850110Y-7125360I0J-200000D01*
G01*
X18850110Y-7125360D02*
G75*
G03*
X18650110Y-6925360I-200000J0D01*
G01*
X18650110Y-14075360D02*
G75*
G03*
X18850110Y-13875360I0J200000D01*
G01*
X10850110Y-13875360D02*
X10850110Y-7125360D01*
X10850110Y-13875360D02*
G75*
G03*
X11050110Y-14075360I200000J0D01*
G01*
X18850110Y-7125360D02*
X18850110Y-13875360D01*
X18650110Y-14075360D02*
X11050110Y-14075360D01*
X11050110Y-6925360D02*
X18650110Y-6925360D01*
D11*
D12*
X10937410Y-13952660D02*
X10962810Y-13978060D01*
X10962810Y-13952660D02*
X10937410Y-13978060D01*
X10947410Y-7012660D02*
X10972810Y-7038060D01*
X10972810Y-7012660D02*
X10947410Y-7038060D01*
X11187410Y-12482660D02*
X11212810Y-12508060D01*
X11212810Y-12482660D02*
X11187410Y-12508060D01*
X11187410Y-12782660D02*
X11212810Y-12808060D01*
X11212810Y-12782660D02*
X11187410Y-12808060D01*
X11207410Y-12152660D02*
X11232810Y-12178060D01*
X11232810Y-12152660D02*
X11207410Y-12178060D01*
X11217410Y-11802660D02*
X11242810Y-11828060D01*
X11242810Y-11802660D02*
X11217410Y-11828060D01*
X11217410Y-13082660D02*
X11242810Y-13108060D01*
X11242810Y-13082660D02*
X11217410Y-13108060D01*
X11237410Y-7712660D02*
X11262810Y-7738060D01*
X11262810Y-7712660D02*
X11237410Y-7738060D01*
X11237410Y-8212660D02*
X11262810Y-8238060D01*
X11262810Y-8212660D02*
X11237410Y-8238060D01*
X11237410Y-9212660D02*
X11262810Y-9238060D01*
X11262810Y-9212660D02*
X11237410Y-9238060D01*
X11237410Y-10212660D02*
X11262810Y-10238060D01*
X11262810Y-10212660D02*
X11237410Y-10238060D01*
X11237410Y-11212660D02*
X11262810Y-11238060D01*
X11262810Y-11212660D02*
X11237410Y-11238060D01*
X11317410Y-13362660D02*
X11342810Y-13388060D01*
X11342810Y-13362660D02*
X11317410Y-13388060D01*
X11429410Y-11590660D02*
X11454810Y-11616060D01*
X11454810Y-11590660D02*
X11429410Y-11616060D01*
X11497410Y-13612660D02*
X11522810Y-13638060D01*
X11522810Y-13612660D02*
X11497410Y-13638060D01*
X11503410Y-12026660D02*
X11528810Y-12052060D01*
X11528810Y-12026660D02*
X11503410Y-12052060D01*
X11507410Y-12782660D02*
X11532810Y-12808060D01*
X11532810Y-12782660D02*
X11507410Y-12808060D01*
X11517410Y-12222660D02*
X11542810Y-12248060D01*
X11542810Y-12222660D02*
X11517410Y-12248060D01*
X11517410Y-12452660D02*
X11542810Y-12478060D01*
X11542810Y-12452660D02*
X11517410Y-12478060D01*
X11537410Y-13082660D02*
X11562810Y-13108060D01*
X11562810Y-13082660D02*
X11537410Y-13108060D01*
X11547410Y-11922660D02*
X11572810Y-11948060D01*
X11572810Y-11922660D02*
X11547410Y-11948060D01*
X11577410Y-7072660D02*
X11602810Y-7098060D01*
X11602810Y-7072660D02*
X11577410Y-7098060D01*
X11641410Y-11378660D02*
X11666810Y-11404060D01*
X11666810Y-11378660D02*
X11641410Y-11404060D01*
X11677410Y-12072660D02*
X11702810Y-12098060D01*
X11702810Y-12072660D02*
X11677410Y-12098060D01*
X11677410Y-13352660D02*
X11702810Y-13378060D01*
X11702810Y-13352660D02*
X11677410Y-13378060D01*
X11683410Y-11766660D02*
X11708810Y-11792060D01*
X11708810Y-11766660D02*
X11683410Y-11792060D01*
X11737410Y-8212660D02*
X11762810Y-8238060D01*
X11762810Y-8212660D02*
X11737410Y-8238060D01*
X11737410Y-8712660D02*
X11762810Y-8738060D01*
X11762810Y-8712660D02*
X11737410Y-8738060D01*
X11737410Y-9712660D02*
X11762810Y-9738060D01*
X11762810Y-9712660D02*
X11737410Y-9738060D01*
X11737410Y-10712660D02*
X11762810Y-10738060D01*
X11762810Y-10712660D02*
X11737410Y-10738060D01*
X11747410Y-13802660D02*
X11772810Y-13828060D01*
X11772810Y-13802660D02*
X11747410Y-13828060D01*
X11827410Y-12202660D02*
X11852810Y-12228060D01*
X11852810Y-12202660D02*
X11827410Y-12228060D01*
X11837410Y-11692660D02*
X11862810Y-11718060D01*
X11862810Y-11692660D02*
X11837410Y-11718060D01*
X11853410Y-11166660D02*
X11878810Y-11192060D01*
X11878810Y-11166660D02*
X11853410Y-11192060D01*
X11853410Y-11596660D02*
X11878810Y-11622060D01*
X11878810Y-11596660D02*
X11853410Y-11622060D01*
X11907410Y-13542660D02*
X11932810Y-13568060D01*
X11932810Y-13542660D02*
X11907410Y-13568060D01*
X11957410Y-12052660D02*
X11982810Y-12078060D01*
X11982810Y-12052660D02*
X11957410Y-12078060D01*
X11967410Y-12202660D02*
X11992810Y-12228060D01*
X11992810Y-12202660D02*
X11967410Y-12228060D01*
X12023410Y-11416660D02*
X12048810Y-11442060D01*
X12048810Y-11416660D02*
X12023410Y-11442060D01*
X12037410Y-11982660D02*
X12062810Y-12008060D01*
X12062810Y-11982660D02*
X12037410Y-12008060D01*
X12057410Y-13932660D02*
X12082810Y-13958060D01*
X12082810Y-13932660D02*
X12057410Y-13958060D01*
X12065410Y-10954660D02*
X12090810Y-10980060D01*
X12090810Y-10954660D02*
X12065410Y-10980060D01*
X12097410Y-11652660D02*
X12122810Y-11678060D01*
X12122810Y-11652660D02*
X12097410Y-11678060D01*
X12147410Y-7922660D02*
X12172810Y-7948060D01*
X12172810Y-7922660D02*
X12147410Y-7948060D01*
X12147410Y-12392660D02*
X12172810Y-12418060D01*
X12172810Y-12392660D02*
X12147410Y-12418060D01*
X12147410Y-12522660D02*
X12172810Y-12548060D01*
X12172810Y-12522660D02*
X12147410Y-12548060D01*
X12157410Y-8052660D02*
X12182810Y-8078060D01*
X12182810Y-8052660D02*
X12157410Y-8078060D01*
X12167410Y-13632660D02*
X12192810Y-13658060D01*
X12192810Y-13632660D02*
X12167410Y-13658060D01*
X12215410Y-11224660D02*
X12240810Y-11250060D01*
X12240810Y-11224660D02*
X12215410Y-11250060D01*
X12237410Y-9212660D02*
X12262810Y-9238060D01*
X12262810Y-9212660D02*
X12237410Y-9238060D01*
X12247410Y-11642660D02*
X12272810Y-11668060D01*
X12272810Y-11642660D02*
X12247410Y-11668060D01*
X12247410Y-11982660D02*
X12272810Y-12008060D01*
X12272810Y-11982660D02*
X12247410Y-12008060D01*
X12277410Y-7782660D02*
X12302810Y-7808060D01*
X12302810Y-7782660D02*
X12277410Y-7808060D01*
X12277410Y-10742660D02*
X12302810Y-10768060D01*
X12302810Y-10742660D02*
X12277410Y-10768060D01*
X12287410Y-12672660D02*
X12312810Y-12698060D01*
X12312810Y-12672660D02*
X12287410Y-12698060D01*
X12297410Y-8062660D02*
X12322810Y-8088060D01*
X12322810Y-8062660D02*
X12297410Y-8088060D01*
X12307410Y-12382660D02*
X12332810Y-12408060D01*
X12332810Y-12382660D02*
X12307410Y-12408060D01*
X12377410Y-11542660D02*
X12402810Y-11568060D01*
X12402810Y-11542660D02*
X12377410Y-11568060D01*
X12417410Y-11922660D02*
X12442810Y-11948060D01*
X12442810Y-11922660D02*
X12417410Y-11948060D01*
X12417410Y-12792660D02*
X12442810Y-12818060D01*
X12442810Y-12792660D02*
X12417410Y-12818060D01*
X12427410Y-7642660D02*
X12452810Y-7668060D01*
X12452810Y-7642660D02*
X12427410Y-7668060D01*
X12437410Y-8142660D02*
X12462810Y-8168060D01*
X12462810Y-8142660D02*
X12437410Y-8168060D01*
X12437410Y-12302660D02*
X12462810Y-12328060D01*
X12462810Y-12302660D02*
X12437410Y-12328060D01*
X12447410Y-10992660D02*
X12472810Y-11018060D01*
X12472810Y-10992660D02*
X12447410Y-11018060D01*
X12477410Y-7092660D02*
X12502810Y-7118060D01*
X12502810Y-7092660D02*
X12477410Y-7118060D01*
X12477410Y-13652660D02*
X12502810Y-13678060D01*
X12502810Y-13652660D02*
X12477410Y-13678060D01*
X12477410Y-13962660D02*
X12502810Y-13988060D01*
X12502810Y-13962660D02*
X12477410Y-13988060D01*
X12517410Y-8712660D02*
X12542810Y-8738060D01*
X12542810Y-8712660D02*
X12517410Y-8738060D01*
X12517410Y-11822660D02*
X12542810Y-11848060D01*
X12542810Y-11822660D02*
X12517410Y-11848060D01*
X12519410Y-10580660D02*
X12544810Y-10606060D01*
X12544810Y-10580660D02*
X12519410Y-10606060D01*
X12525410Y-12210660D02*
X12550810Y-12236060D01*
X12550810Y-12210660D02*
X12525410Y-12236060D01*
X12527410Y-11392660D02*
X12552810Y-11418060D01*
X12552810Y-11392660D02*
X12527410Y-11418060D01*
X12547410Y-8252660D02*
X12572810Y-8278060D01*
X12572810Y-8252660D02*
X12547410Y-8278060D01*
X12547410Y-13232660D02*
X12572810Y-13258060D01*
X12572810Y-13232660D02*
X12547410Y-13258060D01*
X12557410Y-7652660D02*
X12582810Y-7678060D01*
X12582810Y-7652660D02*
X12557410Y-7678060D01*
X12557410Y-7792660D02*
X12582810Y-7818060D01*
X12582810Y-7792660D02*
X12557410Y-7818060D01*
X12557410Y-12652660D02*
X12582810Y-12678060D01*
X12582810Y-12652660D02*
X12557410Y-12678060D01*
X12557410Y-12792660D02*
X12582810Y-12818060D01*
X12582810Y-12792660D02*
X12557410Y-12818060D01*
X12627410Y-11712660D02*
X12652810Y-11738060D01*
X12652810Y-11712660D02*
X12627410Y-11738060D01*
X12637410Y-9732660D02*
X12662810Y-9758060D01*
X12662810Y-9732660D02*
X12637410Y-9758060D01*
X12647410Y-12512660D02*
X12672810Y-12538060D01*
X12672810Y-12512660D02*
X12647410Y-12538060D01*
X12657410Y-7942660D02*
X12682810Y-7968060D01*
X12682810Y-7942660D02*
X12657410Y-7968060D01*
X12657410Y-8362660D02*
X12682810Y-8388060D01*
X12682810Y-8362660D02*
X12657410Y-8388060D01*
X12659410Y-10840660D02*
X12684810Y-10866060D01*
X12684810Y-10840660D02*
X12659410Y-10866060D01*
X12667410Y-11252660D02*
X12692810Y-11278060D01*
X12692810Y-11252660D02*
X12667410Y-11278060D01*
X12685410Y-12050660D02*
X12710810Y-12076060D01*
X12710810Y-12050660D02*
X12685410Y-12076060D01*
X12737410Y-11602660D02*
X12762810Y-11628060D01*
X12762810Y-11602660D02*
X12737410Y-11628060D01*
X12747410Y-7312660D02*
X12772810Y-7338060D01*
X12772810Y-7312660D02*
X12747410Y-7338060D01*
X12747410Y-7452660D02*
X12772810Y-7478060D01*
X12772810Y-7452660D02*
X12747410Y-7478060D01*
X12777410Y-13652660D02*
X12802810Y-13678060D01*
X12802810Y-13652660D02*
X12777410Y-13678060D01*
X12777410Y-13962660D02*
X12802810Y-13988060D01*
X12802810Y-13962660D02*
X12777410Y-13988060D01*
X12787410Y-8062660D02*
X12812810Y-8088060D01*
X12812810Y-8062660D02*
X12787410Y-8088060D01*
X12791410Y-10478660D02*
X12816810Y-10504060D01*
X12816810Y-10478660D02*
X12791410Y-10504060D01*
X12797410Y-11122660D02*
X12822810Y-11148060D01*
X12822810Y-11122660D02*
X12797410Y-11148060D01*
X12815410Y-12340660D02*
X12840810Y-12366060D01*
X12840810Y-12340660D02*
X12815410Y-12366060D01*
X12837410Y-11502660D02*
X12862810Y-11528060D01*
X12862810Y-11502660D02*
X12837410Y-11528060D01*
X12867410Y-8482660D02*
X12892810Y-8508060D01*
X12892810Y-8482660D02*
X12867410Y-8508060D01*
X12877410Y-7182660D02*
X12902810Y-7208060D01*
X12902810Y-7182660D02*
X12877410Y-7208060D01*
X12897410Y-7452660D02*
X12922810Y-7478060D01*
X12922810Y-7452660D02*
X12897410Y-7478060D01*
X12907410Y-8182660D02*
X12932810Y-8208060D01*
X12932810Y-8182660D02*
X12907410Y-8208060D01*
X12907410Y-11012660D02*
X12932810Y-11038060D01*
X12932810Y-11012660D02*
X12907410Y-11038060D01*
X12927410Y-11412660D02*
X12952810Y-11438060D01*
X12952810Y-11412660D02*
X12927410Y-11438060D01*
X12995410Y-11950660D02*
X13020810Y-11976060D01*
X13020810Y-11950660D02*
X12995410Y-11976060D01*
X12995410Y-12250660D02*
X13020810Y-12276060D01*
X13020810Y-12250660D02*
X12995410Y-12276060D01*
X13017410Y-10902660D02*
X13042810Y-10928060D01*
X13042810Y-10902660D02*
X13017410Y-10928060D01*
X13017410Y-11322660D02*
X13042810Y-11348060D01*
X13042810Y-11322660D02*
X13017410Y-11348060D01*
X13027410Y-7042660D02*
X13052810Y-7068060D01*
X13052810Y-7042660D02*
X13027410Y-7068060D01*
X13027410Y-7542660D02*
X13052810Y-7568060D01*
X13052810Y-7542660D02*
X13027410Y-7568060D01*
X13077410Y-9792660D02*
X13102810Y-9818060D01*
X13102810Y-9792660D02*
X13077410Y-9818060D01*
X13077410Y-13652660D02*
X13102810Y-13678060D01*
X13102810Y-13652660D02*
X13077410Y-13678060D01*
X13077410Y-13962660D02*
X13102810Y-13988060D01*
X13102810Y-13962660D02*
X13077410Y-13988060D01*
X13087410Y-7972660D02*
X13112810Y-7998060D01*
X13112810Y-7972660D02*
X13087410Y-7998060D01*
X13097410Y-7772660D02*
X13122810Y-7798060D01*
X13122810Y-7772660D02*
X13097410Y-7798060D01*
X13097410Y-8192660D02*
X13122810Y-8218060D01*
X13122810Y-8192660D02*
X13097410Y-8218060D01*
X13097410Y-8492660D02*
X13122810Y-8518060D01*
X13122810Y-8492660D02*
X13097410Y-8518060D01*
X13097410Y-8682660D02*
X13122810Y-8708060D01*
X13122810Y-8682660D02*
X13097410Y-8708060D01*
X13097410Y-8842660D02*
X13122810Y-8868060D01*
X13122810Y-8842660D02*
X13097410Y-8868060D01*
X13097410Y-9002660D02*
X13122810Y-9028060D01*
X13122810Y-9002660D02*
X13097410Y-9028060D01*
X13097410Y-9172660D02*
X13122810Y-9198060D01*
X13122810Y-9172660D02*
X13097410Y-9198060D01*
X13097410Y-9352660D02*
X13122810Y-9378060D01*
X13122810Y-9352660D02*
X13097410Y-9378060D01*
X13097410Y-9542660D02*
X13122810Y-9568060D01*
X13122810Y-9542660D02*
X13097410Y-9568060D01*
X13097410Y-9692660D02*
X13122810Y-9718060D01*
X13122810Y-9692660D02*
X13097410Y-9718060D01*
X13097410Y-10182660D02*
X13122810Y-10208060D01*
X13122810Y-10182660D02*
X13097410Y-10208060D01*
X13097410Y-10312660D02*
X13122810Y-10338060D01*
X13122810Y-10312660D02*
X13097410Y-10338060D01*
X13097410Y-10462660D02*
X13122810Y-10488060D01*
X13122810Y-10462660D02*
X13097410Y-10488060D01*
X13097410Y-10762660D02*
X13122810Y-10788060D01*
X13122810Y-10762660D02*
X13097410Y-10788060D01*
X13107410Y-11232660D02*
X13132810Y-11258060D01*
X13132810Y-11232660D02*
X13107410Y-11258060D01*
X13147410Y-9972660D02*
X13172810Y-9998060D01*
X13172810Y-9972660D02*
X13147410Y-9998060D01*
X13157410Y-7052660D02*
X13182810Y-7078060D01*
X13182810Y-7052660D02*
X13157410Y-7078060D01*
X13157410Y-7192660D02*
X13182810Y-7218060D01*
X13182810Y-7192660D02*
X13157410Y-7218060D01*
X13227410Y-11112660D02*
X13252810Y-11138060D01*
X13252810Y-11112660D02*
X13227410Y-11138060D01*
X13237410Y-13212660D02*
X13262810Y-13238060D01*
X13262810Y-13212660D02*
X13237410Y-13238060D01*
X13247410Y-7322660D02*
X13272810Y-7348060D01*
X13272810Y-7322660D02*
X13247410Y-7348060D01*
X13295410Y-11950660D02*
X13320810Y-11976060D01*
X13320810Y-11950660D02*
X13295410Y-11976060D01*
X13295410Y-12250660D02*
X13320810Y-12276060D01*
X13320810Y-12250660D02*
X13295410Y-12276060D01*
X13337410Y-7432660D02*
X13362810Y-7458060D01*
X13362810Y-7432660D02*
X13337410Y-7458060D01*
X13337410Y-11002660D02*
X13362810Y-11028060D01*
X13362810Y-11002660D02*
X13337410Y-11028060D01*
X13347410Y-9972660D02*
X13372810Y-9998060D01*
X13372810Y-9972660D02*
X13347410Y-9998060D01*
X13377410Y-13652660D02*
X13402810Y-13678060D01*
X13402810Y-13652660D02*
X13377410Y-13678060D01*
X13377410Y-13962660D02*
X13402810Y-13988060D01*
X13402810Y-13962660D02*
X13377410Y-13988060D01*
X13387410Y-8492660D02*
X13412810Y-8518060D01*
X13412810Y-8492660D02*
X13387410Y-8518060D01*
X13387410Y-8932660D02*
X13412810Y-8958060D01*
X13412810Y-8932660D02*
X13387410Y-8958060D01*
X13387410Y-9092660D02*
X13412810Y-9118060D01*
X13412810Y-9092660D02*
X13387410Y-9118060D01*
X13387410Y-9222660D02*
X13412810Y-9248060D01*
X13412810Y-9222660D02*
X13387410Y-9248060D01*
X13387410Y-9392660D02*
X13412810Y-9418060D01*
X13412810Y-9392660D02*
X13387410Y-9418060D01*
X13387410Y-9552660D02*
X13412810Y-9578060D01*
X13412810Y-9552660D02*
X13387410Y-9578060D01*
X13387410Y-9672660D02*
X13412810Y-9698060D01*
X13412810Y-9672660D02*
X13387410Y-9698060D01*
X13389410Y-10760660D02*
X13414810Y-10786060D01*
X13414810Y-10760660D02*
X13389410Y-10786060D01*
X13397410Y-7572660D02*
X13422810Y-7598060D01*
X13422810Y-7572660D02*
X13397410Y-7598060D01*
X13397410Y-7772660D02*
X13422810Y-7798060D01*
X13422810Y-7772660D02*
X13397410Y-7798060D01*
X13397410Y-7972660D02*
X13422810Y-7998060D01*
X13422810Y-7972660D02*
X13397410Y-7998060D01*
X13397410Y-8192660D02*
X13422810Y-8218060D01*
X13422810Y-8192660D02*
X13397410Y-8218060D01*
X13397410Y-10232660D02*
X13422810Y-10258060D01*
X13422810Y-10232660D02*
X13397410Y-10258060D01*
X13397410Y-10342660D02*
X13422810Y-10368060D01*
X13422810Y-10342660D02*
X13397410Y-10368060D01*
X13397410Y-10462660D02*
X13422810Y-10488060D01*
X13422810Y-10462660D02*
X13397410Y-10488060D01*
X13407410Y-8672660D02*
X13432810Y-8698060D01*
X13432810Y-8672660D02*
X13407410Y-8698060D01*
X13517410Y-8492660D02*
X13542810Y-8518060D01*
X13542810Y-8492660D02*
X13517410Y-8518060D01*
X13547410Y-9972660D02*
X13572810Y-9998060D01*
X13572810Y-9972660D02*
X13547410Y-9998060D01*
X13595410Y-11950660D02*
X13620810Y-11976060D01*
X13620810Y-11950660D02*
X13595410Y-11976060D01*
X13595410Y-12250660D02*
X13620810Y-12276060D01*
X13620810Y-12250660D02*
X13595410Y-12276060D01*
X13607410Y-10282660D02*
X13632810Y-10308060D01*
X13632810Y-10282660D02*
X13607410Y-10308060D01*
X13627410Y-9842660D02*
X13652810Y-9868060D01*
X13652810Y-9842660D02*
X13627410Y-9868060D01*
X13647410Y-8192660D02*
X13672810Y-8218060D01*
X13672810Y-8192660D02*
X13647410Y-8218060D01*
X13657410Y-9972660D02*
X13682810Y-9998060D01*
X13682810Y-9972660D02*
X13657410Y-9998060D01*
X13677410Y-13652660D02*
X13702810Y-13678060D01*
X13702810Y-13652660D02*
X13677410Y-13678060D01*
X13677410Y-13962660D02*
X13702810Y-13988060D01*
X13702810Y-13962660D02*
X13677410Y-13988060D01*
X13687410Y-8922660D02*
X13712810Y-8948060D01*
X13712810Y-8922660D02*
X13687410Y-8948060D01*
X13687410Y-9082660D02*
X13712810Y-9108060D01*
X13712810Y-9082660D02*
X13687410Y-9108060D01*
X13687410Y-9222660D02*
X13712810Y-9248060D01*
X13712810Y-9222660D02*
X13687410Y-9248060D01*
X13687410Y-9392660D02*
X13712810Y-9418060D01*
X13712810Y-9392660D02*
X13687410Y-9418060D01*
X13687410Y-9552660D02*
X13712810Y-9578060D01*
X13712810Y-9552660D02*
X13687410Y-9578060D01*
X13687410Y-9702660D02*
X13712810Y-9728060D01*
X13712810Y-9702660D02*
X13687410Y-9728060D01*
X13717410Y-10462660D02*
X13742810Y-10488060D01*
X13742810Y-10462660D02*
X13717410Y-10488060D01*
X13719410Y-10760660D02*
X13744810Y-10786060D01*
X13744810Y-10760660D02*
X13719410Y-10786060D01*
X13735410Y-8714660D02*
X13760810Y-8740060D01*
X13760810Y-8714660D02*
X13735410Y-8740060D01*
X13737410Y-7712660D02*
X13762810Y-7738060D01*
X13762810Y-7712660D02*
X13737410Y-7738060D01*
X13737410Y-9892660D02*
X13762810Y-9918060D01*
X13762810Y-9892660D02*
X13737410Y-9918060D01*
X13737410Y-12712660D02*
X13762810Y-12738060D01*
X13762810Y-12712660D02*
X13737410Y-12738060D01*
X13817410Y-10082660D02*
X13842810Y-10108060D01*
X13842810Y-10082660D02*
X13817410Y-10108060D01*
X13847410Y-7212660D02*
X13872810Y-7238060D01*
X13872810Y-7212660D02*
X13847410Y-7238060D01*
X13867410Y-8562660D02*
X13892810Y-8588060D01*
X13892810Y-8562660D02*
X13867410Y-8588060D01*
X13895410Y-8184660D02*
X13920810Y-8210060D01*
X13920810Y-8184660D02*
X13895410Y-8210060D01*
X13895410Y-11950660D02*
X13920810Y-11976060D01*
X13920810Y-11950660D02*
X13895410Y-11976060D01*
X13895410Y-12250660D02*
X13920810Y-12276060D01*
X13920810Y-12250660D02*
X13895410Y-12276060D01*
X13977410Y-13652660D02*
X14002810Y-13678060D01*
X14002810Y-13652660D02*
X13977410Y-13678060D01*
X13977410Y-13962660D02*
X14002810Y-13988060D01*
X14002810Y-13962660D02*
X13977410Y-13988060D01*
X14017410Y-10462660D02*
X14042810Y-10488060D01*
X14042810Y-10462660D02*
X14017410Y-10488060D01*
X14019410Y-10760660D02*
X14044810Y-10786060D01*
X14044810Y-10760660D02*
X14019410Y-10786060D01*
X14077410Y-8492660D02*
X14102810Y-8518060D01*
X14102810Y-8492660D02*
X14077410Y-8518060D01*
X14087410Y-8182660D02*
X14112810Y-8208060D01*
X14112810Y-8182660D02*
X14087410Y-8208060D01*
X14195410Y-11950660D02*
X14220810Y-11976060D01*
X14220810Y-11950660D02*
X14195410Y-11976060D01*
X14195410Y-12250660D02*
X14220810Y-12276060D01*
X14220810Y-12250660D02*
X14195410Y-12276060D01*
X14237410Y-10212660D02*
X14262810Y-10238060D01*
X14262810Y-10212660D02*
X14237410Y-10238060D01*
X14237410Y-13212660D02*
X14262810Y-13238060D01*
X14262810Y-13212660D02*
X14237410Y-13238060D01*
X14257410Y-11282660D02*
X14282810Y-11308060D01*
X14282810Y-11282660D02*
X14257410Y-11308060D01*
X14277410Y-13652660D02*
X14302810Y-13678060D01*
X14302810Y-13652660D02*
X14277410Y-13678060D01*
X14277410Y-13962660D02*
X14302810Y-13988060D01*
X14302810Y-13962660D02*
X14277410Y-13988060D01*
X14307410Y-8182660D02*
X14332810Y-8208060D01*
X14332810Y-8182660D02*
X14307410Y-8208060D01*
X14307410Y-8492660D02*
X14332810Y-8518060D01*
X14332810Y-8492660D02*
X14307410Y-8518060D01*
X14307410Y-8812660D02*
X14332810Y-8838060D01*
X14332810Y-8812660D02*
X14307410Y-8838060D01*
X14307410Y-9042660D02*
X14332810Y-9068060D01*
X14332810Y-9042660D02*
X14307410Y-9068060D01*
X14317410Y-10462660D02*
X14342810Y-10488060D01*
X14342810Y-10462660D02*
X14317410Y-10488060D01*
X14319410Y-10760660D02*
X14344810Y-10786060D01*
X14344810Y-10760660D02*
X14319410Y-10786060D01*
X14327410Y-9352660D02*
X14352810Y-9378060D01*
X14352810Y-9352660D02*
X14327410Y-9378060D01*
X14327410Y-9652660D02*
X14352810Y-9678060D01*
X14352810Y-9652660D02*
X14327410Y-9678060D01*
X14397410Y-8632660D02*
X14422810Y-8658060D01*
X14422810Y-8632660D02*
X14397410Y-8658060D01*
X14397410Y-11802660D02*
X14422810Y-11828060D01*
X14422810Y-11802660D02*
X14397410Y-11828060D01*
X14405410Y-9890660D02*
X14430810Y-9916060D01*
X14430810Y-9890660D02*
X14405410Y-9916060D01*
X14577410Y-13652660D02*
X14602810Y-13678060D01*
X14602810Y-13652660D02*
X14577410Y-13678060D01*
X14577410Y-13952660D02*
X14602810Y-13978060D01*
X14602810Y-13952660D02*
X14577410Y-13978060D01*
X14587410Y-8632660D02*
X14612810Y-8658060D01*
X14612810Y-8632660D02*
X14587410Y-8658060D01*
X14597410Y-11332660D02*
X14622810Y-11358060D01*
X14622810Y-11332660D02*
X14597410Y-11358060D01*
X14607410Y-11802660D02*
X14632810Y-11828060D01*
X14632810Y-11802660D02*
X14607410Y-11828060D01*
X14617410Y-9352660D02*
X14642810Y-9378060D01*
X14642810Y-9352660D02*
X14617410Y-9378060D01*
X14617410Y-10102660D02*
X14642810Y-10128060D01*
X14642810Y-10102660D02*
X14617410Y-10128060D01*
X14619410Y-10460660D02*
X14644810Y-10486060D01*
X14644810Y-10460660D02*
X14619410Y-10486060D01*
X14619410Y-10760660D02*
X14644810Y-10786060D01*
X14644810Y-10760660D02*
X14619410Y-10786060D01*
X14627410Y-8162660D02*
X14652810Y-8188060D01*
X14652810Y-8162660D02*
X14627410Y-8188060D01*
X14627410Y-9112660D02*
X14652810Y-9138060D01*
X14652810Y-9112660D02*
X14627410Y-9138060D01*
X14627410Y-9652660D02*
X14652810Y-9678060D01*
X14652810Y-9652660D02*
X14627410Y-9678060D01*
X14627410Y-12272660D02*
X14652810Y-12298060D01*
X14652810Y-12272660D02*
X14627410Y-12298060D01*
X14657410Y-7172660D02*
X14682810Y-7198060D01*
X14682810Y-7172660D02*
X14657410Y-7198060D01*
X14727410Y-8162660D02*
X14752810Y-8188060D01*
X14752810Y-8162660D02*
X14727410Y-8188060D01*
X14727410Y-9112660D02*
X14752810Y-9138060D01*
X14752810Y-9112660D02*
X14727410Y-9138060D01*
X14727410Y-9792660D02*
X14752810Y-9818060D01*
X14752810Y-9792660D02*
X14727410Y-9818060D01*
X14727410Y-11332660D02*
X14752810Y-11358060D01*
X14752810Y-11332660D02*
X14727410Y-11358060D01*
X14727410Y-12272660D02*
X14752810Y-12298060D01*
X14752810Y-12272660D02*
X14727410Y-12298060D01*
X14827410Y-8162660D02*
X14852810Y-8188060D01*
X14852810Y-8162660D02*
X14827410Y-8188060D01*
X14827410Y-10922660D02*
X14852810Y-10948060D01*
X14852810Y-10922660D02*
X14827410Y-10948060D01*
X14827410Y-11232660D02*
X14852810Y-11258060D01*
X14852810Y-11232660D02*
X14827410Y-11258060D01*
X14827410Y-12272660D02*
X14852810Y-12298060D01*
X14852810Y-12272660D02*
X14827410Y-12298060D01*
X14829410Y-10314660D02*
X14854810Y-10340060D01*
X14854810Y-10314660D02*
X14829410Y-10340060D01*
X14837410Y-11332660D02*
X14862810Y-11358060D01*
X14862810Y-11332660D02*
X14837410Y-11358060D01*
X14837410Y-11802660D02*
X14862810Y-11828060D01*
X14862810Y-11802660D02*
X14837410Y-11828060D01*
X14857410Y-8632660D02*
X14882810Y-8658060D01*
X14882810Y-8632660D02*
X14857410Y-8658060D01*
X14857410Y-9112660D02*
X14882810Y-9138060D01*
X14882810Y-9112660D02*
X14857410Y-9138060D01*
X14877410Y-13652660D02*
X14902810Y-13678060D01*
X14902810Y-13652660D02*
X14877410Y-13678060D01*
X14877410Y-13952660D02*
X14902810Y-13978060D01*
X14902810Y-13952660D02*
X14877410Y-13978060D01*
X14899410Y-10520660D02*
X14924810Y-10546060D01*
X14924810Y-10520660D02*
X14899410Y-10546060D01*
X14939410Y-10004660D02*
X14964810Y-10030060D01*
X14964810Y-10004660D02*
X14939410Y-10030060D01*
X14977410Y-9302660D02*
X15002810Y-9328060D01*
X15002810Y-9302660D02*
X14977410Y-9328060D01*
X15041410Y-10526660D02*
X15066810Y-10552060D01*
X15066810Y-10526660D02*
X15041410Y-10552060D01*
X15057410Y-11802660D02*
X15082810Y-11828060D01*
X15082810Y-11802660D02*
X15057410Y-11828060D01*
X15067410Y-10692660D02*
X15092810Y-10718060D01*
X15092810Y-10692660D02*
X15067410Y-10718060D01*
X15117410Y-9462660D02*
X15142810Y-9488060D01*
X15142810Y-9462660D02*
X15117410Y-9488060D01*
X15127410Y-10922660D02*
X15152810Y-10948060D01*
X15152810Y-10922660D02*
X15127410Y-10948060D01*
X15127410Y-11232660D02*
X15152810Y-11258060D01*
X15152810Y-11232660D02*
X15127410Y-11258060D01*
X15147410Y-8492660D02*
X15172810Y-8518060D01*
X15172810Y-8492660D02*
X15147410Y-8518060D01*
X15147410Y-11392660D02*
X15172810Y-11418060D01*
X15172810Y-11392660D02*
X15147410Y-11418060D01*
X15147410Y-11652660D02*
X15172810Y-11678060D01*
X15172810Y-11652660D02*
X15147410Y-11678060D01*
X15151410Y-10216660D02*
X15176810Y-10242060D01*
X15176810Y-10216660D02*
X15151410Y-10242060D01*
X15157410Y-8192660D02*
X15182810Y-8218060D01*
X15182810Y-8192660D02*
X15157410Y-8218060D01*
X15177410Y-8702660D02*
X15202810Y-8728060D01*
X15202810Y-8702660D02*
X15177410Y-8728060D01*
X15177410Y-8912660D02*
X15202810Y-8938060D01*
X15202810Y-8912660D02*
X15177410Y-8938060D01*
X15177410Y-13652660D02*
X15202810Y-13678060D01*
X15202810Y-13652660D02*
X15177410Y-13678060D01*
X15177410Y-13952660D02*
X15202810Y-13978060D01*
X15202810Y-13952660D02*
X15177410Y-13978060D01*
X15217410Y-9112660D02*
X15242810Y-9138060D01*
X15242810Y-9112660D02*
X15217410Y-9138060D01*
X15227410Y-7202660D02*
X15252810Y-7228060D01*
X15252810Y-7202660D02*
X15227410Y-7228060D01*
X15237410Y-7002660D02*
X15262810Y-7028060D01*
X15262810Y-7002660D02*
X15237410Y-7028060D01*
X15237410Y-7392660D02*
X15262810Y-7418060D01*
X15262810Y-7392660D02*
X15237410Y-7418060D01*
X15237410Y-13212660D02*
X15262810Y-13238060D01*
X15262810Y-13212660D02*
X15237410Y-13238060D01*
X15253410Y-10738660D02*
X15278810Y-10764060D01*
X15278810Y-10738660D02*
X15253410Y-10764060D01*
X15257410Y-11952660D02*
X15282810Y-11978060D01*
X15282810Y-11952660D02*
X15257410Y-11978060D01*
X15257410Y-12252660D02*
X15282810Y-12278060D01*
X15282810Y-12252660D02*
X15257410Y-12278060D01*
X15287410Y-9562660D02*
X15312810Y-9588060D01*
X15312810Y-9562660D02*
X15287410Y-9588060D01*
X15337410Y-7492660D02*
X15362810Y-7518060D01*
X15362810Y-7492660D02*
X15337410Y-7518060D01*
X15347410Y-9252660D02*
X15372810Y-9278060D01*
X15372810Y-9252660D02*
X15347410Y-9278060D01*
X15363410Y-10428660D02*
X15388810Y-10454060D01*
X15388810Y-10428660D02*
X15363410Y-10454060D01*
X15387410Y-9732660D02*
X15412810Y-9758060D01*
X15412810Y-9732660D02*
X15387410Y-9758060D01*
X15417410Y-9862660D02*
X15442810Y-9888060D01*
X15442810Y-9862660D02*
X15417410Y-9888060D01*
X15417410Y-10002660D02*
X15442810Y-10028060D01*
X15442810Y-10002660D02*
X15417410Y-10028060D01*
X15417410Y-10152660D02*
X15442810Y-10178060D01*
X15442810Y-10152660D02*
X15417410Y-10178060D01*
X15417410Y-10302660D02*
X15442810Y-10328060D01*
X15442810Y-10302660D02*
X15417410Y-10328060D01*
X15437410Y-7012660D02*
X15462810Y-7038060D01*
X15462810Y-7012660D02*
X15437410Y-7038060D01*
X15437410Y-7392660D02*
X15462810Y-7418060D01*
X15462810Y-7392660D02*
X15437410Y-7418060D01*
X15465410Y-10950660D02*
X15490810Y-10976060D01*
X15490810Y-10950660D02*
X15465410Y-10976060D01*
X15467410Y-9572660D02*
X15492810Y-9598060D01*
X15492810Y-9572660D02*
X15467410Y-9598060D01*
X15477410Y-13652660D02*
X15502810Y-13678060D01*
X15502810Y-13652660D02*
X15477410Y-13678060D01*
X15477410Y-13952660D02*
X15502810Y-13978060D01*
X15502810Y-13952660D02*
X15477410Y-13978060D01*
X15487410Y-8492660D02*
X15512810Y-8518060D01*
X15512810Y-8492660D02*
X15487410Y-8518060D01*
X15487410Y-10512660D02*
X15512810Y-10538060D01*
X15512810Y-10512660D02*
X15487410Y-10538060D01*
X15497410Y-8192660D02*
X15522810Y-8218060D01*
X15522810Y-8192660D02*
X15497410Y-8218060D01*
X15557410Y-9312660D02*
X15582810Y-9338060D01*
X15582810Y-9312660D02*
X15557410Y-9338060D01*
X15557410Y-11952660D02*
X15582810Y-11978060D01*
X15582810Y-11952660D02*
X15557410Y-11978060D01*
X15557410Y-12252660D02*
X15582810Y-12278060D01*
X15582810Y-12252660D02*
X15557410Y-12278060D01*
X15567410Y-7372660D02*
X15592810Y-7398060D01*
X15592810Y-7372660D02*
X15567410Y-7398060D01*
X15575410Y-10640660D02*
X15600810Y-10666060D01*
X15600810Y-10640660D02*
X15575410Y-10666060D01*
X15597410Y-7042660D02*
X15622810Y-7068060D01*
X15622810Y-7042660D02*
X15597410Y-7068060D01*
X15667410Y-9572660D02*
X15692810Y-9598060D01*
X15692810Y-9572660D02*
X15667410Y-9598060D01*
X15677410Y-7482660D02*
X15702810Y-7508060D01*
X15702810Y-7482660D02*
X15677410Y-7508060D01*
X15687410Y-11272660D02*
X15712810Y-11298060D01*
X15712810Y-11272660D02*
X15687410Y-11298060D01*
X15707410Y-9782660D02*
X15732810Y-9808060D01*
X15732810Y-9782660D02*
X15707410Y-9808060D01*
X15707410Y-9912660D02*
X15732810Y-9938060D01*
X15732810Y-9912660D02*
X15707410Y-9938060D01*
X15707410Y-10142660D02*
X15732810Y-10168060D01*
X15732810Y-10142660D02*
X15707410Y-10168060D01*
X15707410Y-10312660D02*
X15732810Y-10338060D01*
X15732810Y-10312660D02*
X15707410Y-10338060D01*
X15707410Y-10712660D02*
X15732810Y-10738060D01*
X15732810Y-10712660D02*
X15707410Y-10738060D01*
X15737410Y-7102660D02*
X15762810Y-7128060D01*
X15762810Y-7102660D02*
X15737410Y-7128060D01*
X15737410Y-12712660D02*
X15762810Y-12738060D01*
X15762810Y-12712660D02*
X15737410Y-12738060D01*
X15767410Y-10062660D02*
X15792810Y-10088060D01*
X15792810Y-10062660D02*
X15767410Y-10088060D01*
X15777410Y-13652660D02*
X15802810Y-13678060D01*
X15802810Y-13652660D02*
X15777410Y-13678060D01*
X15777410Y-13952660D02*
X15802810Y-13978060D01*
X15802810Y-13952660D02*
X15777410Y-13978060D01*
X15787410Y-7592660D02*
X15812810Y-7618060D01*
X15812810Y-7592660D02*
X15787410Y-7618060D01*
X15787410Y-10852660D02*
X15812810Y-10878060D01*
X15812810Y-10852660D02*
X15787410Y-10878060D01*
X15827410Y-7732660D02*
X15852810Y-7758060D01*
X15852810Y-7732660D02*
X15827410Y-7758060D01*
X15827410Y-7932660D02*
X15852810Y-7958060D01*
X15852810Y-7932660D02*
X15827410Y-7958060D01*
X15827410Y-8192660D02*
X15852810Y-8218060D01*
X15852810Y-8192660D02*
X15827410Y-8218060D01*
X15827410Y-8492660D02*
X15852810Y-8518060D01*
X15852810Y-8492660D02*
X15827410Y-8518060D01*
X15827410Y-8642660D02*
X15852810Y-8668060D01*
X15852810Y-8642660D02*
X15827410Y-8668060D01*
X15827410Y-8842660D02*
X15852810Y-8868060D01*
X15852810Y-8842660D02*
X15827410Y-8868060D01*
X15827410Y-9052660D02*
X15852810Y-9078060D01*
X15852810Y-9052660D02*
X15827410Y-9078060D01*
X15827410Y-9292660D02*
X15852810Y-9318060D01*
X15852810Y-9292660D02*
X15827410Y-9318060D01*
X15837410Y-7222660D02*
X15862810Y-7248060D01*
X15862810Y-7222660D02*
X15837410Y-7248060D01*
X15837410Y-9742660D02*
X15862810Y-9768060D01*
X15862810Y-9742660D02*
X15837410Y-9768060D01*
X15857410Y-11952660D02*
X15882810Y-11978060D01*
X15882810Y-11952660D02*
X15857410Y-11978060D01*
X15857410Y-12252660D02*
X15882810Y-12278060D01*
X15882810Y-12252660D02*
X15857410Y-12278060D01*
X15867410Y-9572660D02*
X15892810Y-9598060D01*
X15892810Y-9572660D02*
X15867410Y-9598060D01*
X15877410Y-10472660D02*
X15902810Y-10498060D01*
X15902810Y-10472660D02*
X15877410Y-10498060D01*
X15877410Y-10752660D02*
X15902810Y-10778060D01*
X15902810Y-10752660D02*
X15877410Y-10778060D01*
X15977410Y-9982660D02*
X16002810Y-10008060D01*
X16002810Y-9982660D02*
X15977410Y-10008060D01*
X15987410Y-7372660D02*
X16012810Y-7398060D01*
X16012810Y-7372660D02*
X15987410Y-7398060D01*
X16007410Y-10872660D02*
X16032810Y-10898060D01*
X16032810Y-10872660D02*
X16007410Y-10898060D01*
X16007410Y-11072660D02*
X16032810Y-11098060D01*
X16032810Y-11072660D02*
X16007410Y-11098060D01*
X16007410Y-11372660D02*
X16032810Y-11398060D01*
X16032810Y-11372660D02*
X16007410Y-11398060D01*
X16007410Y-11552660D02*
X16032810Y-11578060D01*
X16032810Y-11552660D02*
X16007410Y-11578060D01*
X16007410Y-11752660D02*
X16032810Y-11778060D01*
X16032810Y-11752660D02*
X16007410Y-11778060D01*
X16007410Y-11952660D02*
X16032810Y-11978060D01*
X16032810Y-11952660D02*
X16007410Y-11978060D01*
X16007410Y-12342660D02*
X16032810Y-12368060D01*
X16032810Y-12342660D02*
X16007410Y-12368060D01*
X16007410Y-12542660D02*
X16032810Y-12568060D01*
X16032810Y-12542660D02*
X16007410Y-12568060D01*
X16007410Y-12742660D02*
X16032810Y-12768060D01*
X16032810Y-12742660D02*
X16007410Y-12768060D01*
X16008410Y-12251660D02*
X16033810Y-12277060D01*
X16033810Y-12251660D02*
X16008410Y-12277060D01*
X16027410Y-9802660D02*
X16052810Y-9828060D01*
X16052810Y-9802660D02*
X16027410Y-9828060D01*
X16037410Y-9512660D02*
X16062810Y-9538060D01*
X16062810Y-9512660D02*
X16037410Y-9538060D01*
X16037410Y-10132660D02*
X16062810Y-10158060D01*
X16062810Y-10132660D02*
X16037410Y-10158060D01*
X16037410Y-10282660D02*
X16062810Y-10308060D01*
X16062810Y-10282660D02*
X16037410Y-10308060D01*
X16058410Y-12971660D02*
X16083810Y-12997060D01*
X16083810Y-12971660D02*
X16058410Y-12997060D01*
X16077410Y-9622660D02*
X16102810Y-9648060D01*
X16102810Y-9622660D02*
X16077410Y-9648060D01*
X16077410Y-10502660D02*
X16102810Y-10528060D01*
X16102810Y-10502660D02*
X16077410Y-10528060D01*
X16077410Y-13652660D02*
X16102810Y-13678060D01*
X16102810Y-13652660D02*
X16077410Y-13678060D01*
X16077410Y-13952660D02*
X16102810Y-13978060D01*
X16102810Y-13952660D02*
X16077410Y-13978060D01*
X16097410Y-7522660D02*
X16122810Y-7548060D01*
X16122810Y-7522660D02*
X16097410Y-7548060D01*
X16127410Y-7732660D02*
X16152810Y-7758060D01*
X16152810Y-7732660D02*
X16127410Y-7758060D01*
X16127410Y-7932660D02*
X16152810Y-7958060D01*
X16152810Y-7932660D02*
X16127410Y-7958060D01*
X16127410Y-8192660D02*
X16152810Y-8218060D01*
X16152810Y-8192660D02*
X16127410Y-8218060D01*
X16127410Y-8492660D02*
X16152810Y-8518060D01*
X16152810Y-8492660D02*
X16127410Y-8518060D01*
X16127410Y-8782660D02*
X16152810Y-8808060D01*
X16152810Y-8782660D02*
X16127410Y-8808060D01*
X16127410Y-8982660D02*
X16152810Y-9008060D01*
X16152810Y-8982660D02*
X16127410Y-9008060D01*
X16127410Y-9162660D02*
X16152810Y-9188060D01*
X16152810Y-9162660D02*
X16127410Y-9188060D01*
X16127410Y-9342660D02*
X16152810Y-9368060D01*
X16152810Y-9342660D02*
X16127410Y-9368060D01*
X16167410Y-9476660D02*
X16192810Y-9502060D01*
X16192810Y-9476660D02*
X16167410Y-9502060D01*
X16207410Y-13122660D02*
X16232810Y-13148060D01*
X16232810Y-13122660D02*
X16207410Y-13148060D01*
X16277410Y-9361660D02*
X16302810Y-9387060D01*
X16302810Y-9361660D02*
X16277410Y-9387060D01*
X16287410Y-13392660D02*
X16312810Y-13418060D01*
X16312810Y-13392660D02*
X16287410Y-13418060D01*
X16297410Y-13252660D02*
X16322810Y-13278060D01*
X16322810Y-13252660D02*
X16297410Y-13278060D01*
X16307410Y-10872660D02*
X16332810Y-10898060D01*
X16332810Y-10872660D02*
X16307410Y-10898060D01*
X16307410Y-11072660D02*
X16332810Y-11098060D01*
X16332810Y-11072660D02*
X16307410Y-11098060D01*
X16307410Y-11372660D02*
X16332810Y-11398060D01*
X16332810Y-11372660D02*
X16307410Y-11398060D01*
X16307410Y-11552660D02*
X16332810Y-11578060D01*
X16332810Y-11552660D02*
X16307410Y-11578060D01*
X16307410Y-11752660D02*
X16332810Y-11778060D01*
X16332810Y-11752660D02*
X16307410Y-11778060D01*
X16307410Y-11952660D02*
X16332810Y-11978060D01*
X16332810Y-11952660D02*
X16307410Y-11978060D01*
X16308410Y-12251660D02*
X16333810Y-12277060D01*
X16333810Y-12251660D02*
X16308410Y-12277060D01*
X16308410Y-12341660D02*
X16333810Y-12367060D01*
X16333810Y-12341660D02*
X16308410Y-12367060D01*
X16308410Y-12541660D02*
X16333810Y-12567060D01*
X16333810Y-12541660D02*
X16308410Y-12567060D01*
X16308410Y-12741660D02*
X16333810Y-12767060D01*
X16333810Y-12741660D02*
X16308410Y-12767060D01*
X16327410Y-10092660D02*
X16352810Y-10118060D01*
X16352810Y-10092660D02*
X16327410Y-10118060D01*
X16327410Y-10242660D02*
X16352810Y-10268060D01*
X16352810Y-10242660D02*
X16327410Y-10268060D01*
X16337410Y-9902660D02*
X16362810Y-9928060D01*
X16362810Y-9902660D02*
X16337410Y-9928060D01*
X16337410Y-10502660D02*
X16362810Y-10528060D01*
X16362810Y-10502660D02*
X16337410Y-10528060D01*
X16357410Y-10372660D02*
X16382810Y-10398060D01*
X16382810Y-10372660D02*
X16357410Y-10398060D01*
X16357410Y-10592660D02*
X16382810Y-10618060D01*
X16382810Y-10592660D02*
X16357410Y-10618060D01*
X16359410Y-8684660D02*
X16384810Y-8710060D01*
X16384810Y-8684660D02*
X16359410Y-8710060D01*
X16377410Y-13652660D02*
X16402810Y-13678060D01*
X16402810Y-13652660D02*
X16377410Y-13678060D01*
X16377410Y-13952660D02*
X16402810Y-13978060D01*
X16402810Y-13952660D02*
X16377410Y-13978060D01*
X16387410Y-9736660D02*
X16412810Y-9762060D01*
X16412810Y-9736660D02*
X16387410Y-9762060D01*
X16402410Y-9236660D02*
X16427810Y-9262060D01*
X16427810Y-9236660D02*
X16402410Y-9262060D01*
X16407410Y-8192660D02*
X16432810Y-8218060D01*
X16432810Y-8192660D02*
X16407410Y-8218060D01*
X16407410Y-8492660D02*
X16432810Y-8518060D01*
X16432810Y-8492660D02*
X16407410Y-8518060D01*
X16427410Y-12892660D02*
X16452810Y-12918060D01*
X16452810Y-12892660D02*
X16427410Y-12918060D01*
X16427410Y-13402660D02*
X16452810Y-13428060D01*
X16452810Y-13402660D02*
X16427410Y-13428060D01*
X16477410Y-9576660D02*
X16502810Y-9602060D01*
X16502810Y-9576660D02*
X16477410Y-9602060D01*
X16527410Y-9111660D02*
X16552810Y-9137060D01*
X16552810Y-9111660D02*
X16527410Y-9137060D01*
X16538410Y-12261660D02*
X16563810Y-12287060D01*
X16563810Y-12261660D02*
X16538410Y-12287060D01*
X16557410Y-12982660D02*
X16582810Y-13008060D01*
X16582810Y-12982660D02*
X16557410Y-13008060D01*
X16567410Y-13272660D02*
X16592810Y-13298060D01*
X16592810Y-13272660D02*
X16567410Y-13298060D01*
X16569410Y-11960660D02*
X16594810Y-11986060D01*
X16594810Y-11960660D02*
X16569410Y-11986060D01*
X16607410Y-11072660D02*
X16632810Y-11098060D01*
X16632810Y-11072660D02*
X16607410Y-11098060D01*
X16607410Y-11372660D02*
X16632810Y-11398060D01*
X16632810Y-11372660D02*
X16607410Y-11398060D01*
X16627410Y-9426660D02*
X16652810Y-9452060D01*
X16652810Y-9426660D02*
X16627410Y-9452060D01*
X16647410Y-8991660D02*
X16672810Y-9017060D01*
X16672810Y-8991660D02*
X16647410Y-9017060D01*
X16649410Y-8094660D02*
X16674810Y-8120060D01*
X16674810Y-8094660D02*
X16649410Y-8120060D01*
X16677410Y-8462660D02*
X16702810Y-8488060D01*
X16702810Y-8462660D02*
X16677410Y-8488060D01*
X16677410Y-13652660D02*
X16702810Y-13678060D01*
X16702810Y-13652660D02*
X16677410Y-13678060D01*
X16677410Y-13952660D02*
X16702810Y-13978060D01*
X16702810Y-13952660D02*
X16677410Y-13978060D01*
X16678410Y-12381660D02*
X16703810Y-12407060D01*
X16703810Y-12381660D02*
X16678410Y-12407060D01*
X16687410Y-13142660D02*
X16712810Y-13168060D01*
X16712810Y-13142660D02*
X16687410Y-13168060D01*
X16697410Y-12992660D02*
X16722810Y-13018060D01*
X16722810Y-12992660D02*
X16697410Y-13018060D01*
X16737410Y-7212660D02*
X16762810Y-7238060D01*
X16762810Y-7212660D02*
X16737410Y-7238060D01*
X16737410Y-9712660D02*
X16762810Y-9738060D01*
X16762810Y-9712660D02*
X16737410Y-9738060D01*
X16737410Y-10712660D02*
X16762810Y-10738060D01*
X16762810Y-10712660D02*
X16737410Y-10738060D01*
X16767410Y-8871660D02*
X16792810Y-8897060D01*
X16792810Y-8871660D02*
X16767410Y-8897060D01*
X16769410Y-12050660D02*
X16794810Y-12076060D01*
X16794810Y-12050660D02*
X16769410Y-12076060D01*
X16777410Y-9276660D02*
X16802810Y-9302060D01*
X16802810Y-9276660D02*
X16777410Y-9302060D01*
X16807410Y-7932660D02*
X16832810Y-7958060D01*
X16832810Y-7932660D02*
X16807410Y-7958060D01*
X16807410Y-12512660D02*
X16832810Y-12538060D01*
X16832810Y-12512660D02*
X16807410Y-12538060D01*
X16839410Y-8314660D02*
X16864810Y-8340060D01*
X16864810Y-8314660D02*
X16839410Y-8340060D01*
X16887410Y-12792660D02*
X16912810Y-12818060D01*
X16912810Y-12792660D02*
X16887410Y-12818060D01*
X16897410Y-7652660D02*
X16922810Y-7678060D01*
X16922810Y-7652660D02*
X16897410Y-7678060D01*
X16897410Y-7792660D02*
X16922810Y-7818060D01*
X16922810Y-7792660D02*
X16897410Y-7818060D01*
X16897410Y-8741660D02*
X16922810Y-8767060D01*
X16922810Y-8741660D02*
X16897410Y-8767060D01*
X16897410Y-12652660D02*
X16922810Y-12678060D01*
X16922810Y-12652660D02*
X16897410Y-12678060D01*
X16907410Y-11072660D02*
X16932810Y-11098060D01*
X16932810Y-11072660D02*
X16907410Y-11098060D01*
X16907410Y-11372660D02*
X16932810Y-11398060D01*
X16932810Y-11372660D02*
X16907410Y-11398060D01*
X16927410Y-9126660D02*
X16952810Y-9152060D01*
X16952810Y-9126660D02*
X16927410Y-9152060D01*
X16929410Y-12210660D02*
X16954810Y-12236060D01*
X16954810Y-12210660D02*
X16929410Y-12236060D01*
X16987410Y-13632660D02*
X17012810Y-13658060D01*
X17012810Y-13632660D02*
X16987410Y-13658060D01*
X16997410Y-13932660D02*
X17022810Y-13958060D01*
X17022810Y-13932660D02*
X16997410Y-13958060D01*
X17017410Y-8142660D02*
X17042810Y-8168060D01*
X17042810Y-8142660D02*
X17017410Y-8168060D01*
X17017410Y-12302660D02*
X17042810Y-12328060D01*
X17042810Y-12302660D02*
X17017410Y-12328060D01*
X17037410Y-7642660D02*
X17062810Y-7668060D01*
X17062810Y-7642660D02*
X17037410Y-7668060D01*
X17037410Y-8601660D02*
X17062810Y-8627060D01*
X17062810Y-8601660D02*
X17037410Y-8627060D01*
X17037410Y-12802660D02*
X17062810Y-12828060D01*
X17062810Y-12802660D02*
X17037410Y-12828060D01*
X17047410Y-13292660D02*
X17072810Y-13318060D01*
X17072810Y-13292660D02*
X17047410Y-13318060D01*
X17067410Y-8986660D02*
X17092810Y-9012060D01*
X17092810Y-8986660D02*
X17067410Y-9012060D01*
X17157410Y-8052660D02*
X17182810Y-8078060D01*
X17182810Y-8052660D02*
X17157410Y-8078060D01*
X17157410Y-12392660D02*
X17182810Y-12418060D01*
X17182810Y-12392660D02*
X17157410Y-12418060D01*
X17167410Y-7772660D02*
X17192810Y-7798060D01*
X17192810Y-7772660D02*
X17167410Y-7798060D01*
X17167410Y-12672660D02*
X17192810Y-12698060D01*
X17192810Y-12672660D02*
X17167410Y-12698060D01*
X17197410Y-8856660D02*
X17222810Y-8882060D01*
X17222810Y-8856660D02*
X17197410Y-8882060D01*
X17207410Y-11072660D02*
X17232810Y-11098060D01*
X17232810Y-11072660D02*
X17207410Y-11098060D01*
X17207410Y-11372660D02*
X17232810Y-11398060D01*
X17232810Y-11372660D02*
X17207410Y-11398060D01*
X17217410Y-8506660D02*
X17242810Y-8532060D01*
X17242810Y-8506660D02*
X17217410Y-8532060D01*
X17287410Y-8312660D02*
X17312810Y-8338060D01*
X17312810Y-8312660D02*
X17287410Y-8338060D01*
X17297410Y-7912660D02*
X17322810Y-7938060D01*
X17322810Y-7912660D02*
X17297410Y-7938060D01*
X17297410Y-8052660D02*
X17322810Y-8078060D01*
X17322810Y-8052660D02*
X17297410Y-8078060D01*
X17297410Y-12392660D02*
X17322810Y-12418060D01*
X17322810Y-12392660D02*
X17297410Y-12418060D01*
X17297410Y-12532660D02*
X17322810Y-12558060D01*
X17322810Y-12532660D02*
X17297410Y-12558060D01*
X17297410Y-13552660D02*
X17322810Y-13578060D01*
X17322810Y-13552660D02*
X17297410Y-13578060D01*
X17297410Y-13872660D02*
X17322810Y-13898060D01*
X17322810Y-13872660D02*
X17297410Y-13898060D01*
X17347410Y-8786660D02*
X17372810Y-8812060D01*
X17372810Y-8786660D02*
X17347410Y-8812060D01*
X17407410Y-8492660D02*
X17432810Y-8518060D01*
X17432810Y-8492660D02*
X17407410Y-8518060D01*
X17437410Y-8182660D02*
X17462810Y-8208060D01*
X17462810Y-8182660D02*
X17437410Y-8208060D01*
X17447410Y-9592660D02*
X17472810Y-9618060D01*
X17472810Y-9592660D02*
X17447410Y-9618060D01*
X17497410Y-8252660D02*
X17522810Y-8278060D01*
X17522810Y-8252660D02*
X17497410Y-8278060D01*
X17497410Y-8392660D02*
X17522810Y-8418060D01*
X17522810Y-8392660D02*
X17497410Y-8418060D01*
X17507410Y-11072660D02*
X17532810Y-11098060D01*
X17532810Y-11072660D02*
X17507410Y-11098060D01*
X17507410Y-11372660D02*
X17532810Y-11398060D01*
X17532810Y-11372660D02*
X17507410Y-11398060D01*
X17557410Y-13442660D02*
X17582810Y-13468060D01*
X17582810Y-13442660D02*
X17557410Y-13468060D01*
X17557410Y-13772660D02*
X17582810Y-13798060D01*
X17582810Y-13772660D02*
X17557410Y-13798060D01*
X17567410Y-8782660D02*
X17592810Y-8808060D01*
X17592810Y-8782660D02*
X17567410Y-8808060D01*
X17627410Y-8242660D02*
X17652810Y-8268060D01*
X17652810Y-8242660D02*
X17627410Y-8268060D01*
X17637410Y-9132660D02*
X17662810Y-9158060D01*
X17662810Y-9132660D02*
X17637410Y-9158060D01*
X17697410Y-12382660D02*
X17722810Y-12408060D01*
X17722810Y-12382660D02*
X17697410Y-12408060D01*
X17717410Y-11072660D02*
X17742810Y-11098060D01*
X17742810Y-11072660D02*
X17717410Y-11098060D01*
X17737410Y-7712660D02*
X17762810Y-7738060D01*
X17762810Y-7712660D02*
X17737410Y-7738060D01*
X17737410Y-10712660D02*
X17762810Y-10738060D01*
X17762810Y-10712660D02*
X17737410Y-10738060D01*
X17737410Y-11712660D02*
X17762810Y-11738060D01*
X17762810Y-11712660D02*
X17737410Y-11738060D01*
X17767410Y-8662660D02*
X17792810Y-8688060D01*
X17792810Y-8662660D02*
X17767410Y-8688060D01*
X17777410Y-8372660D02*
X17802810Y-8398060D01*
X17802810Y-8372660D02*
X17777410Y-8398060D01*
X17807410Y-11372660D02*
X17832810Y-11398060D01*
X17832810Y-11372660D02*
X17807410Y-11398060D01*
X17847410Y-13242660D02*
X17872810Y-13268060D01*
X17872810Y-13242660D02*
X17847410Y-13268060D01*
X17847410Y-13612660D02*
X17872810Y-13638060D01*
X17872810Y-13612660D02*
X17847410Y-13638060D01*
X17887410Y-8052660D02*
X17912810Y-8078060D01*
X17912810Y-8052660D02*
X17887410Y-8078060D01*
X17887410Y-8292660D02*
X17912810Y-8318060D01*
X17912810Y-8292660D02*
X17887410Y-8318060D01*
X17887410Y-8502660D02*
X17912810Y-8528060D01*
X17912810Y-8502660D02*
X17887410Y-8528060D01*
X17897410Y-7812660D02*
X17922810Y-7838060D01*
X17922810Y-7812660D02*
X17897410Y-7838060D01*
X17907410Y-10462660D02*
X17932810Y-10488060D01*
X17932810Y-10462660D02*
X17907410Y-10488060D01*
X17917410Y-9762660D02*
X17942810Y-9788060D01*
X17942810Y-9762660D02*
X17917410Y-9788060D01*
X17917410Y-9992660D02*
X17942810Y-10018060D01*
X17942810Y-9992660D02*
X17917410Y-10018060D01*
X17927410Y-10842660D02*
X17952810Y-10868060D01*
X17952810Y-10842660D02*
X17927410Y-10868060D01*
X17937410Y-8702660D02*
X17962810Y-8728060D01*
X17962810Y-8702660D02*
X17937410Y-8728060D01*
X18001410Y-10222660D02*
X18026810Y-10248060D01*
X18026810Y-10222660D02*
X18001410Y-10248060D01*
X18027410Y-7582660D02*
X18052810Y-7608060D01*
X18052810Y-7582660D02*
X18027410Y-7608060D01*
X18047410Y-13032660D02*
X18072810Y-13058060D01*
X18072810Y-13032660D02*
X18047410Y-13058060D01*
X18082410Y-9497660D02*
X18107810Y-9523060D01*
X18107810Y-9497660D02*
X18082410Y-9523060D01*
X18107410Y-11232660D02*
X18132810Y-11258060D01*
X18132810Y-11232660D02*
X18107410Y-11258060D01*
X18107410Y-13402660D02*
X18132810Y-13428060D01*
X18132810Y-13402660D02*
X18107410Y-13428060D01*
X18117410Y-8902660D02*
X18142810Y-8928060D01*
X18142810Y-8902660D02*
X18117410Y-8928060D01*
X18187410Y-8122660D02*
X18212810Y-8148060D01*
X18212810Y-8122660D02*
X18187410Y-8148060D01*
X18187410Y-8422660D02*
X18212810Y-8448060D01*
X18212810Y-8422660D02*
X18187410Y-8448060D01*
X18207410Y-12802660D02*
X18232810Y-12828060D01*
X18232810Y-12802660D02*
X18207410Y-12828060D01*
X18227410Y-10872660D02*
X18252810Y-10898060D01*
X18252810Y-10872660D02*
X18227410Y-10898060D01*
X18237410Y-7212660D02*
X18262810Y-7238060D01*
X18262810Y-7212660D02*
X18237410Y-7238060D01*
X18237410Y-7472660D02*
X18262810Y-7498060D01*
X18262810Y-7472660D02*
X18237410Y-7498060D01*
X18237410Y-7812660D02*
X18262810Y-7838060D01*
X18262810Y-7812660D02*
X18237410Y-7838060D01*
X18237410Y-9212660D02*
X18262810Y-9238060D01*
X18262810Y-9212660D02*
X18237410Y-9238060D01*
X18237410Y-12212660D02*
X18262810Y-12238060D01*
X18262810Y-12212660D02*
X18237410Y-12238060D01*
X18247410Y-9752660D02*
X18272810Y-9778060D01*
X18272810Y-9752660D02*
X18247410Y-9778060D01*
X18247410Y-10672660D02*
X18272810Y-10698060D01*
X18272810Y-10672660D02*
X18247410Y-10698060D01*
X18253410Y-10222660D02*
X18278810Y-10248060D01*
X18278810Y-10222660D02*
X18253410Y-10248060D01*
X18317410Y-8682660D02*
X18342810Y-8708060D01*
X18342810Y-8682660D02*
X18317410Y-8708060D01*
X18317410Y-9102660D02*
X18342810Y-9128060D01*
X18342810Y-9102660D02*
X18317410Y-9128060D01*
X18317410Y-13182660D02*
X18342810Y-13208060D01*
X18342810Y-13182660D02*
X18317410Y-13208060D01*
X18337410Y-9752660D02*
X18362810Y-9778060D01*
X18362810Y-9752660D02*
X18337410Y-9778060D01*
X18337410Y-10672660D02*
X18362810Y-10698060D01*
X18362810Y-10672660D02*
X18337410Y-10698060D01*
X18337410Y-12542660D02*
X18362810Y-12568060D01*
X18362810Y-12542660D02*
X18337410Y-12568060D01*
X18417410Y-12262660D02*
X18442810Y-12288060D01*
X18442810Y-12262660D02*
X18417410Y-12288060D01*
X18427410Y-9752660D02*
X18452810Y-9778060D01*
X18452810Y-9752660D02*
X18427410Y-9778060D01*
X18427410Y-10672660D02*
X18452810Y-10698060D01*
X18452810Y-10672660D02*
X18427410Y-10698060D01*
X18437410Y-7422660D02*
X18462810Y-7448060D01*
X18462810Y-7422660D02*
X18437410Y-7448060D01*
X18437410Y-7802660D02*
X18462810Y-7828060D01*
X18462810Y-7802660D02*
X18437410Y-7828060D01*
X18437410Y-9342660D02*
X18462810Y-9368060D01*
X18462810Y-9342660D02*
X18437410Y-9368060D01*
X18437410Y-9552660D02*
X18462810Y-9578060D01*
X18462810Y-9552660D02*
X18437410Y-9578060D01*
X18437410Y-10872660D02*
X18462810Y-10898060D01*
X18462810Y-10872660D02*
X18437410Y-10898060D01*
X18437410Y-11172660D02*
X18462810Y-11198060D01*
X18462810Y-11172660D02*
X18437410Y-11198060D01*
X18437410Y-11472660D02*
X18462810Y-11498060D01*
X18462810Y-11472660D02*
X18437410Y-11498060D01*
X18437410Y-11772660D02*
X18462810Y-11798060D01*
X18462810Y-11772660D02*
X18437410Y-11798060D01*
X18437410Y-12052660D02*
X18462810Y-12078060D01*
X18462810Y-12052660D02*
X18437410Y-12078060D01*
X18465410Y-10222660D02*
X18490810Y-10248060D01*
X18490810Y-10222660D02*
X18465410Y-10248060D01*
X18507410Y-12882660D02*
X18532810Y-12908060D01*
X18532810Y-12882660D02*
X18507410Y-12908060D01*
X18527410Y-8892660D02*
X18552810Y-8918060D01*
X18552810Y-8892660D02*
X18527410Y-8918060D01*
X18537410Y-7322660D02*
X18562810Y-7348060D01*
X18562810Y-7322660D02*
X18537410Y-7348060D01*
X18537410Y-7902660D02*
X18562810Y-7928060D01*
X18562810Y-7902660D02*
X18537410Y-7928060D01*
X18617410Y-12642660D02*
X18642810Y-12668060D01*
X18642810Y-12642660D02*
X18617410Y-12668060D01*
X18637410Y-7432660D02*
X18662810Y-7458060D01*
X18662810Y-7432660D02*
X18637410Y-7458060D01*
X18637410Y-7782660D02*
X18662810Y-7808060D01*
X18662810Y-7782660D02*
X18637410Y-7808060D01*
X18647410Y-7612660D02*
X18672810Y-7638060D01*
X18672810Y-7612660D02*
X18647410Y-7638060D01*
X18677410Y-10222660D02*
X18702810Y-10248060D01*
X18702810Y-10222660D02*
X18677410Y-10248060D01*
X18697410Y-12342660D02*
X18722810Y-12368060D01*
X18722810Y-12342660D02*
X18697410Y-12368060D01*
X18707410Y-9112660D02*
X18732810Y-9138060D01*
X18732810Y-9112660D02*
X18707410Y-9138060D01*
X18737410Y-7022660D02*
X18762810Y-7048060D01*
X18762810Y-7022660D02*
X18737410Y-7048060D01*
X18737410Y-7712660D02*
X18762810Y-7738060D01*
X18762810Y-7712660D02*
X18737410Y-7738060D01*
X18737410Y-8712660D02*
X18762810Y-8738060D01*
X18762810Y-8712660D02*
X18737410Y-8738060D01*
X18737410Y-12072660D02*
X18762810Y-12098060D01*
X18762810Y-12072660D02*
X18737410Y-12098060D01*
X18737410Y-13952660D02*
X18762810Y-13978060D01*
X18762810Y-13952660D02*
X18737410Y-13978060D01*
X18747410Y-9342660D02*
X18772810Y-9368060D01*
X18772810Y-9342660D02*
X18747410Y-9368060D01*
X18747410Y-9642660D02*
X18772810Y-9668060D01*
X18772810Y-9642660D02*
X18747410Y-9668060D01*
X18747410Y-10872660D02*
X18772810Y-10898060D01*
X18772810Y-10872660D02*
X18747410Y-10898060D01*
X18747410Y-11172660D02*
X18772810Y-11198060D01*
X18772810Y-11172660D02*
X18747410Y-11198060D01*
X18747410Y-11472660D02*
X18772810Y-11498060D01*
X18772810Y-11472660D02*
X18747410Y-11498060D01*
X18747410Y-11772660D02*
X18772810Y-11798060D01*
X18772810Y-11772660D02*
X18747410Y-11798060D01*
X18767410Y-9992660D02*
X18792810Y-10018060D01*
X18792810Y-9992660D02*
X18767410Y-10018060D01*
X18767410Y-10532660D02*
X18792810Y-10558060D01*
X18792810Y-10532660D02*
X18767410Y-10558060D01*
D13*
X11979110Y-11815360D02*
G75*
G03*
X11979110Y-11815360I-19000J0D01*
G01*
X13179110Y-7455360D02*
G75*
G03*
X13179110Y-7455360I-19000J0D01*
G01*
X15639110Y-7215360D02*
G75*
G03*
X15639110Y-7215360I-19000J0D01*
G01*
X16339110Y-13015360D02*
G75*
G03*
X16339110Y-13015360I-19000J0D01*
G01*
X17539110Y-8655360D02*
G75*
G03*
X17539110Y-8655360I-19000J0D01*
G01*
D11*
X11107679Y-14385886D02*
X11107679Y-14185886D01*
X11155298Y-14185886D01*
X11183870Y-14195410D01*
X11202917Y-14214458D01*
X11212441Y-14233505D01*
X11221965Y-14271600D01*
X11221965Y-14300172D01*
X11212441Y-14338267D01*
X11202917Y-14357315D01*
X11183870Y-14376362D01*
X11155298Y-14385886D01*
X11107679Y-14385886D01*
X11307679Y-14385886D02*
X11307679Y-14252553D01*
X11307679Y-14290648D02*
X11317203Y-14271600D01*
X11326727Y-14262077D01*
X11345774Y-14252553D01*
X11364822Y-14252553D01*
X11431488Y-14385886D02*
X11431488Y-14252553D01*
X11431488Y-14185886D02*
X11421965Y-14195410D01*
X11431488Y-14204934D01*
X11441012Y-14195410D01*
X11431488Y-14185886D01*
X11431488Y-14204934D01*
X11555298Y-14385886D02*
X11536250Y-14376362D01*
X11526727Y-14357315D01*
X11526727Y-14185886D01*
X11660060Y-14385886D02*
X11641012Y-14376362D01*
X11631488Y-14357315D01*
X11631488Y-14185886D01*
X11888631Y-14385886D02*
X11888631Y-14185886D01*
X11955298Y-14328743D01*
X12021965Y-14185886D01*
X12021965Y-14385886D01*
X12202917Y-14385886D02*
X12202917Y-14281124D01*
X12193393Y-14262077D01*
X12174346Y-14252553D01*
X12136250Y-14252553D01*
X12117203Y-14262077D01*
X12202917Y-14376362D02*
X12183869Y-14385886D01*
X12136250Y-14385886D01*
X12117203Y-14376362D01*
X12107679Y-14357315D01*
X12107679Y-14338267D01*
X12117203Y-14319219D01*
X12136250Y-14309696D01*
X12183869Y-14309696D01*
X12202917Y-14300172D01*
X12298155Y-14252553D02*
X12298155Y-14452553D01*
X12298155Y-14262077D02*
X12317203Y-14252553D01*
X12355298Y-14252553D01*
X12374346Y-14262077D01*
X12383869Y-14271600D01*
X12393393Y-14290648D01*
X12393393Y-14347791D01*
X12383869Y-14366838D01*
X12374346Y-14376362D01*
X12355298Y-14385886D01*
X12317203Y-14385886D01*
X12298155Y-14376362D01*
X12479108Y-14366838D02*
X12488631Y-14376362D01*
X12479108Y-14385886D01*
X12469584Y-14376362D01*
X12479108Y-14366838D01*
X12479108Y-14385886D01*
X12479108Y-14262077D02*
X12488631Y-14271600D01*
X12479108Y-14281124D01*
X12469584Y-14271600D01*
X12479108Y-14262077D01*
X12479108Y-14281124D01*
D12*
X10824660Y-14702710D02*
X10850060Y-14728110D01*
X10850060Y-14702710D02*
X10824660Y-14728110D01*
D11*
X11145774Y-14605886D02*
X11164822Y-14605886D01*
X11183870Y-14615410D01*
X11193393Y-14624934D01*
X11202917Y-14643981D01*
X11212441Y-14682077D01*
X11212441Y-14729696D01*
X11202917Y-14767791D01*
X11193393Y-14786838D01*
X11183870Y-14796362D01*
X11164822Y-14805886D01*
X11145774Y-14805886D01*
X11126727Y-14796362D01*
X11117203Y-14786838D01*
X11107679Y-14767791D01*
X11098155Y-14729696D01*
X11098155Y-14682077D01*
X11107679Y-14643981D01*
X11117203Y-14624934D01*
X11126727Y-14615410D01*
X11145774Y-14605886D01*
X11298155Y-14786838D02*
X11307679Y-14796362D01*
X11298155Y-14805886D01*
X11288631Y-14796362D01*
X11298155Y-14786838D01*
X11298155Y-14805886D01*
X11383869Y-14624934D02*
X11393393Y-14615410D01*
X11412441Y-14605886D01*
X11460060Y-14605886D01*
X11479108Y-14615410D01*
X11488631Y-14624934D01*
X11498155Y-14643981D01*
X11498155Y-14663029D01*
X11488631Y-14691600D01*
X11374346Y-14805886D01*
X11498155Y-14805886D01*
X11679108Y-14605886D02*
X11583869Y-14605886D01*
X11574346Y-14701124D01*
X11583869Y-14691600D01*
X11602917Y-14682077D01*
X11650536Y-14682077D01*
X11669584Y-14691600D01*
X11679108Y-14701124D01*
X11688631Y-14720172D01*
X11688631Y-14767791D01*
X11679108Y-14786838D01*
X11669584Y-14796362D01*
X11650536Y-14805886D01*
X11602917Y-14805886D01*
X11583869Y-14796362D01*
X11574346Y-14786838D01*
X11860060Y-14672553D02*
X11860060Y-14805886D01*
X11812441Y-14596362D02*
X11764822Y-14739219D01*
X11888631Y-14739219D01*
X11964822Y-14805886D02*
X11964822Y-14672553D01*
X11964822Y-14691600D02*
X11974346Y-14682077D01*
X11993393Y-14672553D01*
X12021965Y-14672553D01*
X12041012Y-14682077D01*
X12050536Y-14701124D01*
X12050536Y-14805886D01*
X12050536Y-14701124D02*
X12060060Y-14682077D01*
X12079108Y-14672553D01*
X12107679Y-14672553D01*
X12126727Y-14682077D01*
X12136250Y-14701124D01*
X12136250Y-14805886D01*
X12231488Y-14805886D02*
X12231488Y-14672553D01*
X12231488Y-14691600D02*
X12241012Y-14682077D01*
X12260060Y-14672553D01*
X12288631Y-14672553D01*
X12307679Y-14682077D01*
X12317203Y-14701124D01*
X12317203Y-14805886D01*
X12317203Y-14701124D02*
X12326727Y-14682077D01*
X12345774Y-14672553D01*
X12374346Y-14672553D01*
X12393393Y-14682077D01*
X12402917Y-14701124D01*
X12402917Y-14805886D01*
X12793393Y-14596362D02*
X12621965Y-14853505D01*
X13050536Y-14605886D02*
X13069584Y-14605886D01*
X13088631Y-14615410D01*
X13098155Y-14624934D01*
X13107679Y-14643981D01*
X13117203Y-14682077D01*
X13117203Y-14729696D01*
X13107679Y-14767791D01*
X13098155Y-14786838D01*
X13088631Y-14796362D01*
X13069584Y-14805886D01*
X13050536Y-14805886D01*
X13031488Y-14796362D01*
X13021965Y-14786838D01*
X13012441Y-14767791D01*
X13002917Y-14729696D01*
X13002917Y-14682077D01*
X13012441Y-14643981D01*
X13021965Y-14624934D01*
X13031488Y-14615410D01*
X13050536Y-14605886D01*
X13202917Y-14786838D02*
X13212441Y-14796362D01*
X13202917Y-14805886D01*
X13193393Y-14796362D01*
X13202917Y-14786838D01*
X13202917Y-14805886D01*
X13336250Y-14605886D02*
X13355298Y-14605886D01*
X13374346Y-14615410D01*
X13383869Y-14624934D01*
X13393393Y-14643981D01*
X13402917Y-14682077D01*
X13402917Y-14729696D01*
X13393393Y-14767791D01*
X13383869Y-14786838D01*
X13374346Y-14796362D01*
X13355298Y-14805886D01*
X13336250Y-14805886D01*
X13317203Y-14796362D01*
X13307679Y-14786838D01*
X13298155Y-14767791D01*
X13288631Y-14729696D01*
X13288631Y-14682077D01*
X13298155Y-14643981D01*
X13307679Y-14624934D01*
X13317203Y-14615410D01*
X13336250Y-14605886D01*
X13593393Y-14805886D02*
X13479108Y-14805886D01*
X13536250Y-14805886D02*
X13536250Y-14605886D01*
X13517203Y-14634458D01*
X13498155Y-14653505D01*
X13479108Y-14663029D01*
X13717203Y-14605886D02*
X13736250Y-14605886D01*
X13755298Y-14615410D01*
X13764822Y-14624934D01*
X13774346Y-14643981D01*
X13783869Y-14682077D01*
X13783869Y-14729696D01*
X13774346Y-14767791D01*
X13764822Y-14786838D01*
X13755298Y-14796362D01*
X13736250Y-14805886D01*
X13717203Y-14805886D01*
X13698155Y-14796362D01*
X13688631Y-14786838D01*
X13679108Y-14767791D01*
X13669584Y-14729696D01*
X13669584Y-14682077D01*
X13679108Y-14643981D01*
X13688631Y-14624934D01*
X13698155Y-14615410D01*
X13717203Y-14605886D01*
X13907679Y-14605886D02*
X13926727Y-14605886D01*
X13945774Y-14615410D01*
X13955298Y-14624934D01*
X13964822Y-14643981D01*
X13974346Y-14682077D01*
X13974346Y-14729696D01*
X13964822Y-14767791D01*
X13955298Y-14786838D01*
X13945774Y-14796362D01*
X13926727Y-14805886D01*
X13907679Y-14805886D01*
X13888631Y-14796362D01*
X13879108Y-14786838D01*
X13869584Y-14767791D01*
X13860060Y-14729696D01*
X13860060Y-14682077D01*
X13869584Y-14643981D01*
X13879108Y-14624934D01*
X13888631Y-14615410D01*
X13907679Y-14605886D01*
X14050536Y-14605886D02*
X14050536Y-14643981D01*
X14126727Y-14605886D02*
X14126727Y-14643981D01*
X14421965Y-14882077D02*
X14412441Y-14872553D01*
X14393393Y-14843981D01*
X14383869Y-14824934D01*
X14374346Y-14796362D01*
X14364822Y-14748743D01*
X14364822Y-14710648D01*
X14374346Y-14663029D01*
X14383869Y-14634458D01*
X14393393Y-14615410D01*
X14412441Y-14586838D01*
X14421965Y-14577315D01*
X14593393Y-14605886D02*
X14498155Y-14605886D01*
X14488631Y-14701124D01*
X14498155Y-14691600D01*
X14517203Y-14682077D01*
X14564822Y-14682077D01*
X14583869Y-14691600D01*
X14593393Y-14701124D01*
X14602917Y-14720172D01*
X14602917Y-14767791D01*
X14593393Y-14786838D01*
X14583869Y-14796362D01*
X14564822Y-14805886D01*
X14517203Y-14805886D01*
X14498155Y-14796362D01*
X14488631Y-14786838D01*
X14669584Y-14605886D02*
X14793393Y-14605886D01*
X14726727Y-14682077D01*
X14755298Y-14682077D01*
X14774346Y-14691600D01*
X14783869Y-14701124D01*
X14793393Y-14720172D01*
X14793393Y-14767791D01*
X14783869Y-14786838D01*
X14774346Y-14796362D01*
X14755298Y-14805886D01*
X14698155Y-14805886D01*
X14679108Y-14796362D01*
X14669584Y-14786838D01*
X14983869Y-14805886D02*
X14869584Y-14805886D01*
X14926727Y-14805886D02*
X14926727Y-14605886D01*
X14907679Y-14634458D01*
X14888631Y-14653505D01*
X14869584Y-14663029D01*
X15221965Y-14805886D02*
X15221965Y-14605886D01*
X15307679Y-14805886D02*
X15307679Y-14701124D01*
X15298155Y-14682077D01*
X15279108Y-14672553D01*
X15250536Y-14672553D01*
X15231488Y-14682077D01*
X15221965Y-14691600D01*
X15431488Y-14805886D02*
X15412441Y-14796362D01*
X15402917Y-14786838D01*
X15393393Y-14767791D01*
X15393393Y-14710648D01*
X15402917Y-14691600D01*
X15412441Y-14682077D01*
X15431488Y-14672553D01*
X15460060Y-14672553D01*
X15479108Y-14682077D01*
X15488631Y-14691600D01*
X15498155Y-14710648D01*
X15498155Y-14767791D01*
X15488631Y-14786838D01*
X15479108Y-14796362D01*
X15460060Y-14805886D01*
X15431488Y-14805886D01*
X15612441Y-14805886D02*
X15593393Y-14796362D01*
X15583869Y-14777315D01*
X15583869Y-14605886D01*
X15764822Y-14796362D02*
X15745774Y-14805886D01*
X15707679Y-14805886D01*
X15688631Y-14796362D01*
X15679108Y-14777315D01*
X15679108Y-14701124D01*
X15688631Y-14682077D01*
X15707679Y-14672553D01*
X15745774Y-14672553D01*
X15764822Y-14682077D01*
X15774346Y-14701124D01*
X15774346Y-14720172D01*
X15679108Y-14739219D01*
X15850536Y-14796362D02*
X15869584Y-14805886D01*
X15907679Y-14805886D01*
X15926727Y-14796362D01*
X15936250Y-14777315D01*
X15936250Y-14767791D01*
X15926727Y-14748743D01*
X15907679Y-14739219D01*
X15879108Y-14739219D01*
X15860060Y-14729696D01*
X15850536Y-14710648D01*
X15850536Y-14701124D01*
X15860060Y-14682077D01*
X15879108Y-14672553D01*
X15907679Y-14672553D01*
X15926727Y-14682077D01*
X16002917Y-14882077D02*
X16012441Y-14872553D01*
X16031488Y-14843981D01*
X16041012Y-14824934D01*
X16050536Y-14796362D01*
X16060060Y-14748743D01*
X16060060Y-14710648D01*
X16050536Y-14663029D01*
X16041012Y-14634458D01*
X16031488Y-14615410D01*
X16012441Y-14586838D01*
X16002917Y-14577315D01*
D13*
X10850060Y-14979410D02*
G75*
G03*
X10850060Y-14979410I-19000J0D01*
G01*
D11*
X11145774Y-14869886D02*
X11164822Y-14869886D01*
X11183870Y-14879410D01*
X11193393Y-14888934D01*
X11202917Y-14907981D01*
X11212441Y-14946077D01*
X11212441Y-14993696D01*
X11202917Y-15031791D01*
X11193393Y-15050838D01*
X11183870Y-15060362D01*
X11164822Y-15069886D01*
X11145774Y-15069886D01*
X11126727Y-15060362D01*
X11117203Y-15050838D01*
X11107679Y-15031791D01*
X11098155Y-14993696D01*
X11098155Y-14946077D01*
X11107679Y-14907981D01*
X11117203Y-14888934D01*
X11126727Y-14879410D01*
X11145774Y-14869886D01*
X11298155Y-15050838D02*
X11307679Y-15060362D01*
X11298155Y-15069886D01*
X11288631Y-15060362D01*
X11298155Y-15050838D01*
X11298155Y-15069886D01*
X11374346Y-14869886D02*
X11498155Y-14869886D01*
X11431488Y-14946077D01*
X11460060Y-14946077D01*
X11479108Y-14955600D01*
X11488631Y-14965124D01*
X11498155Y-14984172D01*
X11498155Y-15031791D01*
X11488631Y-15050838D01*
X11479108Y-15060362D01*
X11460060Y-15069886D01*
X11402917Y-15069886D01*
X11383869Y-15060362D01*
X11374346Y-15050838D01*
X11612441Y-14955600D02*
X11593393Y-14946077D01*
X11583869Y-14936553D01*
X11574346Y-14917505D01*
X11574346Y-14907981D01*
X11583869Y-14888934D01*
X11593393Y-14879410D01*
X11612441Y-14869886D01*
X11650536Y-14869886D01*
X11669584Y-14879410D01*
X11679108Y-14888934D01*
X11688631Y-14907981D01*
X11688631Y-14917505D01*
X11679108Y-14936553D01*
X11669584Y-14946077D01*
X11650536Y-14955600D01*
X11612441Y-14955600D01*
X11593393Y-14965124D01*
X11583869Y-14974648D01*
X11574346Y-14993696D01*
X11574346Y-15031791D01*
X11583869Y-15050838D01*
X11593393Y-15060362D01*
X11612441Y-15069886D01*
X11650536Y-15069886D01*
X11669584Y-15060362D01*
X11679108Y-15050838D01*
X11688631Y-15031791D01*
X11688631Y-14993696D01*
X11679108Y-14974648D01*
X11669584Y-14965124D01*
X11650536Y-14955600D01*
X11812441Y-14869886D02*
X11831488Y-14869886D01*
X11850536Y-14879410D01*
X11860060Y-14888934D01*
X11869584Y-14907981D01*
X11879108Y-14946077D01*
X11879108Y-14993696D01*
X11869584Y-15031791D01*
X11860060Y-15050838D01*
X11850536Y-15060362D01*
X11831488Y-15069886D01*
X11812441Y-15069886D01*
X11793393Y-15060362D01*
X11783869Y-15050838D01*
X11774346Y-15031791D01*
X11764822Y-14993696D01*
X11764822Y-14946077D01*
X11774346Y-14907981D01*
X11783869Y-14888934D01*
X11793393Y-14879410D01*
X11812441Y-14869886D01*
X11964822Y-15069886D02*
X11964822Y-14936553D01*
X11964822Y-14955600D02*
X11974346Y-14946077D01*
X11993393Y-14936553D01*
X12021965Y-14936553D01*
X12041012Y-14946077D01*
X12050536Y-14965124D01*
X12050536Y-15069886D01*
X12050536Y-14965124D02*
X12060060Y-14946077D01*
X12079108Y-14936553D01*
X12107679Y-14936553D01*
X12126727Y-14946077D01*
X12136250Y-14965124D01*
X12136250Y-15069886D01*
X12231488Y-15069886D02*
X12231488Y-14936553D01*
X12231488Y-14955600D02*
X12241012Y-14946077D01*
X12260060Y-14936553D01*
X12288631Y-14936553D01*
X12307679Y-14946077D01*
X12317203Y-14965124D01*
X12317203Y-15069886D01*
X12317203Y-14965124D02*
X12326727Y-14946077D01*
X12345774Y-14936553D01*
X12374346Y-14936553D01*
X12393393Y-14946077D01*
X12402917Y-14965124D01*
X12402917Y-15069886D01*
X12793393Y-14860362D02*
X12621965Y-15117505D01*
X13050536Y-14869886D02*
X13069584Y-14869886D01*
X13088631Y-14879410D01*
X13098155Y-14888934D01*
X13107679Y-14907981D01*
X13117203Y-14946077D01*
X13117203Y-14993696D01*
X13107679Y-15031791D01*
X13098155Y-15050838D01*
X13088631Y-15060362D01*
X13069584Y-15069886D01*
X13050536Y-15069886D01*
X13031488Y-15060362D01*
X13021965Y-15050838D01*
X13012441Y-15031791D01*
X13002917Y-14993696D01*
X13002917Y-14946077D01*
X13012441Y-14907981D01*
X13021965Y-14888934D01*
X13031488Y-14879410D01*
X13050536Y-14869886D01*
X13202917Y-15050838D02*
X13212441Y-15060362D01*
X13202917Y-15069886D01*
X13193393Y-15060362D01*
X13202917Y-15050838D01*
X13202917Y-15069886D01*
X13336250Y-14869886D02*
X13355298Y-14869886D01*
X13374346Y-14879410D01*
X13383869Y-14888934D01*
X13393393Y-14907981D01*
X13402917Y-14946077D01*
X13402917Y-14993696D01*
X13393393Y-15031791D01*
X13383869Y-15050838D01*
X13374346Y-15060362D01*
X13355298Y-15069886D01*
X13336250Y-15069886D01*
X13317203Y-15060362D01*
X13307679Y-15050838D01*
X13298155Y-15031791D01*
X13288631Y-14993696D01*
X13288631Y-14946077D01*
X13298155Y-14907981D01*
X13307679Y-14888934D01*
X13317203Y-14879410D01*
X13336250Y-14869886D01*
X13593393Y-15069886D02*
X13479108Y-15069886D01*
X13536250Y-15069886D02*
X13536250Y-14869886D01*
X13517203Y-14898458D01*
X13498155Y-14917505D01*
X13479108Y-14927029D01*
X13774346Y-14869886D02*
X13679108Y-14869886D01*
X13669584Y-14965124D01*
X13679108Y-14955600D01*
X13698155Y-14946077D01*
X13745774Y-14946077D01*
X13764822Y-14955600D01*
X13774346Y-14965124D01*
X13783869Y-14984172D01*
X13783869Y-15031791D01*
X13774346Y-15050838D01*
X13764822Y-15060362D01*
X13745774Y-15069886D01*
X13698155Y-15069886D01*
X13679108Y-15060362D01*
X13669584Y-15050838D01*
X13907679Y-14869886D02*
X13926727Y-14869886D01*
X13945774Y-14879410D01*
X13955298Y-14888934D01*
X13964822Y-14907981D01*
X13974346Y-14946077D01*
X13974346Y-14993696D01*
X13964822Y-15031791D01*
X13955298Y-15050838D01*
X13945774Y-15060362D01*
X13926727Y-15069886D01*
X13907679Y-15069886D01*
X13888631Y-15060362D01*
X13879108Y-15050838D01*
X13869584Y-15031791D01*
X13860060Y-14993696D01*
X13860060Y-14946077D01*
X13869584Y-14907981D01*
X13879108Y-14888934D01*
X13888631Y-14879410D01*
X13907679Y-14869886D01*
X14050536Y-14869886D02*
X14050536Y-14907981D01*
X14126727Y-14869886D02*
X14126727Y-14907981D01*
X14421965Y-15146077D02*
X14412441Y-15136553D01*
X14393393Y-15107981D01*
X14383869Y-15088934D01*
X14374346Y-15060362D01*
X14364822Y-15012743D01*
X14364822Y-14974648D01*
X14374346Y-14927029D01*
X14383869Y-14898458D01*
X14393393Y-14879410D01*
X14412441Y-14850838D01*
X14421965Y-14841315D01*
X14593393Y-14869886D02*
X14498155Y-14869886D01*
X14488631Y-14965124D01*
X14498155Y-14955600D01*
X14517203Y-14946077D01*
X14564822Y-14946077D01*
X14583869Y-14955600D01*
X14593393Y-14965124D01*
X14602917Y-14984172D01*
X14602917Y-15031791D01*
X14593393Y-15050838D01*
X14583869Y-15060362D01*
X14564822Y-15069886D01*
X14517203Y-15069886D01*
X14498155Y-15060362D01*
X14488631Y-15050838D01*
X14841012Y-15069886D02*
X14841012Y-14869886D01*
X14926727Y-15069886D02*
X14926727Y-14965124D01*
X14917203Y-14946077D01*
X14898155Y-14936553D01*
X14869584Y-14936553D01*
X14850536Y-14946077D01*
X14841012Y-14955600D01*
X15050536Y-15069886D02*
X15031488Y-15060362D01*
X15021965Y-15050838D01*
X15012441Y-15031791D01*
X15012441Y-14974648D01*
X15021965Y-14955600D01*
X15031488Y-14946077D01*
X15050536Y-14936553D01*
X15079108Y-14936553D01*
X15098155Y-14946077D01*
X15107679Y-14955600D01*
X15117203Y-14974648D01*
X15117203Y-15031791D01*
X15107679Y-15050838D01*
X15098155Y-15060362D01*
X15079108Y-15069886D01*
X15050536Y-15069886D01*
X15231488Y-15069886D02*
X15212441Y-15060362D01*
X15202917Y-15041315D01*
X15202917Y-14869886D01*
X15383869Y-15060362D02*
X15364822Y-15069886D01*
X15326727Y-15069886D01*
X15307679Y-15060362D01*
X15298155Y-15041315D01*
X15298155Y-14965124D01*
X15307679Y-14946077D01*
X15326727Y-14936553D01*
X15364822Y-14936553D01*
X15383869Y-14946077D01*
X15393393Y-14965124D01*
X15393393Y-14984172D01*
X15298155Y-15003219D01*
X15469584Y-15060362D02*
X15488631Y-15069886D01*
X15526727Y-15069886D01*
X15545774Y-15060362D01*
X15555298Y-15041315D01*
X15555298Y-15031791D01*
X15545774Y-15012743D01*
X15526727Y-15003219D01*
X15498155Y-15003219D01*
X15479108Y-14993696D01*
X15469584Y-14974648D01*
X15469584Y-14965124D01*
X15479108Y-14946077D01*
X15498155Y-14936553D01*
X15526727Y-14936553D01*
X15545774Y-14946077D01*
X15621965Y-15146077D02*
X15631488Y-15136553D01*
X15650536Y-15107981D01*
X15660060Y-15088934D01*
X15669584Y-15060362D01*
X15679108Y-15012743D01*
X15679108Y-14974648D01*
X15669584Y-14927029D01*
X15660060Y-14898458D01*
X15650536Y-14879410D01*
X15631488Y-14850838D01*
X15621965Y-14841315D01*
M02*
