%FSLAX45Y45*%
G04 Gerber Fmt 4.5, Leading zero omitted, Abs format (unit mm)*
G04 Created by KiCad (PCBNEW (6.0.2)) date 2022-09-07 19:19:19*
%MOMM*%
%LPD*%
G01*
G04 APERTURE LIST*
%TA.AperFunction,Profile*%
%ADD10C,0.001000*%
%TD*%
%ADD11C,0.200000*%
%ADD12C,0.240000*%
%ADD13C,0.310000*%
%ADD14C,0.550000*%
G04 APERTURE END LIST*
D10*
X11050110Y-6925360D02*
G75*
G03*
X10850110Y-7125360I0J-200000D01*
G01*
X18850110Y-7125360D02*
G75*
G03*
X18650110Y-6925360I-200000J0D01*
G01*
X18650110Y-14075360D02*
G75*
G03*
X18850110Y-13875360I0J200000D01*
G01*
X10850110Y-13875360D02*
X10850110Y-7125360D01*
X10850110Y-13875360D02*
G75*
G03*
X11050110Y-14075360I200000J0D01*
G01*
X18850110Y-7125360D02*
X18850110Y-13875360D01*
X18650110Y-14075360D02*
X11050110Y-14075360D01*
X11050110Y-6925360D02*
X18650110Y-6925360D01*
D11*
D12*
X12110110Y-10115360D02*
X12350110Y-10355360D01*
X12350110Y-10115360D02*
X12110110Y-10355360D01*
X17130110Y-10115360D02*
X17370110Y-10355360D01*
X17370110Y-10115360D02*
X17130110Y-10355360D01*
D13*
X14895110Y-7725360D02*
G75*
G03*
X14895110Y-7725360I-155000J0D01*
G01*
X14895110Y-12745360D02*
G75*
G03*
X14895110Y-12745360I-155000J0D01*
G01*
D14*
X12037110Y-7257360D02*
X12037110Y-7807360D01*
X11762110Y-7532360D02*
X12312110Y-7532360D01*
X12037110Y-12663360D02*
X12037110Y-13213360D01*
X11762110Y-12938360D02*
X12312110Y-12938360D01*
X17443110Y-7257360D02*
X17443110Y-7807360D01*
X17168110Y-7532360D02*
X17718110Y-7532360D01*
X17443110Y-12663360D02*
X17443110Y-13213360D01*
X17168110Y-12938360D02*
X17718110Y-12938360D01*
D11*
X11107679Y-14385886D02*
X11107679Y-14185886D01*
X11155298Y-14185886D01*
X11183870Y-14195410D01*
X11202917Y-14214458D01*
X11212441Y-14233505D01*
X11221965Y-14271600D01*
X11221965Y-14300172D01*
X11212441Y-14338267D01*
X11202917Y-14357315D01*
X11183870Y-14376362D01*
X11155298Y-14385886D01*
X11107679Y-14385886D01*
X11307679Y-14385886D02*
X11307679Y-14252553D01*
X11307679Y-14290648D02*
X11317203Y-14271600D01*
X11326727Y-14262077D01*
X11345774Y-14252553D01*
X11364822Y-14252553D01*
X11431488Y-14385886D02*
X11431488Y-14252553D01*
X11431488Y-14185886D02*
X11421965Y-14195410D01*
X11431488Y-14204934D01*
X11441012Y-14195410D01*
X11431488Y-14185886D01*
X11431488Y-14204934D01*
X11555298Y-14385886D02*
X11536250Y-14376362D01*
X11526727Y-14357315D01*
X11526727Y-14185886D01*
X11660060Y-14385886D02*
X11641012Y-14376362D01*
X11631488Y-14357315D01*
X11631488Y-14185886D01*
X11888631Y-14385886D02*
X11888631Y-14185886D01*
X11955298Y-14328743D01*
X12021965Y-14185886D01*
X12021965Y-14385886D01*
X12202917Y-14385886D02*
X12202917Y-14281124D01*
X12193393Y-14262077D01*
X12174346Y-14252553D01*
X12136250Y-14252553D01*
X12117203Y-14262077D01*
X12202917Y-14376362D02*
X12183869Y-14385886D01*
X12136250Y-14385886D01*
X12117203Y-14376362D01*
X12107679Y-14357315D01*
X12107679Y-14338267D01*
X12117203Y-14319219D01*
X12136250Y-14309696D01*
X12183869Y-14309696D01*
X12202917Y-14300172D01*
X12298155Y-14252553D02*
X12298155Y-14452553D01*
X12298155Y-14262077D02*
X12317203Y-14252553D01*
X12355298Y-14252553D01*
X12374346Y-14262077D01*
X12383869Y-14271600D01*
X12393393Y-14290648D01*
X12393393Y-14347791D01*
X12383869Y-14366838D01*
X12374346Y-14376362D01*
X12355298Y-14385886D01*
X12317203Y-14385886D01*
X12298155Y-14376362D01*
X12479108Y-14366838D02*
X12488631Y-14376362D01*
X12479108Y-14385886D01*
X12469584Y-14376362D01*
X12479108Y-14366838D01*
X12479108Y-14385886D01*
X12479108Y-14262077D02*
X12488631Y-14271600D01*
X12479108Y-14281124D01*
X12469584Y-14271600D01*
X12479108Y-14262077D01*
X12479108Y-14281124D01*
X10650060Y-14615410D02*
X10850060Y-14815410D01*
X10850060Y-14615410D02*
X10650060Y-14815410D01*
X11098155Y-14624934D02*
X11107679Y-14615410D01*
X11126727Y-14605886D01*
X11174346Y-14605886D01*
X11193393Y-14615410D01*
X11202917Y-14624934D01*
X11212441Y-14643981D01*
X11212441Y-14663029D01*
X11202917Y-14691600D01*
X11088631Y-14805886D01*
X11212441Y-14805886D01*
X11298155Y-14786838D02*
X11307679Y-14796362D01*
X11298155Y-14805886D01*
X11288631Y-14796362D01*
X11298155Y-14786838D01*
X11298155Y-14805886D01*
X11479108Y-14672553D02*
X11479108Y-14805886D01*
X11431488Y-14596362D02*
X11383869Y-14739219D01*
X11507679Y-14739219D01*
X11621965Y-14605886D02*
X11641012Y-14605886D01*
X11660060Y-14615410D01*
X11669584Y-14624934D01*
X11679108Y-14643981D01*
X11688631Y-14682077D01*
X11688631Y-14729696D01*
X11679108Y-14767791D01*
X11669584Y-14786838D01*
X11660060Y-14796362D01*
X11641012Y-14805886D01*
X11621965Y-14805886D01*
X11602917Y-14796362D01*
X11593393Y-14786838D01*
X11583869Y-14767791D01*
X11574346Y-14729696D01*
X11574346Y-14682077D01*
X11583869Y-14643981D01*
X11593393Y-14624934D01*
X11602917Y-14615410D01*
X11621965Y-14605886D01*
X11812441Y-14605886D02*
X11831488Y-14605886D01*
X11850536Y-14615410D01*
X11860060Y-14624934D01*
X11869584Y-14643981D01*
X11879108Y-14682077D01*
X11879108Y-14729696D01*
X11869584Y-14767791D01*
X11860060Y-14786838D01*
X11850536Y-14796362D01*
X11831488Y-14805886D01*
X11812441Y-14805886D01*
X11793393Y-14796362D01*
X11783869Y-14786838D01*
X11774346Y-14767791D01*
X11764822Y-14729696D01*
X11764822Y-14682077D01*
X11774346Y-14643981D01*
X11783869Y-14624934D01*
X11793393Y-14615410D01*
X11812441Y-14605886D01*
X11964822Y-14805886D02*
X11964822Y-14672553D01*
X11964822Y-14691600D02*
X11974346Y-14682077D01*
X11993393Y-14672553D01*
X12021965Y-14672553D01*
X12041012Y-14682077D01*
X12050536Y-14701124D01*
X12050536Y-14805886D01*
X12050536Y-14701124D02*
X12060060Y-14682077D01*
X12079108Y-14672553D01*
X12107679Y-14672553D01*
X12126727Y-14682077D01*
X12136250Y-14701124D01*
X12136250Y-14805886D01*
X12231488Y-14805886D02*
X12231488Y-14672553D01*
X12231488Y-14691600D02*
X12241012Y-14682077D01*
X12260060Y-14672553D01*
X12288631Y-14672553D01*
X12307679Y-14682077D01*
X12317203Y-14701124D01*
X12317203Y-14805886D01*
X12317203Y-14701124D02*
X12326727Y-14682077D01*
X12345774Y-14672553D01*
X12374346Y-14672553D01*
X12393393Y-14682077D01*
X12402917Y-14701124D01*
X12402917Y-14805886D01*
X12793393Y-14596362D02*
X12621965Y-14853505D01*
X13050536Y-14605886D02*
X13069584Y-14605886D01*
X13088631Y-14615410D01*
X13098155Y-14624934D01*
X13107679Y-14643981D01*
X13117203Y-14682077D01*
X13117203Y-14729696D01*
X13107679Y-14767791D01*
X13098155Y-14786838D01*
X13088631Y-14796362D01*
X13069584Y-14805886D01*
X13050536Y-14805886D01*
X13031488Y-14796362D01*
X13021965Y-14786838D01*
X13012441Y-14767791D01*
X13002917Y-14729696D01*
X13002917Y-14682077D01*
X13012441Y-14643981D01*
X13021965Y-14624934D01*
X13031488Y-14615410D01*
X13050536Y-14605886D01*
X13202917Y-14786838D02*
X13212441Y-14796362D01*
X13202917Y-14805886D01*
X13193393Y-14796362D01*
X13202917Y-14786838D01*
X13202917Y-14805886D01*
X13336250Y-14605886D02*
X13355298Y-14605886D01*
X13374346Y-14615410D01*
X13383869Y-14624934D01*
X13393393Y-14643981D01*
X13402917Y-14682077D01*
X13402917Y-14729696D01*
X13393393Y-14767791D01*
X13383869Y-14786838D01*
X13374346Y-14796362D01*
X13355298Y-14805886D01*
X13336250Y-14805886D01*
X13317203Y-14796362D01*
X13307679Y-14786838D01*
X13298155Y-14767791D01*
X13288631Y-14729696D01*
X13288631Y-14682077D01*
X13298155Y-14643981D01*
X13307679Y-14624934D01*
X13317203Y-14615410D01*
X13336250Y-14605886D01*
X13498155Y-14805886D02*
X13536250Y-14805886D01*
X13555298Y-14796362D01*
X13564822Y-14786838D01*
X13583869Y-14758267D01*
X13593393Y-14720172D01*
X13593393Y-14643981D01*
X13583869Y-14624934D01*
X13574346Y-14615410D01*
X13555298Y-14605886D01*
X13517203Y-14605886D01*
X13498155Y-14615410D01*
X13488631Y-14624934D01*
X13479108Y-14643981D01*
X13479108Y-14691600D01*
X13488631Y-14710648D01*
X13498155Y-14720172D01*
X13517203Y-14729696D01*
X13555298Y-14729696D01*
X13574346Y-14720172D01*
X13583869Y-14710648D01*
X13593393Y-14691600D01*
X13764822Y-14672553D02*
X13764822Y-14805886D01*
X13717203Y-14596362D02*
X13669584Y-14739219D01*
X13793393Y-14739219D01*
X13964822Y-14605886D02*
X13869584Y-14605886D01*
X13860060Y-14701124D01*
X13869584Y-14691600D01*
X13888631Y-14682077D01*
X13936250Y-14682077D01*
X13955298Y-14691600D01*
X13964822Y-14701124D01*
X13974346Y-14720172D01*
X13974346Y-14767791D01*
X13964822Y-14786838D01*
X13955298Y-14796362D01*
X13936250Y-14805886D01*
X13888631Y-14805886D01*
X13869584Y-14796362D01*
X13860060Y-14786838D01*
X14050536Y-14605886D02*
X14050536Y-14643981D01*
X14126727Y-14605886D02*
X14126727Y-14643981D01*
X14421965Y-14882077D02*
X14412441Y-14872553D01*
X14393393Y-14843981D01*
X14383869Y-14824934D01*
X14374346Y-14796362D01*
X14364822Y-14748743D01*
X14364822Y-14710648D01*
X14374346Y-14663029D01*
X14383869Y-14634458D01*
X14393393Y-14615410D01*
X14412441Y-14586838D01*
X14421965Y-14577315D01*
X14488631Y-14624934D02*
X14498155Y-14615410D01*
X14517203Y-14605886D01*
X14564822Y-14605886D01*
X14583869Y-14615410D01*
X14593393Y-14624934D01*
X14602917Y-14643981D01*
X14602917Y-14663029D01*
X14593393Y-14691600D01*
X14479108Y-14805886D01*
X14602917Y-14805886D01*
X14841012Y-14805886D02*
X14841012Y-14605886D01*
X14926727Y-14805886D02*
X14926727Y-14701124D01*
X14917203Y-14682077D01*
X14898155Y-14672553D01*
X14869584Y-14672553D01*
X14850536Y-14682077D01*
X14841012Y-14691600D01*
X15050536Y-14805886D02*
X15031488Y-14796362D01*
X15021965Y-14786838D01*
X15012441Y-14767791D01*
X15012441Y-14710648D01*
X15021965Y-14691600D01*
X15031488Y-14682077D01*
X15050536Y-14672553D01*
X15079108Y-14672553D01*
X15098155Y-14682077D01*
X15107679Y-14691600D01*
X15117203Y-14710648D01*
X15117203Y-14767791D01*
X15107679Y-14786838D01*
X15098155Y-14796362D01*
X15079108Y-14805886D01*
X15050536Y-14805886D01*
X15231488Y-14805886D02*
X15212441Y-14796362D01*
X15202917Y-14777315D01*
X15202917Y-14605886D01*
X15383869Y-14796362D02*
X15364822Y-14805886D01*
X15326727Y-14805886D01*
X15307679Y-14796362D01*
X15298155Y-14777315D01*
X15298155Y-14701124D01*
X15307679Y-14682077D01*
X15326727Y-14672553D01*
X15364822Y-14672553D01*
X15383869Y-14682077D01*
X15393393Y-14701124D01*
X15393393Y-14720172D01*
X15298155Y-14739219D01*
X15469584Y-14796362D02*
X15488631Y-14805886D01*
X15526727Y-14805886D01*
X15545774Y-14796362D01*
X15555298Y-14777315D01*
X15555298Y-14767791D01*
X15545774Y-14748743D01*
X15526727Y-14739219D01*
X15498155Y-14739219D01*
X15479108Y-14729696D01*
X15469584Y-14710648D01*
X15469584Y-14701124D01*
X15479108Y-14682077D01*
X15498155Y-14672553D01*
X15526727Y-14672553D01*
X15545774Y-14682077D01*
X15621965Y-14882077D02*
X15631488Y-14872553D01*
X15650536Y-14843981D01*
X15660060Y-14824934D01*
X15669584Y-14796362D01*
X15679108Y-14748743D01*
X15679108Y-14710648D01*
X15669584Y-14663029D01*
X15660060Y-14634458D01*
X15650536Y-14615410D01*
X15631488Y-14586838D01*
X15621965Y-14577315D01*
X15983869Y-14882077D02*
X15974346Y-14872553D01*
X15955298Y-14843981D01*
X15945774Y-14824934D01*
X15936250Y-14796362D01*
X15926727Y-14748743D01*
X15926727Y-14710648D01*
X15936250Y-14663029D01*
X15945774Y-14634458D01*
X15955298Y-14615410D01*
X15974346Y-14586838D01*
X15983869Y-14577315D01*
X16060060Y-14672553D02*
X16060060Y-14805886D01*
X16060060Y-14691600D02*
X16069584Y-14682077D01*
X16088631Y-14672553D01*
X16117203Y-14672553D01*
X16136250Y-14682077D01*
X16145774Y-14701124D01*
X16145774Y-14805886D01*
X16269584Y-14805886D02*
X16250536Y-14796362D01*
X16241012Y-14786838D01*
X16231488Y-14767791D01*
X16231488Y-14710648D01*
X16241012Y-14691600D01*
X16250536Y-14682077D01*
X16269584Y-14672553D01*
X16298155Y-14672553D01*
X16317203Y-14682077D01*
X16326727Y-14691600D01*
X16336250Y-14710648D01*
X16336250Y-14767791D01*
X16326727Y-14786838D01*
X16317203Y-14796362D01*
X16298155Y-14805886D01*
X16269584Y-14805886D01*
X16393393Y-14672553D02*
X16469584Y-14672553D01*
X16421965Y-14605886D02*
X16421965Y-14777315D01*
X16431488Y-14796362D01*
X16450536Y-14805886D01*
X16469584Y-14805886D01*
X16688631Y-14672553D02*
X16688631Y-14872553D01*
X16688631Y-14682077D02*
X16707679Y-14672553D01*
X16745774Y-14672553D01*
X16764822Y-14682077D01*
X16774346Y-14691600D01*
X16783870Y-14710648D01*
X16783870Y-14767791D01*
X16774346Y-14786838D01*
X16764822Y-14796362D01*
X16745774Y-14805886D01*
X16707679Y-14805886D01*
X16688631Y-14796362D01*
X16898155Y-14805886D02*
X16879108Y-14796362D01*
X16869584Y-14777315D01*
X16869584Y-14605886D01*
X17060060Y-14805886D02*
X17060060Y-14701124D01*
X17050536Y-14682077D01*
X17031489Y-14672553D01*
X16993393Y-14672553D01*
X16974346Y-14682077D01*
X17060060Y-14796362D02*
X17041012Y-14805886D01*
X16993393Y-14805886D01*
X16974346Y-14796362D01*
X16964822Y-14777315D01*
X16964822Y-14758267D01*
X16974346Y-14739219D01*
X16993393Y-14729696D01*
X17041012Y-14729696D01*
X17060060Y-14720172D01*
X17126727Y-14672553D02*
X17202917Y-14672553D01*
X17155298Y-14605886D02*
X17155298Y-14777315D01*
X17164822Y-14796362D01*
X17183870Y-14805886D01*
X17202917Y-14805886D01*
X17345774Y-14796362D02*
X17326727Y-14805886D01*
X17288631Y-14805886D01*
X17269584Y-14796362D01*
X17260060Y-14777315D01*
X17260060Y-14701124D01*
X17269584Y-14682077D01*
X17288631Y-14672553D01*
X17326727Y-14672553D01*
X17345774Y-14682077D01*
X17355298Y-14701124D01*
X17355298Y-14720172D01*
X17260060Y-14739219D01*
X17526727Y-14805886D02*
X17526727Y-14605886D01*
X17526727Y-14796362D02*
X17507679Y-14805886D01*
X17469584Y-14805886D01*
X17450536Y-14796362D01*
X17441012Y-14786838D01*
X17431489Y-14767791D01*
X17431489Y-14710648D01*
X17441012Y-14691600D01*
X17450536Y-14682077D01*
X17469584Y-14672553D01*
X17507679Y-14672553D01*
X17526727Y-14682077D01*
X17602917Y-14882077D02*
X17612441Y-14872553D01*
X17631489Y-14843981D01*
X17641012Y-14824934D01*
X17650536Y-14796362D01*
X17660060Y-14748743D01*
X17660060Y-14710648D01*
X17650536Y-14663029D01*
X17641012Y-14634458D01*
X17631489Y-14615410D01*
X17612441Y-14586838D01*
X17602917Y-14577315D01*
X10850060Y-15035410D02*
G75*
G03*
X10850060Y-15035410I-100000J0D01*
G01*
X11088631Y-14925886D02*
X11212441Y-14925886D01*
X11145774Y-15002077D01*
X11174346Y-15002077D01*
X11193393Y-15011600D01*
X11202917Y-15021124D01*
X11212441Y-15040172D01*
X11212441Y-15087791D01*
X11202917Y-15106838D01*
X11193393Y-15116362D01*
X11174346Y-15125886D01*
X11117203Y-15125886D01*
X11098155Y-15116362D01*
X11088631Y-15106838D01*
X11298155Y-15106838D02*
X11307679Y-15116362D01*
X11298155Y-15125886D01*
X11288631Y-15116362D01*
X11298155Y-15106838D01*
X11298155Y-15125886D01*
X11498155Y-15125886D02*
X11383869Y-15125886D01*
X11441012Y-15125886D02*
X11441012Y-14925886D01*
X11421965Y-14954458D01*
X11402917Y-14973505D01*
X11383869Y-14983029D01*
X11621965Y-14925886D02*
X11641012Y-14925886D01*
X11660060Y-14935410D01*
X11669584Y-14944934D01*
X11679108Y-14963981D01*
X11688631Y-15002077D01*
X11688631Y-15049696D01*
X11679108Y-15087791D01*
X11669584Y-15106838D01*
X11660060Y-15116362D01*
X11641012Y-15125886D01*
X11621965Y-15125886D01*
X11602917Y-15116362D01*
X11593393Y-15106838D01*
X11583869Y-15087791D01*
X11574346Y-15049696D01*
X11574346Y-15002077D01*
X11583869Y-14963981D01*
X11593393Y-14944934D01*
X11602917Y-14935410D01*
X11621965Y-14925886D01*
X11812441Y-14925886D02*
X11831488Y-14925886D01*
X11850536Y-14935410D01*
X11860060Y-14944934D01*
X11869584Y-14963981D01*
X11879108Y-15002077D01*
X11879108Y-15049696D01*
X11869584Y-15087791D01*
X11860060Y-15106838D01*
X11850536Y-15116362D01*
X11831488Y-15125886D01*
X11812441Y-15125886D01*
X11793393Y-15116362D01*
X11783869Y-15106838D01*
X11774346Y-15087791D01*
X11764822Y-15049696D01*
X11764822Y-15002077D01*
X11774346Y-14963981D01*
X11783869Y-14944934D01*
X11793393Y-14935410D01*
X11812441Y-14925886D01*
X11964822Y-15125886D02*
X11964822Y-14992553D01*
X11964822Y-15011600D02*
X11974346Y-15002077D01*
X11993393Y-14992553D01*
X12021965Y-14992553D01*
X12041012Y-15002077D01*
X12050536Y-15021124D01*
X12050536Y-15125886D01*
X12050536Y-15021124D02*
X12060060Y-15002077D01*
X12079108Y-14992553D01*
X12107679Y-14992553D01*
X12126727Y-15002077D01*
X12136250Y-15021124D01*
X12136250Y-15125886D01*
X12231488Y-15125886D02*
X12231488Y-14992553D01*
X12231488Y-15011600D02*
X12241012Y-15002077D01*
X12260060Y-14992553D01*
X12288631Y-14992553D01*
X12307679Y-15002077D01*
X12317203Y-15021124D01*
X12317203Y-15125886D01*
X12317203Y-15021124D02*
X12326727Y-15002077D01*
X12345774Y-14992553D01*
X12374346Y-14992553D01*
X12393393Y-15002077D01*
X12402917Y-15021124D01*
X12402917Y-15125886D01*
X12793393Y-14916362D02*
X12621965Y-15173505D01*
X13050536Y-14925886D02*
X13069584Y-14925886D01*
X13088631Y-14935410D01*
X13098155Y-14944934D01*
X13107679Y-14963981D01*
X13117203Y-15002077D01*
X13117203Y-15049696D01*
X13107679Y-15087791D01*
X13098155Y-15106838D01*
X13088631Y-15116362D01*
X13069584Y-15125886D01*
X13050536Y-15125886D01*
X13031488Y-15116362D01*
X13021965Y-15106838D01*
X13012441Y-15087791D01*
X13002917Y-15049696D01*
X13002917Y-15002077D01*
X13012441Y-14963981D01*
X13021965Y-14944934D01*
X13031488Y-14935410D01*
X13050536Y-14925886D01*
X13202917Y-15106838D02*
X13212441Y-15116362D01*
X13202917Y-15125886D01*
X13193393Y-15116362D01*
X13202917Y-15106838D01*
X13202917Y-15125886D01*
X13402917Y-15125886D02*
X13288631Y-15125886D01*
X13345774Y-15125886D02*
X13345774Y-14925886D01*
X13326727Y-14954458D01*
X13307679Y-14973505D01*
X13288631Y-14983029D01*
X13479108Y-14944934D02*
X13488631Y-14935410D01*
X13507679Y-14925886D01*
X13555298Y-14925886D01*
X13574346Y-14935410D01*
X13583869Y-14944934D01*
X13593393Y-14963981D01*
X13593393Y-14983029D01*
X13583869Y-15011600D01*
X13469584Y-15125886D01*
X13593393Y-15125886D01*
X13669584Y-14944934D02*
X13679108Y-14935410D01*
X13698155Y-14925886D01*
X13745774Y-14925886D01*
X13764822Y-14935410D01*
X13774346Y-14944934D01*
X13783869Y-14963981D01*
X13783869Y-14983029D01*
X13774346Y-15011600D01*
X13660060Y-15125886D01*
X13783869Y-15125886D01*
X13907679Y-14925886D02*
X13926727Y-14925886D01*
X13945774Y-14935410D01*
X13955298Y-14944934D01*
X13964822Y-14963981D01*
X13974346Y-15002077D01*
X13974346Y-15049696D01*
X13964822Y-15087791D01*
X13955298Y-15106838D01*
X13945774Y-15116362D01*
X13926727Y-15125886D01*
X13907679Y-15125886D01*
X13888631Y-15116362D01*
X13879108Y-15106838D01*
X13869584Y-15087791D01*
X13860060Y-15049696D01*
X13860060Y-15002077D01*
X13869584Y-14963981D01*
X13879108Y-14944934D01*
X13888631Y-14935410D01*
X13907679Y-14925886D01*
X14050536Y-14925886D02*
X14050536Y-14963981D01*
X14126727Y-14925886D02*
X14126727Y-14963981D01*
X14421965Y-15202077D02*
X14412441Y-15192553D01*
X14393393Y-15163981D01*
X14383869Y-15144934D01*
X14374346Y-15116362D01*
X14364822Y-15068743D01*
X14364822Y-15030648D01*
X14374346Y-14983029D01*
X14383869Y-14954458D01*
X14393393Y-14935410D01*
X14412441Y-14906838D01*
X14421965Y-14897315D01*
X14488631Y-14944934D02*
X14498155Y-14935410D01*
X14517203Y-14925886D01*
X14564822Y-14925886D01*
X14583869Y-14935410D01*
X14593393Y-14944934D01*
X14602917Y-14963981D01*
X14602917Y-14983029D01*
X14593393Y-15011600D01*
X14479108Y-15125886D01*
X14602917Y-15125886D01*
X14841012Y-15125886D02*
X14841012Y-14925886D01*
X14926727Y-15125886D02*
X14926727Y-15021124D01*
X14917203Y-15002077D01*
X14898155Y-14992553D01*
X14869584Y-14992553D01*
X14850536Y-15002077D01*
X14841012Y-15011600D01*
X15050536Y-15125886D02*
X15031488Y-15116362D01*
X15021965Y-15106838D01*
X15012441Y-15087791D01*
X15012441Y-15030648D01*
X15021965Y-15011600D01*
X15031488Y-15002077D01*
X15050536Y-14992553D01*
X15079108Y-14992553D01*
X15098155Y-15002077D01*
X15107679Y-15011600D01*
X15117203Y-15030648D01*
X15117203Y-15087791D01*
X15107679Y-15106838D01*
X15098155Y-15116362D01*
X15079108Y-15125886D01*
X15050536Y-15125886D01*
X15231488Y-15125886D02*
X15212441Y-15116362D01*
X15202917Y-15097315D01*
X15202917Y-14925886D01*
X15383869Y-15116362D02*
X15364822Y-15125886D01*
X15326727Y-15125886D01*
X15307679Y-15116362D01*
X15298155Y-15097315D01*
X15298155Y-15021124D01*
X15307679Y-15002077D01*
X15326727Y-14992553D01*
X15364822Y-14992553D01*
X15383869Y-15002077D01*
X15393393Y-15021124D01*
X15393393Y-15040172D01*
X15298155Y-15059219D01*
X15469584Y-15116362D02*
X15488631Y-15125886D01*
X15526727Y-15125886D01*
X15545774Y-15116362D01*
X15555298Y-15097315D01*
X15555298Y-15087791D01*
X15545774Y-15068743D01*
X15526727Y-15059219D01*
X15498155Y-15059219D01*
X15479108Y-15049696D01*
X15469584Y-15030648D01*
X15469584Y-15021124D01*
X15479108Y-15002077D01*
X15498155Y-14992553D01*
X15526727Y-14992553D01*
X15545774Y-15002077D01*
X15621965Y-15202077D02*
X15631488Y-15192553D01*
X15650536Y-15163981D01*
X15660060Y-15144934D01*
X15669584Y-15116362D01*
X15679108Y-15068743D01*
X15679108Y-15030648D01*
X15669584Y-14983029D01*
X15660060Y-14954458D01*
X15650536Y-14935410D01*
X15631488Y-14906838D01*
X15621965Y-14897315D01*
X15983869Y-15202077D02*
X15974346Y-15192553D01*
X15955298Y-15163981D01*
X15945774Y-15144934D01*
X15936250Y-15116362D01*
X15926727Y-15068743D01*
X15926727Y-15030648D01*
X15936250Y-14983029D01*
X15945774Y-14954458D01*
X15955298Y-14935410D01*
X15974346Y-14906838D01*
X15983869Y-14897315D01*
X16060060Y-14992553D02*
X16060060Y-15125886D01*
X16060060Y-15011600D02*
X16069584Y-15002077D01*
X16088631Y-14992553D01*
X16117203Y-14992553D01*
X16136250Y-15002077D01*
X16145774Y-15021124D01*
X16145774Y-15125886D01*
X16269584Y-15125886D02*
X16250536Y-15116362D01*
X16241012Y-15106838D01*
X16231488Y-15087791D01*
X16231488Y-15030648D01*
X16241012Y-15011600D01*
X16250536Y-15002077D01*
X16269584Y-14992553D01*
X16298155Y-14992553D01*
X16317203Y-15002077D01*
X16326727Y-15011600D01*
X16336250Y-15030648D01*
X16336250Y-15087791D01*
X16326727Y-15106838D01*
X16317203Y-15116362D01*
X16298155Y-15125886D01*
X16269584Y-15125886D01*
X16393393Y-14992553D02*
X16469584Y-14992553D01*
X16421965Y-14925886D02*
X16421965Y-15097315D01*
X16431488Y-15116362D01*
X16450536Y-15125886D01*
X16469584Y-15125886D01*
X16688631Y-14992553D02*
X16688631Y-15192553D01*
X16688631Y-15002077D02*
X16707679Y-14992553D01*
X16745774Y-14992553D01*
X16764822Y-15002077D01*
X16774346Y-15011600D01*
X16783870Y-15030648D01*
X16783870Y-15087791D01*
X16774346Y-15106838D01*
X16764822Y-15116362D01*
X16745774Y-15125886D01*
X16707679Y-15125886D01*
X16688631Y-15116362D01*
X16898155Y-15125886D02*
X16879108Y-15116362D01*
X16869584Y-15097315D01*
X16869584Y-14925886D01*
X17060060Y-15125886D02*
X17060060Y-15021124D01*
X17050536Y-15002077D01*
X17031489Y-14992553D01*
X16993393Y-14992553D01*
X16974346Y-15002077D01*
X17060060Y-15116362D02*
X17041012Y-15125886D01*
X16993393Y-15125886D01*
X16974346Y-15116362D01*
X16964822Y-15097315D01*
X16964822Y-15078267D01*
X16974346Y-15059219D01*
X16993393Y-15049696D01*
X17041012Y-15049696D01*
X17060060Y-15040172D01*
X17126727Y-14992553D02*
X17202917Y-14992553D01*
X17155298Y-14925886D02*
X17155298Y-15097315D01*
X17164822Y-15116362D01*
X17183870Y-15125886D01*
X17202917Y-15125886D01*
X17345774Y-15116362D02*
X17326727Y-15125886D01*
X17288631Y-15125886D01*
X17269584Y-15116362D01*
X17260060Y-15097315D01*
X17260060Y-15021124D01*
X17269584Y-15002077D01*
X17288631Y-14992553D01*
X17326727Y-14992553D01*
X17345774Y-15002077D01*
X17355298Y-15021124D01*
X17355298Y-15040172D01*
X17260060Y-15059219D01*
X17526727Y-15125886D02*
X17526727Y-14925886D01*
X17526727Y-15116362D02*
X17507679Y-15125886D01*
X17469584Y-15125886D01*
X17450536Y-15116362D01*
X17441012Y-15106838D01*
X17431489Y-15087791D01*
X17431489Y-15030648D01*
X17441012Y-15011600D01*
X17450536Y-15002077D01*
X17469584Y-14992553D01*
X17507679Y-14992553D01*
X17526727Y-15002077D01*
X17602917Y-15202077D02*
X17612441Y-15192553D01*
X17631489Y-15163981D01*
X17641012Y-15144934D01*
X17650536Y-15116362D01*
X17660060Y-15068743D01*
X17660060Y-15030648D01*
X17650536Y-14983029D01*
X17641012Y-14954458D01*
X17631489Y-14935410D01*
X17612441Y-14906838D01*
X17602917Y-14897315D01*
X10750060Y-15255410D02*
X10750060Y-15455410D01*
X10650060Y-15355410D02*
X10850060Y-15355410D01*
X11202917Y-15245886D02*
X11107679Y-15245886D01*
X11098155Y-15341124D01*
X11107679Y-15331600D01*
X11126727Y-15322077D01*
X11174346Y-15322077D01*
X11193393Y-15331600D01*
X11202917Y-15341124D01*
X11212441Y-15360172D01*
X11212441Y-15407791D01*
X11202917Y-15426838D01*
X11193393Y-15436362D01*
X11174346Y-15445886D01*
X11126727Y-15445886D01*
X11107679Y-15436362D01*
X11098155Y-15426838D01*
X11298155Y-15426838D02*
X11307679Y-15436362D01*
X11298155Y-15445886D01*
X11288631Y-15436362D01*
X11298155Y-15426838D01*
X11298155Y-15445886D01*
X11488631Y-15245886D02*
X11393393Y-15245886D01*
X11383869Y-15341124D01*
X11393393Y-15331600D01*
X11412441Y-15322077D01*
X11460060Y-15322077D01*
X11479108Y-15331600D01*
X11488631Y-15341124D01*
X11498155Y-15360172D01*
X11498155Y-15407791D01*
X11488631Y-15426838D01*
X11479108Y-15436362D01*
X11460060Y-15445886D01*
X11412441Y-15445886D01*
X11393393Y-15436362D01*
X11383869Y-15426838D01*
X11621965Y-15245886D02*
X11641012Y-15245886D01*
X11660060Y-15255410D01*
X11669584Y-15264934D01*
X11679108Y-15283981D01*
X11688631Y-15322077D01*
X11688631Y-15369696D01*
X11679108Y-15407791D01*
X11669584Y-15426838D01*
X11660060Y-15436362D01*
X11641012Y-15445886D01*
X11621965Y-15445886D01*
X11602917Y-15436362D01*
X11593393Y-15426838D01*
X11583869Y-15407791D01*
X11574346Y-15369696D01*
X11574346Y-15322077D01*
X11583869Y-15283981D01*
X11593393Y-15264934D01*
X11602917Y-15255410D01*
X11621965Y-15245886D01*
X11812441Y-15245886D02*
X11831488Y-15245886D01*
X11850536Y-15255410D01*
X11860060Y-15264934D01*
X11869584Y-15283981D01*
X11879108Y-15322077D01*
X11879108Y-15369696D01*
X11869584Y-15407791D01*
X11860060Y-15426838D01*
X11850536Y-15436362D01*
X11831488Y-15445886D01*
X11812441Y-15445886D01*
X11793393Y-15436362D01*
X11783869Y-15426838D01*
X11774346Y-15407791D01*
X11764822Y-15369696D01*
X11764822Y-15322077D01*
X11774346Y-15283981D01*
X11783869Y-15264934D01*
X11793393Y-15255410D01*
X11812441Y-15245886D01*
X11964822Y-15445886D02*
X11964822Y-15312553D01*
X11964822Y-15331600D02*
X11974346Y-15322077D01*
X11993393Y-15312553D01*
X12021965Y-15312553D01*
X12041012Y-15322077D01*
X12050536Y-15341124D01*
X12050536Y-15445886D01*
X12050536Y-15341124D02*
X12060060Y-15322077D01*
X12079108Y-15312553D01*
X12107679Y-15312553D01*
X12126727Y-15322077D01*
X12136250Y-15341124D01*
X12136250Y-15445886D01*
X12231488Y-15445886D02*
X12231488Y-15312553D01*
X12231488Y-15331600D02*
X12241012Y-15322077D01*
X12260060Y-15312553D01*
X12288631Y-15312553D01*
X12307679Y-15322077D01*
X12317203Y-15341124D01*
X12317203Y-15445886D01*
X12317203Y-15341124D02*
X12326727Y-15322077D01*
X12345774Y-15312553D01*
X12374346Y-15312553D01*
X12393393Y-15322077D01*
X12402917Y-15341124D01*
X12402917Y-15445886D01*
X12793393Y-15236362D02*
X12621965Y-15493505D01*
X13050536Y-15245886D02*
X13069584Y-15245886D01*
X13088631Y-15255410D01*
X13098155Y-15264934D01*
X13107679Y-15283981D01*
X13117203Y-15322077D01*
X13117203Y-15369696D01*
X13107679Y-15407791D01*
X13098155Y-15426838D01*
X13088631Y-15436362D01*
X13069584Y-15445886D01*
X13050536Y-15445886D01*
X13031488Y-15436362D01*
X13021965Y-15426838D01*
X13012441Y-15407791D01*
X13002917Y-15369696D01*
X13002917Y-15322077D01*
X13012441Y-15283981D01*
X13021965Y-15264934D01*
X13031488Y-15255410D01*
X13050536Y-15245886D01*
X13202917Y-15426838D02*
X13212441Y-15436362D01*
X13202917Y-15445886D01*
X13193393Y-15436362D01*
X13202917Y-15426838D01*
X13202917Y-15445886D01*
X13288631Y-15264934D02*
X13298155Y-15255410D01*
X13317203Y-15245886D01*
X13364822Y-15245886D01*
X13383869Y-15255410D01*
X13393393Y-15264934D01*
X13402917Y-15283981D01*
X13402917Y-15303029D01*
X13393393Y-15331600D01*
X13279108Y-15445886D01*
X13402917Y-15445886D01*
X13593393Y-15445886D02*
X13479108Y-15445886D01*
X13536250Y-15445886D02*
X13536250Y-15245886D01*
X13517203Y-15274458D01*
X13498155Y-15293505D01*
X13479108Y-15303029D01*
X13764822Y-15245886D02*
X13726727Y-15245886D01*
X13707679Y-15255410D01*
X13698155Y-15264934D01*
X13679108Y-15293505D01*
X13669584Y-15331600D01*
X13669584Y-15407791D01*
X13679108Y-15426838D01*
X13688631Y-15436362D01*
X13707679Y-15445886D01*
X13745774Y-15445886D01*
X13764822Y-15436362D01*
X13774346Y-15426838D01*
X13783869Y-15407791D01*
X13783869Y-15360172D01*
X13774346Y-15341124D01*
X13764822Y-15331600D01*
X13745774Y-15322077D01*
X13707679Y-15322077D01*
X13688631Y-15331600D01*
X13679108Y-15341124D01*
X13669584Y-15360172D01*
X13964822Y-15245886D02*
X13869584Y-15245886D01*
X13860060Y-15341124D01*
X13869584Y-15331600D01*
X13888631Y-15322077D01*
X13936250Y-15322077D01*
X13955298Y-15331600D01*
X13964822Y-15341124D01*
X13974346Y-15360172D01*
X13974346Y-15407791D01*
X13964822Y-15426838D01*
X13955298Y-15436362D01*
X13936250Y-15445886D01*
X13888631Y-15445886D01*
X13869584Y-15436362D01*
X13860060Y-15426838D01*
X14050536Y-15245886D02*
X14050536Y-15283981D01*
X14126727Y-15245886D02*
X14126727Y-15283981D01*
X14421965Y-15522077D02*
X14412441Y-15512553D01*
X14393393Y-15483981D01*
X14383869Y-15464934D01*
X14374346Y-15436362D01*
X14364822Y-15388743D01*
X14364822Y-15350648D01*
X14374346Y-15303029D01*
X14383869Y-15274458D01*
X14393393Y-15255410D01*
X14412441Y-15226838D01*
X14421965Y-15217315D01*
X14583869Y-15312553D02*
X14583869Y-15445886D01*
X14536250Y-15236362D02*
X14488631Y-15379219D01*
X14612441Y-15379219D01*
X14841012Y-15445886D02*
X14841012Y-15245886D01*
X14926727Y-15445886D02*
X14926727Y-15341124D01*
X14917203Y-15322077D01*
X14898155Y-15312553D01*
X14869584Y-15312553D01*
X14850536Y-15322077D01*
X14841012Y-15331600D01*
X15050536Y-15445886D02*
X15031488Y-15436362D01*
X15021965Y-15426838D01*
X15012441Y-15407791D01*
X15012441Y-15350648D01*
X15021965Y-15331600D01*
X15031488Y-15322077D01*
X15050536Y-15312553D01*
X15079108Y-15312553D01*
X15098155Y-15322077D01*
X15107679Y-15331600D01*
X15117203Y-15350648D01*
X15117203Y-15407791D01*
X15107679Y-15426838D01*
X15098155Y-15436362D01*
X15079108Y-15445886D01*
X15050536Y-15445886D01*
X15231488Y-15445886D02*
X15212441Y-15436362D01*
X15202917Y-15417315D01*
X15202917Y-15245886D01*
X15383869Y-15436362D02*
X15364822Y-15445886D01*
X15326727Y-15445886D01*
X15307679Y-15436362D01*
X15298155Y-15417315D01*
X15298155Y-15341124D01*
X15307679Y-15322077D01*
X15326727Y-15312553D01*
X15364822Y-15312553D01*
X15383869Y-15322077D01*
X15393393Y-15341124D01*
X15393393Y-15360172D01*
X15298155Y-15379219D01*
X15469584Y-15436362D02*
X15488631Y-15445886D01*
X15526727Y-15445886D01*
X15545774Y-15436362D01*
X15555298Y-15417315D01*
X15555298Y-15407791D01*
X15545774Y-15388743D01*
X15526727Y-15379219D01*
X15498155Y-15379219D01*
X15479108Y-15369696D01*
X15469584Y-15350648D01*
X15469584Y-15341124D01*
X15479108Y-15322077D01*
X15498155Y-15312553D01*
X15526727Y-15312553D01*
X15545774Y-15322077D01*
X15621965Y-15522077D02*
X15631488Y-15512553D01*
X15650536Y-15483981D01*
X15660060Y-15464934D01*
X15669584Y-15436362D01*
X15679108Y-15388743D01*
X15679108Y-15350648D01*
X15669584Y-15303029D01*
X15660060Y-15274458D01*
X15650536Y-15255410D01*
X15631488Y-15226838D01*
X15621965Y-15217315D01*
X15983869Y-15522077D02*
X15974346Y-15512553D01*
X15955298Y-15483981D01*
X15945774Y-15464934D01*
X15936250Y-15436362D01*
X15926727Y-15388743D01*
X15926727Y-15350648D01*
X15936250Y-15303029D01*
X15945774Y-15274458D01*
X15955298Y-15255410D01*
X15974346Y-15226838D01*
X15983869Y-15217315D01*
X16060060Y-15312553D02*
X16060060Y-15445886D01*
X16060060Y-15331600D02*
X16069584Y-15322077D01*
X16088631Y-15312553D01*
X16117203Y-15312553D01*
X16136250Y-15322077D01*
X16145774Y-15341124D01*
X16145774Y-15445886D01*
X16269584Y-15445886D02*
X16250536Y-15436362D01*
X16241012Y-15426838D01*
X16231488Y-15407791D01*
X16231488Y-15350648D01*
X16241012Y-15331600D01*
X16250536Y-15322077D01*
X16269584Y-15312553D01*
X16298155Y-15312553D01*
X16317203Y-15322077D01*
X16326727Y-15331600D01*
X16336250Y-15350648D01*
X16336250Y-15407791D01*
X16326727Y-15426838D01*
X16317203Y-15436362D01*
X16298155Y-15445886D01*
X16269584Y-15445886D01*
X16393393Y-15312553D02*
X16469584Y-15312553D01*
X16421965Y-15245886D02*
X16421965Y-15417315D01*
X16431488Y-15436362D01*
X16450536Y-15445886D01*
X16469584Y-15445886D01*
X16688631Y-15312553D02*
X16688631Y-15512553D01*
X16688631Y-15322077D02*
X16707679Y-15312553D01*
X16745774Y-15312553D01*
X16764822Y-15322077D01*
X16774346Y-15331600D01*
X16783870Y-15350648D01*
X16783870Y-15407791D01*
X16774346Y-15426838D01*
X16764822Y-15436362D01*
X16745774Y-15445886D01*
X16707679Y-15445886D01*
X16688631Y-15436362D01*
X16898155Y-15445886D02*
X16879108Y-15436362D01*
X16869584Y-15417315D01*
X16869584Y-15245886D01*
X17060060Y-15445886D02*
X17060060Y-15341124D01*
X17050536Y-15322077D01*
X17031489Y-15312553D01*
X16993393Y-15312553D01*
X16974346Y-15322077D01*
X17060060Y-15436362D02*
X17041012Y-15445886D01*
X16993393Y-15445886D01*
X16974346Y-15436362D01*
X16964822Y-15417315D01*
X16964822Y-15398267D01*
X16974346Y-15379219D01*
X16993393Y-15369696D01*
X17041012Y-15369696D01*
X17060060Y-15360172D01*
X17126727Y-15312553D02*
X17202917Y-15312553D01*
X17155298Y-15245886D02*
X17155298Y-15417315D01*
X17164822Y-15436362D01*
X17183870Y-15445886D01*
X17202917Y-15445886D01*
X17345774Y-15436362D02*
X17326727Y-15445886D01*
X17288631Y-15445886D01*
X17269584Y-15436362D01*
X17260060Y-15417315D01*
X17260060Y-15341124D01*
X17269584Y-15322077D01*
X17288631Y-15312553D01*
X17326727Y-15312553D01*
X17345774Y-15322077D01*
X17355298Y-15341124D01*
X17355298Y-15360172D01*
X17260060Y-15379219D01*
X17526727Y-15445886D02*
X17526727Y-15245886D01*
X17526727Y-15436362D02*
X17507679Y-15445886D01*
X17469584Y-15445886D01*
X17450536Y-15436362D01*
X17441012Y-15426838D01*
X17431489Y-15407791D01*
X17431489Y-15350648D01*
X17441012Y-15331600D01*
X17450536Y-15322077D01*
X17469584Y-15312553D01*
X17507679Y-15312553D01*
X17526727Y-15322077D01*
X17602917Y-15522077D02*
X17612441Y-15512553D01*
X17631489Y-15483981D01*
X17641012Y-15464934D01*
X17650536Y-15436362D01*
X17660060Y-15388743D01*
X17660060Y-15350648D01*
X17650536Y-15303029D01*
X17641012Y-15274458D01*
X17631489Y-15255410D01*
X17612441Y-15226838D01*
X17602917Y-15217315D01*
M02*
