%TF.GenerationSoftware,KiCad,Pcbnew,(6.0.2)*%
%TF.CreationDate,2022-09-07T19:19:14-04:00*%
%TF.ProjectId,plusz-end-card-with-turnstile-mezzanine,706c7573-7a2d-4656-9e64-2d636172642d,rev?*%
%TF.SameCoordinates,Original*%
%TF.FileFunction,Paste,Bot*%
%TF.FilePolarity,Positive*%
%FSLAX46Y46*%
G04 Gerber Fmt 4.6, Leading zero omitted, Abs format (unit mm)*
G04 Created by KiCad (PCBNEW (6.0.2)) date 2022-09-07 19:19:14*
%MOMM*%
%LPD*%
G01*
G04 APERTURE LIST*
G04 Aperture macros list*
%AMRoundRect*
0 Rectangle with rounded corners*
0 $1 Rounding radius*
0 $2 $3 $4 $5 $6 $7 $8 $9 X,Y pos of 4 corners*
0 Add a 4 corners polygon primitive as box body*
4,1,4,$2,$3,$4,$5,$6,$7,$8,$9,$2,$3,0*
0 Add four circle primitives for the rounded corners*
1,1,$1+$1,$2,$3*
1,1,$1+$1,$4,$5*
1,1,$1+$1,$6,$7*
1,1,$1+$1,$8,$9*
0 Add four rect primitives between the rounded corners*
20,1,$1+$1,$2,$3,$4,$5,0*
20,1,$1+$1,$4,$5,$6,$7,0*
20,1,$1+$1,$6,$7,$8,$9,0*
20,1,$1+$1,$8,$9,$2,$3,0*%
G04 Aperture macros list end*
%ADD10RoundRect,0.150000X0.300000X-0.150000X0.300000X0.150000X-0.300000X0.150000X-0.300000X-0.150000X0*%
%ADD11RoundRect,0.150000X-0.300000X0.150000X-0.300000X-0.150000X0.300000X-0.150000X0.300000X0.150000X0*%
G04 APERTURE END LIST*
%TO.C,U9*%
G36*
X133051100Y-100103600D02*
G01*
X132101100Y-100103600D01*
X132101100Y-99603600D01*
X133051100Y-99603600D01*
X133051100Y-100103600D01*
G37*
G36*
X133051100Y-101103600D02*
G01*
X132101100Y-101103600D01*
X132101100Y-100603600D01*
X133051100Y-100603600D01*
X133051100Y-101103600D01*
G37*
G36*
X135101100Y-100103600D02*
G01*
X134151100Y-100103600D01*
X134151100Y-99603600D01*
X135101100Y-99603600D01*
X135101100Y-100103600D01*
G37*
G36*
X135101100Y-101103600D02*
G01*
X134151100Y-101103600D01*
X134151100Y-100603600D01*
X135101100Y-100603600D01*
X135101100Y-101103600D01*
G37*
G36*
X135101100Y-99103600D02*
G01*
X134151100Y-99103600D01*
X134151100Y-98603600D01*
X135101100Y-98603600D01*
X135101100Y-99103600D01*
G37*
G36*
X133051100Y-99103600D02*
G01*
X132101100Y-99103600D01*
X132101100Y-98603600D01*
X133051100Y-98603600D01*
X133051100Y-99103600D01*
G37*
%TO.C,U7*%
G36*
X156251100Y-95103600D02*
G01*
X155301100Y-95103600D01*
X155301100Y-94603600D01*
X156251100Y-94603600D01*
X156251100Y-95103600D01*
G37*
G36*
X156251100Y-97103600D02*
G01*
X155301100Y-97103600D01*
X155301100Y-96603600D01*
X156251100Y-96603600D01*
X156251100Y-97103600D01*
G37*
G36*
X156251100Y-96103600D02*
G01*
X155301100Y-96103600D01*
X155301100Y-95603600D01*
X156251100Y-95603600D01*
X156251100Y-96103600D01*
G37*
G36*
X158301100Y-96103600D02*
G01*
X157351100Y-96103600D01*
X157351100Y-95603600D01*
X158301100Y-95603600D01*
X158301100Y-96103600D01*
G37*
G36*
X158301100Y-97103600D02*
G01*
X157351100Y-97103600D01*
X157351100Y-96603600D01*
X158301100Y-96603600D01*
X158301100Y-97103600D01*
G37*
G36*
X158301100Y-95103600D02*
G01*
X157351100Y-95103600D01*
X157351100Y-94603600D01*
X158301100Y-94603600D01*
X158301100Y-95103600D01*
G37*
%TO.C,U8*%
G36*
X160351100Y-104403600D02*
G01*
X159401100Y-104403600D01*
X159401100Y-103903600D01*
X160351100Y-103903600D01*
X160351100Y-104403600D01*
G37*
G36*
X162401100Y-104403600D02*
G01*
X161451100Y-104403600D01*
X161451100Y-103903600D01*
X162401100Y-103903600D01*
X162401100Y-104403600D01*
G37*
G36*
X162401100Y-106403600D02*
G01*
X161451100Y-106403600D01*
X161451100Y-105903600D01*
X162401100Y-105903600D01*
X162401100Y-106403600D01*
G37*
G36*
X160351100Y-105403600D02*
G01*
X159401100Y-105403600D01*
X159401100Y-104903600D01*
X160351100Y-104903600D01*
X160351100Y-105403600D01*
G37*
G36*
X160351100Y-106403600D02*
G01*
X159401100Y-106403600D01*
X159401100Y-105903600D01*
X160351100Y-105903600D01*
X160351100Y-106403600D01*
G37*
G36*
X162401100Y-105403600D02*
G01*
X161451100Y-105403600D01*
X161451100Y-104903600D01*
X162401100Y-104903600D01*
X162401100Y-105403600D01*
G37*
%TD*%
D10*
%TO.C,R6*%
X136201100Y-102253600D03*
X136201100Y-100853600D03*
%TD*%
%TO.C,R4*%
X157801100Y-99953600D03*
X157801100Y-98553600D03*
%TD*%
D11*
%TO.C,R5*%
X159901100Y-100753600D03*
X159901100Y-102153600D03*
%TD*%
M02*
