%TF.GenerationSoftware,KiCad,Pcbnew,(6.0.2)*%
%TF.CreationDate,2022-09-07T19:19:14-04:00*%
%TF.ProjectId,plusz-end-card-with-turnstile-mezzanine,706c7573-7a2d-4656-9e64-2d636172642d,rev?*%
%TF.SameCoordinates,Original*%
%TF.FileFunction,Copper,L4,Bot*%
%TF.FilePolarity,Positive*%
%FSLAX46Y46*%
G04 Gerber Fmt 4.6, Leading zero omitted, Abs format (unit mm)*
G04 Created by KiCad (PCBNEW (6.0.2)) date 2022-09-07 19:19:14*
%MOMM*%
%LPD*%
G01*
G04 APERTURE LIST*
G04 Aperture macros list*
%AMRoundRect*
0 Rectangle with rounded corners*
0 $1 Rounding radius*
0 $2 $3 $4 $5 $6 $7 $8 $9 X,Y pos of 4 corners*
0 Add a 4 corners polygon primitive as box body*
4,1,4,$2,$3,$4,$5,$6,$7,$8,$9,$2,$3,0*
0 Add four circle primitives for the rounded corners*
1,1,$1+$1,$2,$3*
1,1,$1+$1,$4,$5*
1,1,$1+$1,$6,$7*
1,1,$1+$1,$8,$9*
0 Add four rect primitives between the rounded corners*
20,1,$1+$1,$2,$3,$4,$5,0*
20,1,$1+$1,$4,$5,$6,$7,0*
20,1,$1+$1,$6,$7,$8,$9,0*
20,1,$1+$1,$8,$9,$2,$3,0*%
G04 Aperture macros list end*
%TA.AperFunction,SMDPad,CuDef*%
%ADD10RoundRect,0.150000X0.300000X-0.150000X0.300000X0.150000X-0.300000X0.150000X-0.300000X-0.150000X0*%
%TD*%
%TA.AperFunction,SMDPad,CuDef*%
%ADD11RoundRect,0.500000X0.000000X0.000000X0.000000X0.000000X0.000000X0.000000X0.000000X0.000000X0*%
%TD*%
%TA.AperFunction,SMDPad,CuDef*%
%ADD12RoundRect,0.061000X-0.474000X0.244000X-0.474000X-0.244000X0.474000X-0.244000X0.474000X0.244000X0*%
%TD*%
%TA.AperFunction,SMDPad,CuDef*%
%ADD13RoundRect,0.061000X0.474000X-0.244000X0.474000X0.244000X-0.474000X0.244000X-0.474000X-0.244000X0*%
%TD*%
%TA.AperFunction,SMDPad,CuDef*%
%ADD14RoundRect,0.150000X-0.300000X0.150000X-0.300000X-0.150000X0.300000X-0.150000X0.300000X0.150000X0*%
%TD*%
%TA.AperFunction,ViaPad*%
%ADD15C,0.457200*%
%TD*%
%TA.AperFunction,ViaPad*%
%ADD16C,0.583200*%
%TD*%
%TA.AperFunction,Conductor*%
%ADD17C,0.380000*%
%TD*%
G04 APERTURE END LIST*
D10*
%TO.P,R6,1*%
%TO.N,GND*%
X136201100Y-102253600D03*
%TO.P,R6,2*%
%TO.N,N$5*%
X136201100Y-100853600D03*
%TD*%
D11*
%TO.P,FIDUCIAL6,FIDUCIAL*%
%TO.N,N/C*%
X111501100Y-72153600D03*
%TD*%
D12*
%TO.P,U9,1*%
%TO.N,L1BAND-SHORT+1/4WAVE*%
X134626100Y-98863600D03*
%TO.P,U9,2*%
%TO.N,GND*%
X134626100Y-99853600D03*
%TO.P,U9,3*%
%TO.N,N$5*%
X134626100Y-100843600D03*
D13*
%TO.P,U9,4*%
%TO.N,L1BAND_180*%
X132576100Y-100843600D03*
%TO.P,U9,5*%
%TO.N,GND*%
X132576100Y-99853600D03*
%TO.P,U9,6*%
%TO.N,L1BAND_270*%
X132576100Y-98863600D03*
%TD*%
D12*
%TO.P,U7,1*%
%TO.N,L1BAND*%
X157826100Y-94863600D03*
%TO.P,U7,2*%
%TO.N,GND*%
X157826100Y-95853600D03*
%TO.P,U7,3*%
%TO.N,N$1*%
X157826100Y-96843600D03*
D13*
%TO.P,U7,4*%
%TO.N,L1BAND-SHORT*%
X155776100Y-96843600D03*
%TO.P,U7,5*%
%TO.N,GND*%
X155776100Y-95853600D03*
%TO.P,U7,6*%
%TO.N,L1BAND-SHORT+1/4WAVE*%
X155776100Y-94863600D03*
%TD*%
D11*
%TO.P,FIDUCIAL1,FIDUCIAL*%
%TO.N,N/C*%
X111501100Y-138153600D03*
%TD*%
D10*
%TO.P,R4,1*%
%TO.N,GND*%
X157801100Y-99953600D03*
%TO.P,R4,2*%
%TO.N,N$1*%
X157801100Y-98553600D03*
%TD*%
D13*
%TO.P,U8,1*%
%TO.N,L1BAND-SHORT*%
X159876100Y-106143600D03*
%TO.P,U8,2*%
%TO.N,GND*%
X159876100Y-105153600D03*
%TO.P,U8,3*%
%TO.N,N$2*%
X159876100Y-104163600D03*
D12*
%TO.P,U8,4*%
%TO.N,L1BAND_0*%
X161926100Y-104163600D03*
%TO.P,U8,5*%
%TO.N,GND*%
X161926100Y-105153600D03*
%TO.P,U8,6*%
%TO.N,L1BAND_90*%
X161926100Y-106143600D03*
%TD*%
D11*
%TO.P,FIDUCIAL7,FIDUCIAL*%
%TO.N,N/C*%
X185501100Y-72153600D03*
%TD*%
D14*
%TO.P,R5,1*%
%TO.N,GND*%
X159901100Y-100753600D03*
%TO.P,R5,2*%
%TO.N,N$2*%
X159901100Y-102153600D03*
%TD*%
D15*
%TO.N,GND*%
X181301100Y-89153600D03*
X134001100Y-95653600D03*
X159901100Y-99953600D03*
X180951100Y-95103600D03*
X179301100Y-100053600D03*
X160211100Y-122643600D03*
X115101100Y-136253600D03*
X187601100Y-108853600D03*
X167901100Y-92893600D03*
X139081100Y-119633600D03*
X175201100Y-110853600D03*
X116901100Y-120853600D03*
X142901100Y-136653600D03*
X182601100Y-97653600D03*
X142081100Y-122633600D03*
X123101100Y-80753600D03*
X154301100Y-101653600D03*
X119201100Y-135553600D03*
X127601100Y-73253600D03*
X167801100Y-88843600D03*
X180401100Y-75953600D03*
X158001100Y-108653600D03*
X144181100Y-99033600D03*
X146001100Y-86453600D03*
X124301100Y-128053600D03*
X166401100Y-94393600D03*
X114421100Y-116033600D03*
X134101100Y-103553600D03*
X157501100Y-127253600D03*
X129201100Y-81953600D03*
X166201100Y-110853600D03*
X132501100Y-132253600D03*
X131101100Y-101953600D03*
X160201100Y-119653600D03*
X133501100Y-74453600D03*
X125701100Y-128053600D03*
X148901100Y-136653600D03*
X128801100Y-84953600D03*
X126801100Y-112653600D03*
X127601100Y-74653600D03*
X162201100Y-131353600D03*
X128001100Y-80753600D03*
X178601100Y-136253600D03*
X136601100Y-82053600D03*
X157901100Y-136653600D03*
X184401100Y-106853600D03*
X151401100Y-109353600D03*
X160201100Y-110853600D03*
X170501100Y-76553600D03*
X187501100Y-87253600D03*
X156101100Y-70553600D03*
X120361100Y-114293600D03*
X112001100Y-127953600D03*
X166621100Y-81073600D03*
X161401100Y-79453600D03*
X140301100Y-104753600D03*
X130901100Y-98053600D03*
X136081100Y-119633600D03*
X130401100Y-70553600D03*
X128101100Y-111353600D03*
X150701100Y-118153600D03*
X183301100Y-131953600D03*
X163211100Y-127543600D03*
X184501100Y-111853600D03*
X147401100Y-98053600D03*
X182201100Y-128153600D03*
X145901100Y-136653600D03*
X130301100Y-113353600D03*
X135301100Y-85053600D03*
X171801100Y-77853600D03*
X158401100Y-82053600D03*
X130081100Y-122633600D03*
X137501100Y-77253600D03*
X161401100Y-91753600D03*
X152701100Y-119653600D03*
X137501100Y-99053600D03*
X171801100Y-126853600D03*
X163201100Y-113853600D03*
X179501100Y-87153600D03*
X172201100Y-113853600D03*
X156801100Y-95853600D03*
X184501100Y-117853600D03*
X180601100Y-130453600D03*
X125701100Y-78053600D03*
X162901100Y-93743600D03*
X117501100Y-97253600D03*
X154301100Y-100153600D03*
X146101100Y-113453600D03*
X158001100Y-76053600D03*
X152501100Y-132253600D03*
X143201100Y-85053600D03*
X136701100Y-99853600D03*
X126501100Y-97453600D03*
X169201100Y-113853600D03*
X136201100Y-102953600D03*
X182001100Y-81353600D03*
X163201100Y-117653600D03*
X146321100Y-104733600D03*
X134001100Y-92353600D03*
X166901100Y-84753600D03*
X136081100Y-122633600D03*
X187801100Y-100053600D03*
X137001100Y-97153600D03*
X161401100Y-89953600D03*
X158701100Y-122653600D03*
X125401100Y-114053600D03*
X174201100Y-85053600D03*
X153761100Y-104413600D03*
X170801100Y-89993600D03*
X163401100Y-102553600D03*
X146701100Y-71853600D03*
X137481100Y-87273600D03*
X144101100Y-86453600D03*
X151901100Y-136653600D03*
X163501100Y-99153600D03*
X177301100Y-110853600D03*
X148401100Y-81753600D03*
X137501100Y-127253600D03*
X186601100Y-76253600D03*
X169101100Y-76653600D03*
X144101100Y-118153600D03*
X184501100Y-114853600D03*
X151601100Y-116653600D03*
X160001100Y-73853600D03*
X158401100Y-86553600D03*
X187601100Y-114853600D03*
X167501100Y-72253600D03*
X126601100Y-125253600D03*
X160201100Y-115653600D03*
X112501100Y-112253600D03*
X173101100Y-138853600D03*
X160901100Y-139653600D03*
X125701100Y-126653600D03*
X184401100Y-97653600D03*
X134101100Y-77853600D03*
X143401100Y-96653600D03*
X160201100Y-117653600D03*
X130401100Y-75553600D03*
X186301100Y-126553600D03*
X160901100Y-105153600D03*
X168521100Y-83273600D03*
X157001100Y-112853600D03*
X115161100Y-120393600D03*
X166901100Y-139653600D03*
X164401100Y-134153600D03*
X116901100Y-133653600D03*
X179101100Y-78253600D03*
X132401100Y-111253600D03*
X163201100Y-110853600D03*
X109501100Y-139653600D03*
X152301100Y-91253600D03*
X175801100Y-87953600D03*
X116961100Y-117793600D03*
X153501100Y-75053600D03*
X154301100Y-103153600D03*
X160901100Y-96353600D03*
X173101100Y-79253600D03*
X113301100Y-133753600D03*
X154301100Y-98753600D03*
X121801100Y-136453600D03*
X143301100Y-104753600D03*
X161401100Y-77453600D03*
X161401100Y-93553600D03*
X179001100Y-83053600D03*
X160201100Y-123553600D03*
X125381100Y-122233600D03*
X169421100Y-122233600D03*
X158401100Y-88553600D03*
X158401100Y-85053600D03*
X158901100Y-107653600D03*
X157201100Y-97953600D03*
X163211100Y-123543600D03*
X131701100Y-72053600D03*
X146321100Y-107733600D03*
X141001100Y-81953600D03*
X142501100Y-102253600D03*
X158501100Y-97553600D03*
X157801100Y-100753600D03*
X131101100Y-97053600D03*
X134001100Y-85053600D03*
X115201100Y-127953600D03*
X187501100Y-139653600D03*
X184501100Y-95653600D03*
X184501100Y-74353600D03*
X131001100Y-79853600D03*
X151301100Y-94753600D03*
X150541100Y-105393600D03*
X145901100Y-139653600D03*
X187601100Y-93553600D03*
X146401100Y-96653600D03*
X187501100Y-120853600D03*
X161401100Y-85053600D03*
X182661100Y-102353600D03*
X163501100Y-105153600D03*
X122901100Y-107553600D03*
X182501100Y-78253600D03*
X146301100Y-93653600D03*
X181201100Y-112453600D03*
X152661100Y-107513600D03*
X125601100Y-82653600D03*
X133901100Y-136653600D03*
X160501100Y-101453600D03*
X185501100Y-79153600D03*
X155001100Y-105253600D03*
X133501100Y-110153600D03*
X168201100Y-79453600D03*
X125701100Y-76653600D03*
X187601100Y-111853600D03*
X140321100Y-107733600D03*
X131101100Y-90153600D03*
X130901100Y-139753600D03*
X177901100Y-83853600D03*
X158901100Y-104853600D03*
X149121100Y-105333600D03*
X174501100Y-81953600D03*
X165401100Y-91243600D03*
X117501100Y-107253600D03*
X151601100Y-85053600D03*
X129401100Y-114253600D03*
X124901100Y-139753600D03*
X186501100Y-77953600D03*
X134001100Y-89453600D03*
X169101100Y-87543600D03*
X160201100Y-127553600D03*
X183501100Y-106853600D03*
X163211100Y-122643600D03*
X153601100Y-92653600D03*
X112201100Y-121653600D03*
X173101100Y-124053600D03*
X127901100Y-136653600D03*
X187601100Y-117853600D03*
X128041100Y-104913600D03*
X126721100Y-108533600D03*
X182601100Y-106853600D03*
X120501100Y-119953600D03*
X127501100Y-116153600D03*
X128281100Y-123533600D03*
X167501100Y-97253600D03*
X165821100Y-119733600D03*
X134201100Y-86853600D03*
X126981100Y-120633600D03*
X182001100Y-84353600D03*
X158401100Y-79453600D03*
X130301100Y-109153600D03*
X160501100Y-102953600D03*
X155701100Y-119653600D03*
X126701100Y-79553600D03*
X181201100Y-134153600D03*
X165511100Y-122743600D03*
X120701100Y-139453600D03*
X170101100Y-139453600D03*
X117501100Y-87253600D03*
X130081100Y-119633600D03*
X179001100Y-85153600D03*
X180141100Y-102353600D03*
X138801100Y-85753600D03*
X160201100Y-108853600D03*
X148501100Y-118153600D03*
X174601100Y-96053600D03*
X121601100Y-125353600D03*
X177501100Y-77253600D03*
X139901100Y-139753600D03*
X175101100Y-82653600D03*
X166201100Y-113853600D03*
X167821100Y-120633600D03*
X112001100Y-124953600D03*
X164001100Y-97493600D03*
X155881100Y-106533600D03*
X156901100Y-74953600D03*
X148701100Y-91253600D03*
X137001100Y-89353600D03*
X167001100Y-131553600D03*
X169101100Y-126653600D03*
X158801100Y-95853600D03*
X115301100Y-122353600D03*
X157201100Y-103253600D03*
X163721100Y-86973600D03*
X123901100Y-115553600D03*
X184501100Y-120653600D03*
X187101100Y-123553600D03*
X142901100Y-139753600D03*
X122501100Y-92253600D03*
X178201100Y-113853600D03*
X186901100Y-102353600D03*
X175101100Y-84053600D03*
X175701100Y-137853600D03*
X173101100Y-80653600D03*
X183501100Y-97653600D03*
X154501100Y-70253600D03*
X133901100Y-139753600D03*
X171701100Y-80653600D03*
X170301100Y-123153600D03*
X118661100Y-116093600D03*
X112501100Y-102253600D03*
X134001100Y-96853600D03*
X160401100Y-98153600D03*
X161401100Y-87953600D03*
X143201100Y-88253600D03*
X176401100Y-82553600D03*
X139081100Y-122633600D03*
X148401100Y-112453600D03*
X116541100Y-113913600D03*
X160201100Y-113853600D03*
X131101100Y-86953600D03*
X161101100Y-75353600D03*
X124501100Y-81553600D03*
X184781100Y-102353600D03*
X119701100Y-120653600D03*
X154781100Y-109633600D03*
X115601100Y-119353600D03*
X131101100Y-103253600D03*
X158401100Y-77453600D03*
X170501100Y-86143600D03*
X143201100Y-81953600D03*
X154501100Y-74053600D03*
X185401100Y-89053600D03*
X182501100Y-72253600D03*
X148501100Y-113453600D03*
X155701100Y-122653600D03*
X154001100Y-97453600D03*
X158501100Y-72353600D03*
X184501100Y-93553600D03*
X151901100Y-87153600D03*
X173101100Y-125453600D03*
X136901100Y-139753600D03*
X146301100Y-101153600D03*
X151901100Y-139653600D03*
X137301100Y-104753600D03*
X124501100Y-123153600D03*
X122901100Y-77953600D03*
X154901100Y-136653600D03*
X160501100Y-95253600D03*
X131101100Y-95553600D03*
X185201100Y-128953600D03*
X133081100Y-119633600D03*
X112301100Y-130953600D03*
X167501100Y-107253600D03*
X121601100Y-79353600D03*
X167101100Y-130053600D03*
X131101100Y-82053600D03*
X139081100Y-81973600D03*
X134101100Y-75853600D03*
X177501100Y-107253600D03*
X109601100Y-70253600D03*
X172201100Y-110853600D03*
X161801100Y-94893600D03*
X112301100Y-118153600D03*
X173101100Y-135653600D03*
X151401100Y-112453600D03*
X131601100Y-99853600D03*
X146401100Y-122853600D03*
X121101100Y-116653600D03*
X128901100Y-71953600D03*
X142501100Y-132253600D03*
X163001100Y-134053600D03*
X118661100Y-111793600D03*
X157201100Y-101553600D03*
X143401100Y-93653600D03*
X128501100Y-115153600D03*
X182401100Y-108853600D03*
X160711100Y-129843600D03*
X163701100Y-106053600D03*
X138301100Y-100953600D03*
X157201100Y-99253600D03*
X131101100Y-88553600D03*
X148401100Y-122853600D03*
X125321100Y-105933600D03*
X124401100Y-76553600D03*
X149901100Y-93153600D03*
X124301100Y-119353600D03*
X187601100Y-96553600D03*
X131101100Y-85053600D03*
X130901100Y-136653600D03*
X118401100Y-122153600D03*
X133081100Y-122633600D03*
X163901100Y-136653600D03*
X163401100Y-101053600D03*
X179201100Y-104753600D03*
X148401100Y-109353600D03*
X187801100Y-105453600D03*
X151701100Y-82053600D03*
X160201100Y-125553600D03*
X155101100Y-82053600D03*
X187201100Y-91253600D03*
X119801100Y-122153600D03*
X131101100Y-77853600D03*
X152401100Y-72153600D03*
X186501100Y-74453600D03*
X184501100Y-108853600D03*
X146401100Y-91253600D03*
X154801100Y-95853600D03*
X147401100Y-91253600D03*
X184301100Y-122753600D03*
X136901100Y-136653600D03*
X158701100Y-119653600D03*
X133601100Y-99853600D03*
X175701100Y-134553600D03*
X172101100Y-88693600D03*
X155001100Y-85053600D03*
X131701100Y-70653600D03*
X115301100Y-124653600D03*
X124901100Y-71053600D03*
X126401100Y-117253600D03*
X173601100Y-87993600D03*
X152701100Y-122653600D03*
X126701100Y-83753600D03*
X178601100Y-132553600D03*
X125301100Y-87253600D03*
X179301100Y-97753600D03*
X154901100Y-139653600D03*
X118501100Y-117053600D03*
X182501100Y-122253600D03*
X148701100Y-86453600D03*
X148421100Y-103273600D03*
X117601100Y-138153600D03*
X171701100Y-124053600D03*
X142081100Y-119633600D03*
X143321100Y-107733600D03*
X140901100Y-85053600D03*
X158401100Y-93053600D03*
X137001100Y-94053600D03*
X182501100Y-74853600D03*
X165801100Y-132853600D03*
X164401100Y-129053600D03*
X153001100Y-95753600D03*
X134101100Y-104753600D03*
X151601100Y-114053600D03*
X134001100Y-94053600D03*
X164201100Y-85053600D03*
X179401100Y-108553600D03*
X170601100Y-133053600D03*
X170301100Y-81553600D03*
X151641100Y-102293600D03*
X163101100Y-132653600D03*
X143201100Y-90553600D03*
X169001100Y-128053600D03*
X123201100Y-123953600D03*
X157201100Y-107253600D03*
X148901100Y-139653600D03*
X112501100Y-77253600D03*
X127901100Y-139753600D03*
X129101100Y-74653600D03*
X137001100Y-92353600D03*
X183501100Y-125553600D03*
X177101100Y-123953600D03*
X173001100Y-83253600D03*
X112501100Y-92253600D03*
X170001100Y-136453600D03*
X147401100Y-122853600D03*
X182501100Y-92253600D03*
X169401100Y-91393600D03*
X151901100Y-89253600D03*
X157501100Y-71153600D03*
X122281100Y-112373600D03*
X121701100Y-80653600D03*
X164201100Y-82053600D03*
X124901100Y-136653600D03*
X139901100Y-136653600D03*
X163901100Y-139653600D03*
X179001100Y-80653600D03*
X123001100Y-126853600D03*
X177801100Y-86753600D03*
X132601100Y-73353600D03*
X165701100Y-129953600D03*
X157901100Y-139653600D03*
X164901100Y-95893600D03*
X158401100Y-90653600D03*
X187501100Y-77253600D03*
X150801100Y-107053600D03*
X175201100Y-113853600D03*
X131101100Y-91853600D03*
X124601100Y-110053600D03*
X131101100Y-104753600D03*
X122601100Y-119953600D03*
X131101100Y-107753600D03*
X131201100Y-112453600D03*
X163211100Y-125543600D03*
X134101100Y-79853600D03*
X184501100Y-78153600D03*
X136401100Y-98553600D03*
X176501100Y-91453600D03*
X129201100Y-110253600D03*
X134021100Y-107733600D03*
X187501100Y-70353600D03*
X121601100Y-124053600D03*
X147401100Y-113453600D03*
X166901100Y-136653600D03*
X155801100Y-73853600D03*
X117501100Y-82253600D03*
X115901100Y-70853600D03*
X134001100Y-91053600D03*
X172301100Y-85193600D03*
X155701100Y-93253600D03*
X177501100Y-117253600D03*
X115501100Y-130953600D03*
X183301100Y-91153600D03*
X149521100Y-100173600D03*
X163201100Y-108853600D03*
X147401100Y-81753600D03*
X122601100Y-116553600D03*
X138601100Y-72253600D03*
X168201100Y-125253600D03*
X166911100Y-123943600D03*
X137321100Y-107733600D03*
X183301100Y-86953600D03*
X134101100Y-82053600D03*
X120781100Y-109673600D03*
X169201100Y-110853600D03*
X146401100Y-81753600D03*
X146201100Y-118153600D03*
X163201100Y-119653600D03*
X166601100Y-90043600D03*
X134101100Y-102453600D03*
X112501100Y-82253600D03*
X125301100Y-118353600D03*
X164151100Y-92493600D03*
X163201100Y-115653600D03*
X161401100Y-82053600D03*
X163701100Y-103853600D03*
X131101100Y-93653600D03*
X137001100Y-95653600D03*
X185501100Y-73353600D03*
X152501100Y-74053600D03*
X137001100Y-90953600D03*
X135601100Y-99853600D03*
X169101100Y-78053600D03*
X142701100Y-112953600D03*
X152501100Y-70153600D03*
X125601100Y-132453600D03*
X170501100Y-128153600D03*
X160901100Y-136653600D03*
D16*
%TO.N,L1BAND*%
X156201100Y-72153600D03*
%TO.N,L1BAND_0*%
X175201100Y-86553600D03*
%TO.N,L1BAND_90*%
X163201100Y-130153600D03*
%TO.N,L1BAND_180*%
X119601100Y-118153600D03*
%TO.N,L1BAND_270*%
X131601100Y-74553600D03*
%TD*%
D17*
%TO.N,GND*%
X159101100Y-105153600D02*
X158001100Y-104053600D01*
X136651100Y-99803600D02*
X137601100Y-98853600D01*
X157826100Y-95853600D02*
X160401100Y-95853600D01*
X132576100Y-99853600D02*
X134626100Y-99853600D01*
X137601100Y-98853600D02*
X138401100Y-98853600D01*
X154801100Y-95853600D02*
X155776100Y-95853600D01*
X161926100Y-105153600D02*
X163901100Y-105153600D01*
X134626100Y-99853600D02*
X136701100Y-99853600D01*
X159876100Y-105153600D02*
X159101100Y-105153600D01*
X157826100Y-95853600D02*
X155776100Y-95853600D01*
X132576100Y-99853600D02*
X130301100Y-99853600D01*
X154801100Y-95853600D02*
X154101100Y-95853600D01*
X136701100Y-99853600D02*
X136651100Y-99803600D01*
X161926100Y-105153600D02*
X159876100Y-105153600D01*
%TO.N,N$1*%
X157826100Y-96843600D02*
X157826100Y-98328600D01*
X157826100Y-98328600D02*
X157801100Y-98553600D01*
%TO.N,N$2*%
X159876100Y-104163600D02*
X159876100Y-102378600D01*
X159876100Y-102378600D02*
X159901100Y-102153600D01*
%TO.N,N$5*%
X134626100Y-100843600D02*
X136191100Y-100843600D01*
X136191100Y-100843600D02*
X136201100Y-100853600D01*
%TO.N,L1BAND*%
X159883990Y-76420976D02*
X159901100Y-76682029D01*
X158411887Y-94863600D02*
X158411887Y-94863600D01*
X159315312Y-75267813D02*
X159487806Y-75464504D01*
X158411887Y-94863600D02*
X158606977Y-94844385D01*
X159118993Y-94570707D02*
X159608206Y-94081494D01*
X159824979Y-93757071D02*
X159901100Y-93374388D01*
X158794570Y-94787479D02*
X159118993Y-94570707D01*
X159748859Y-75916660D02*
X159832952Y-76164390D01*
X159608206Y-94081494D02*
X159732569Y-93929958D01*
X159901100Y-76682029D02*
X159901100Y-93374388D01*
X159315312Y-75267813D02*
X159315312Y-75267813D01*
X159633150Y-75682027D02*
X159748859Y-75916660D01*
X158606977Y-94844385D02*
X158794570Y-94787479D01*
X156201100Y-72153600D02*
X159315312Y-75267813D01*
X159487806Y-75464504D02*
X159633150Y-75682027D01*
X159832952Y-76164390D02*
X159883990Y-76420976D01*
X159608206Y-94081494D02*
X159608206Y-94081494D01*
X159732569Y-93929958D02*
X159824979Y-93757071D01*
X157826100Y-94863600D02*
X158411887Y-94863600D01*
%TO.N,L1BAND-SHORT*%
X155795315Y-103709479D02*
X155852221Y-103897071D01*
X155776100Y-96843600D02*
X155776100Y-103514388D01*
X155776100Y-103514388D02*
X155776100Y-103514389D01*
X157698206Y-105850708D02*
X157849743Y-105975070D01*
X155776100Y-103514389D02*
X155795315Y-103709479D01*
X157698206Y-105850707D02*
X157698206Y-105850708D01*
X155852221Y-103897071D02*
X156068993Y-104221494D01*
X157849743Y-105975070D02*
X158022629Y-106067480D01*
X156068993Y-104221494D02*
X157698206Y-105850707D01*
X158022629Y-106067480D02*
X158405312Y-106143600D01*
X158405312Y-106143600D02*
X159876100Y-106143600D01*
%TO.N,L1BAND-SHORT+1/4WAVE*%
X150723141Y-91349988D02*
X150583056Y-90905694D01*
X135511100Y-96953600D02*
X135491385Y-97153771D01*
X155741100Y-94863600D02*
X155741100Y-94863600D01*
X146901100Y-83483600D02*
X141111100Y-83483600D01*
X148324678Y-83786191D02*
X147982659Y-83654902D01*
X153071100Y-94148176D02*
X152678202Y-93897872D01*
X150482227Y-90450881D02*
X150421420Y-89989012D01*
X150098509Y-85560022D02*
X149932189Y-85233600D01*
X149932189Y-85233600D02*
X149732659Y-84926352D01*
X150583056Y-90905694D02*
X150482227Y-90450881D01*
X134626100Y-98863600D02*
X134626100Y-98863600D01*
X140648656Y-83502727D02*
X140189370Y-83559977D01*
X151650423Y-92956086D02*
X151366828Y-92586498D01*
X153914712Y-94541559D02*
X153484318Y-94363284D01*
X135982769Y-86834106D02*
X135814523Y-87265283D01*
X148958348Y-84152041D02*
X148651100Y-83952511D01*
X150401100Y-86983600D02*
X150381927Y-86617750D01*
X155741100Y-94863600D02*
X155275688Y-94843280D01*
X134783981Y-98205982D02*
X135050365Y-97839335D01*
X154359006Y-94681644D02*
X153914712Y-94541559D01*
X150229798Y-85902041D02*
X150098509Y-85560022D01*
X135511100Y-89083600D02*
X135511100Y-96953600D01*
X149502107Y-84641643D02*
X149243057Y-84382593D01*
X150421420Y-89989012D02*
X150401100Y-89523600D01*
X141111100Y-83483600D02*
X141111100Y-83483600D01*
X135587477Y-88161870D02*
X135511100Y-89083600D01*
X151116524Y-92193600D02*
X150901416Y-91780382D01*
X135682459Y-87708881D02*
X135587477Y-88161870D01*
X148651100Y-83952511D02*
X148324678Y-83786191D01*
X151366828Y-92586498D02*
X151116524Y-92193600D01*
X135511100Y-96953600D02*
X135511100Y-96953600D01*
X135432997Y-97346250D02*
X135210578Y-97679122D01*
X150381927Y-86617750D02*
X150324617Y-86255909D01*
X134643934Y-98637000D02*
X134696997Y-98415980D01*
X155776100Y-94863600D02*
X155741100Y-94863600D01*
X150401100Y-89523600D02*
X150401100Y-86983600D01*
X135210578Y-97679122D02*
X135118600Y-97771100D01*
X136422968Y-86020690D02*
X136186047Y-86418295D01*
X140189370Y-83559977D02*
X139736381Y-83654959D01*
X138445795Y-84158547D02*
X138048190Y-84395468D01*
X139292783Y-83787023D02*
X138861606Y-83955269D01*
X137318323Y-84963546D02*
X136991046Y-85290823D01*
X152678202Y-93897872D02*
X152308614Y-93614277D01*
X136991046Y-85290823D02*
X136691913Y-85644009D01*
X139736381Y-83654959D02*
X139292783Y-83787023D01*
X152308614Y-93614277D02*
X151965150Y-93299550D01*
X141111100Y-83483600D02*
X140648656Y-83502727D01*
X134696997Y-98415980D02*
X134783981Y-98205982D01*
X150401100Y-86983600D02*
X150401100Y-86983600D01*
X147982659Y-83654902D02*
X147628791Y-83560083D01*
X153484318Y-94363284D02*
X153071100Y-94148176D01*
X149243057Y-84382593D02*
X148958348Y-84152041D01*
X134626100Y-98863600D02*
X134643934Y-98637000D01*
X150324617Y-86255909D02*
X150229798Y-85902041D01*
X136186047Y-86418295D02*
X135982769Y-86834106D01*
X150901416Y-91780382D02*
X150723141Y-91349988D01*
X136691913Y-85644009D02*
X136422968Y-86020690D01*
X138048190Y-84395468D02*
X137671509Y-84664413D01*
X155275688Y-94843280D02*
X154813819Y-94782473D01*
X135050365Y-97839335D02*
X135118600Y-97771100D01*
X135814523Y-87265283D02*
X135682459Y-87708881D01*
X135491385Y-97153771D02*
X135432997Y-97346250D01*
X138861606Y-83955269D02*
X138445795Y-84158547D01*
X137671509Y-84664413D02*
X137318323Y-84963546D01*
X147628791Y-83560083D02*
X147266950Y-83502773D01*
X149732659Y-84926352D02*
X149502107Y-84641643D01*
X151965150Y-93299550D02*
X151650423Y-92956086D01*
X147266950Y-83502773D02*
X146901100Y-83483600D01*
X154813819Y-94782473D02*
X154359006Y-94681644D01*
%TO.N,L1BAND_0*%
X172794739Y-86574355D02*
X172447656Y-86674348D01*
X162427368Y-96502053D02*
X162641546Y-96144719D01*
X173511468Y-86493600D02*
X173511469Y-86493600D01*
X171797819Y-86987293D02*
X171503238Y-87196309D01*
X171233912Y-87436994D02*
X163169493Y-95501413D01*
X171503238Y-87196309D02*
X171233912Y-87436994D01*
X162007670Y-97675034D02*
X162108896Y-97270913D01*
X173150836Y-86513852D02*
X172794739Y-86574355D01*
X172447656Y-86674348D02*
X172113950Y-86812573D01*
X162108896Y-97270913D02*
X162249246Y-96878660D01*
X162889718Y-95810098D02*
X163169493Y-95501413D01*
X173511469Y-86493600D02*
X173150836Y-86513852D01*
X162641546Y-96144719D02*
X162889718Y-95810098D01*
X162249246Y-96878660D02*
X162427368Y-96502053D01*
X161926100Y-98503234D02*
X161946541Y-98087130D01*
X161926100Y-98503235D02*
X161926100Y-98503234D01*
X161926100Y-104163600D02*
X161926100Y-98503235D01*
X172113950Y-86812573D02*
X171797819Y-86987293D01*
X161946541Y-98087130D02*
X162007670Y-97675034D01*
X175141100Y-86493600D02*
X173511468Y-86493600D01*
X175201100Y-86553600D02*
X175141100Y-86493600D01*
%TO.N,L1BAND_90*%
X161896100Y-106143600D02*
X161706100Y-106333600D01*
X161926100Y-106143600D02*
X161896100Y-106143600D01*
X161756708Y-128295462D02*
X161814421Y-128530855D01*
X161707306Y-124259807D02*
X161709840Y-124262341D01*
X161736196Y-128053966D02*
X161756708Y-128295462D01*
X161736196Y-128053966D02*
X161736196Y-128053966D01*
X162192528Y-129145029D02*
X163201100Y-130153600D01*
X161907939Y-128754451D02*
X162192528Y-129145029D01*
X161706100Y-114524807D02*
X161707306Y-114523600D01*
X161814421Y-128530855D02*
X161907939Y-128754451D01*
X161709840Y-124262341D02*
X161736196Y-128053966D01*
X161706100Y-106333600D02*
X161706100Y-114524807D01*
X161707306Y-114523600D02*
X161707306Y-124259807D01*
%TO.N,L1BAND_180*%
X131668142Y-109859318D02*
X131901979Y-109544026D01*
X122496934Y-118153600D02*
X122781853Y-118134926D01*
X123061896Y-118079222D02*
X123332273Y-117987441D01*
X132576100Y-107321747D02*
X132576100Y-100843600D01*
X132499241Y-108102108D02*
X132576100Y-107321747D01*
X119601100Y-118153600D02*
X122496934Y-118153600D01*
X132271618Y-108852479D02*
X132403861Y-108482885D01*
X131901979Y-109544026D02*
X132103785Y-109207332D01*
X131404528Y-110150172D02*
X131404528Y-110150172D01*
X124040440Y-117514260D02*
X131404528Y-110150172D01*
X123332273Y-117987441D02*
X123588357Y-117861155D01*
X122781853Y-118134926D02*
X123061896Y-118079222D01*
X122496934Y-118153600D02*
X122496934Y-118153600D01*
X123588357Y-117861155D02*
X124040440Y-117514260D01*
X132403861Y-108482885D02*
X132499241Y-108102108D01*
X132103785Y-109207332D02*
X132271618Y-108852479D01*
X131404528Y-110150172D02*
X131668142Y-109859318D01*
%TO.N,L1BAND_270*%
X132308150Y-75340499D02*
X131990312Y-74926285D01*
X132576100Y-76340500D02*
X132576100Y-76340500D01*
X132576100Y-76340500D02*
X132558990Y-76079448D01*
X131601100Y-74553600D02*
X131617628Y-74553600D01*
X132423858Y-75575133D02*
X132308150Y-75340499D01*
X132576100Y-98863600D02*
X132576100Y-76340500D01*
X132558990Y-76079448D02*
X132507951Y-75822862D01*
X132507951Y-75822862D02*
X132423858Y-75575133D01*
X131990312Y-74926285D02*
X131617628Y-74553600D01*
%TD*%
%TA.AperFunction,Conductor*%
%TO.N,GND*%
G36*
X186481777Y-69454382D02*
G01*
X186500742Y-69458743D01*
X186504118Y-69457979D01*
X186504119Y-69457979D01*
X186514099Y-69455721D01*
X186522896Y-69455029D01*
X186656798Y-69463805D01*
X186734039Y-69468867D01*
X186738020Y-69469392D01*
X186851511Y-69491966D01*
X186964997Y-69514540D01*
X186968882Y-69515581D01*
X187188020Y-69589969D01*
X187191736Y-69591508D01*
X187399289Y-69693861D01*
X187402773Y-69695872D01*
X187595197Y-69824446D01*
X187598388Y-69826895D01*
X187772377Y-69979479D01*
X187775221Y-69982323D01*
X187927805Y-70156312D01*
X187930254Y-70159503D01*
X188058828Y-70351927D01*
X188060839Y-70355411D01*
X188163192Y-70562964D01*
X188164731Y-70566680D01*
X188239119Y-70785818D01*
X188240160Y-70789703D01*
X188285308Y-71016676D01*
X188285833Y-71020664D01*
X188299646Y-71231413D01*
X188298930Y-71240312D01*
X188295957Y-71253242D01*
X188296721Y-71256618D01*
X188296721Y-71256619D01*
X188300342Y-71272621D01*
X188301100Y-71279407D01*
X188301100Y-138727387D01*
X188300318Y-138734277D01*
X188295957Y-138753242D01*
X188296721Y-138756618D01*
X188296721Y-138756619D01*
X188298979Y-138766599D01*
X188299671Y-138775396D01*
X188285833Y-138986536D01*
X188285308Y-138990524D01*
X188240160Y-139217497D01*
X188239119Y-139221382D01*
X188164731Y-139440520D01*
X188163192Y-139444236D01*
X188060839Y-139651789D01*
X188058828Y-139655273D01*
X187930254Y-139847697D01*
X187927805Y-139850888D01*
X187775221Y-140024877D01*
X187772377Y-140027721D01*
X187598388Y-140180305D01*
X187595197Y-140182754D01*
X187402773Y-140311328D01*
X187399289Y-140313339D01*
X187191736Y-140415692D01*
X187188020Y-140417231D01*
X186968882Y-140491619D01*
X186964997Y-140492660D01*
X186851510Y-140515234D01*
X186738020Y-140537808D01*
X186734039Y-140538333D01*
X186523286Y-140552146D01*
X186514388Y-140551430D01*
X186501458Y-140548457D01*
X186498082Y-140549221D01*
X186498081Y-140549221D01*
X186482079Y-140552842D01*
X186475293Y-140553600D01*
X110527313Y-140553600D01*
X110520422Y-140552818D01*
X110501458Y-140548457D01*
X110498082Y-140549221D01*
X110498081Y-140549221D01*
X110488101Y-140551479D01*
X110479304Y-140552171D01*
X110345402Y-140543395D01*
X110268161Y-140538333D01*
X110264180Y-140537808D01*
X110150690Y-140515234D01*
X110037203Y-140492660D01*
X110033318Y-140491619D01*
X109814180Y-140417231D01*
X109810464Y-140415692D01*
X109602911Y-140313339D01*
X109599427Y-140311328D01*
X109407003Y-140182754D01*
X109403812Y-140180305D01*
X109229823Y-140027721D01*
X109226979Y-140024877D01*
X109074395Y-139850888D01*
X109071946Y-139847697D01*
X108943372Y-139655273D01*
X108941361Y-139651789D01*
X108839008Y-139444236D01*
X108837469Y-139440520D01*
X108763081Y-139221382D01*
X108762040Y-139217497D01*
X108716892Y-138990524D01*
X108716367Y-138986536D01*
X108707683Y-138854035D01*
X108702554Y-138775786D01*
X108703270Y-138766888D01*
X108706243Y-138753958D01*
X108701858Y-138734579D01*
X108701100Y-138727793D01*
X108701100Y-138097607D01*
X110800600Y-138097607D01*
X110800601Y-138209592D01*
X110807271Y-138282194D01*
X110857973Y-138443983D01*
X110858931Y-138445566D01*
X110858933Y-138445569D01*
X110901888Y-138516495D01*
X110945803Y-138589008D01*
X111065692Y-138708897D01*
X111133343Y-138749868D01*
X111209131Y-138795767D01*
X111209134Y-138795769D01*
X111210717Y-138796727D01*
X111298013Y-138824084D01*
X111370954Y-138846943D01*
X111370957Y-138846944D01*
X111372506Y-138847429D01*
X111374127Y-138847578D01*
X111374138Y-138847579D01*
X111445107Y-138854100D01*
X111501060Y-138854100D01*
X111557092Y-138854099D01*
X111557798Y-138854034D01*
X111557801Y-138854034D01*
X111628065Y-138847579D01*
X111628068Y-138847578D01*
X111629694Y-138847429D01*
X111791483Y-138796727D01*
X111793066Y-138795769D01*
X111793069Y-138795767D01*
X111868857Y-138749868D01*
X111936508Y-138708897D01*
X112056397Y-138589008D01*
X112100312Y-138516495D01*
X112143267Y-138445569D01*
X112143269Y-138445566D01*
X112144227Y-138443983D01*
X112194929Y-138282194D01*
X112201600Y-138209593D01*
X112201599Y-138097608D01*
X112194929Y-138025006D01*
X112144227Y-137863217D01*
X112143269Y-137861634D01*
X112143267Y-137861631D01*
X112100312Y-137790704D01*
X112056397Y-137718192D01*
X111936508Y-137598303D01*
X111863996Y-137554388D01*
X111793069Y-137511433D01*
X111793066Y-137511431D01*
X111791483Y-137510473D01*
X111704187Y-137483116D01*
X111631246Y-137460257D01*
X111631243Y-137460256D01*
X111629694Y-137459771D01*
X111628073Y-137459622D01*
X111557800Y-137453165D01*
X111557801Y-137453165D01*
X111557093Y-137453100D01*
X111501140Y-137453100D01*
X111445108Y-137453101D01*
X111444402Y-137453166D01*
X111444399Y-137453166D01*
X111374135Y-137459621D01*
X111374132Y-137459622D01*
X111372506Y-137459771D01*
X111210717Y-137510473D01*
X111209134Y-137511431D01*
X111209131Y-137511433D01*
X111138205Y-137554388D01*
X111065692Y-137598303D01*
X110945803Y-137718192D01*
X110901888Y-137790705D01*
X110858933Y-137861631D01*
X110858931Y-137861634D01*
X110857973Y-137863217D01*
X110807271Y-138025006D01*
X110800600Y-138097607D01*
X108701100Y-138097607D01*
X108701100Y-129509461D01*
X117368151Y-129509461D01*
X117402519Y-129853777D01*
X117476233Y-130191861D01*
X117476521Y-130192701D01*
X117476522Y-130192706D01*
X117509595Y-130289304D01*
X117588317Y-130519233D01*
X117737286Y-130831552D01*
X117737764Y-130832314D01*
X117920691Y-131123926D01*
X117920696Y-131123934D01*
X117921164Y-131124679D01*
X118137515Y-131394729D01*
X118138148Y-131395355D01*
X118138153Y-131395361D01*
X118208021Y-131464501D01*
X118383471Y-131638123D01*
X118384174Y-131638674D01*
X118384176Y-131638676D01*
X118461675Y-131699443D01*
X118655772Y-131851634D01*
X118656518Y-131852091D01*
X118656525Y-131852096D01*
X118742425Y-131904735D01*
X118950809Y-132032432D01*
X118951598Y-132032798D01*
X118951605Y-132032802D01*
X119263868Y-132177750D01*
X119263872Y-132177752D01*
X119264670Y-132178122D01*
X119265504Y-132178398D01*
X119265512Y-132178401D01*
X119509843Y-132259205D01*
X119593197Y-132286772D01*
X119932035Y-132356942D01*
X119932907Y-132357020D01*
X119932915Y-132357021D01*
X120235657Y-132384040D01*
X120235664Y-132384040D01*
X120236333Y-132384100D01*
X120459289Y-132384100D01*
X120460330Y-132384040D01*
X120715670Y-132369317D01*
X120715671Y-132369317D01*
X120716553Y-132369266D01*
X120717422Y-132369114D01*
X120717425Y-132369114D01*
X120833200Y-132348908D01*
X121057428Y-132309774D01*
X121058273Y-132309524D01*
X121058276Y-132309523D01*
X121223317Y-132260636D01*
X121389206Y-132211497D01*
X121390013Y-132211153D01*
X121390018Y-132211151D01*
X121502860Y-132163019D01*
X121707489Y-132075738D01*
X122008059Y-131904296D01*
X122286932Y-131699443D01*
X122540412Y-131463895D01*
X122765138Y-131200774D01*
X122815806Y-131125373D01*
X122957640Y-130914300D01*
X122958133Y-130913567D01*
X123116839Y-130606082D01*
X123239150Y-130282393D01*
X123323448Y-129946790D01*
X123331485Y-129885745D01*
X123368497Y-129604608D01*
X123368497Y-129604602D01*
X123368613Y-129603724D01*
X123374049Y-129257739D01*
X123339681Y-128913423D01*
X123276369Y-128623049D01*
X123266157Y-128576210D01*
X123266157Y-128576208D01*
X123265967Y-128575339D01*
X123262232Y-128564428D01*
X123207971Y-128405946D01*
X123153883Y-128247967D01*
X123147411Y-128234397D01*
X123060210Y-128051579D01*
X123004914Y-127935648D01*
X122953466Y-127853633D01*
X122821509Y-127643274D01*
X122821504Y-127643266D01*
X122821036Y-127642521D01*
X122669682Y-127453600D01*
X144401100Y-127453600D01*
X144446677Y-127974545D01*
X144476217Y-128084791D01*
X144557691Y-128388854D01*
X144582022Y-128479660D01*
X144803024Y-128953600D01*
X145102967Y-129381963D01*
X145472737Y-129751733D01*
X145901100Y-130051676D01*
X146375040Y-130272678D01*
X146376336Y-130273025D01*
X146376338Y-130273026D01*
X146681783Y-130354869D01*
X146880155Y-130408023D01*
X147401100Y-130453600D01*
X147922045Y-130408023D01*
X148120417Y-130354869D01*
X148425862Y-130273026D01*
X148425864Y-130273025D01*
X148427160Y-130272678D01*
X148901100Y-130051676D01*
X149329463Y-129751733D01*
X149699233Y-129381963D01*
X149999176Y-128953600D01*
X150220178Y-128479660D01*
X150244510Y-128388854D01*
X150325983Y-128084791D01*
X150355523Y-127974545D01*
X150401100Y-127453600D01*
X150355523Y-126932655D01*
X150220178Y-126427540D01*
X150206373Y-126397934D01*
X149999742Y-125954814D01*
X149999176Y-125953600D01*
X149699233Y-125525237D01*
X149329463Y-125155467D01*
X148901100Y-124855524D01*
X148427160Y-124634522D01*
X148425864Y-124634175D01*
X148425862Y-124634174D01*
X147923347Y-124499526D01*
X147923348Y-124499526D01*
X147922045Y-124499177D01*
X147401100Y-124453600D01*
X146880155Y-124499177D01*
X146878852Y-124499526D01*
X146878853Y-124499526D01*
X146376338Y-124634174D01*
X146376336Y-124634175D01*
X146375040Y-124634522D01*
X145901100Y-124855524D01*
X145472737Y-125155467D01*
X145102967Y-125525237D01*
X144803024Y-125953600D01*
X144802458Y-125954814D01*
X144595828Y-126397934D01*
X144582022Y-126427540D01*
X144446677Y-126932655D01*
X144401100Y-127453600D01*
X122669682Y-127453600D01*
X122604685Y-127372471D01*
X122604052Y-127371845D01*
X122604047Y-127371839D01*
X122359367Y-127129708D01*
X122359364Y-127129705D01*
X122358729Y-127129077D01*
X122281302Y-127068366D01*
X122087127Y-126916114D01*
X122087126Y-126916113D01*
X122086428Y-126915566D01*
X122085682Y-126915109D01*
X122085675Y-126915104D01*
X121792140Y-126735227D01*
X121791391Y-126734768D01*
X121790602Y-126734402D01*
X121790595Y-126734398D01*
X121478332Y-126589450D01*
X121478328Y-126589448D01*
X121477530Y-126589078D01*
X121476696Y-126588802D01*
X121476688Y-126588799D01*
X121232357Y-126507995D01*
X121149003Y-126480428D01*
X120810165Y-126410258D01*
X120809293Y-126410180D01*
X120809285Y-126410179D01*
X120506543Y-126383160D01*
X120506536Y-126383160D01*
X120505867Y-126383100D01*
X120282911Y-126383100D01*
X120282478Y-126383125D01*
X120282477Y-126383125D01*
X120026530Y-126397883D01*
X120026529Y-126397883D01*
X120025647Y-126397934D01*
X120024778Y-126398086D01*
X120024775Y-126398086D01*
X119909000Y-126418292D01*
X119684772Y-126457426D01*
X119683927Y-126457676D01*
X119683924Y-126457677D01*
X119518883Y-126506564D01*
X119352994Y-126555703D01*
X119352187Y-126556047D01*
X119352182Y-126556049D01*
X119275401Y-126588799D01*
X119034711Y-126691462D01*
X118734141Y-126862904D01*
X118455268Y-127067757D01*
X118201788Y-127303305D01*
X117977062Y-127566426D01*
X117976575Y-127567151D01*
X117976571Y-127567156D01*
X117925928Y-127642521D01*
X117784067Y-127853633D01*
X117625361Y-128161118D01*
X117503050Y-128484807D01*
X117418752Y-128820410D01*
X117418636Y-128821288D01*
X117418636Y-128821290D01*
X117393290Y-129013817D01*
X117373587Y-129163476D01*
X117368151Y-129509461D01*
X108701100Y-129509461D01*
X108701100Y-118147526D01*
X119103977Y-118147526D01*
X119122254Y-118287296D01*
X119179025Y-118416318D01*
X119269727Y-118524221D01*
X119271554Y-118525437D01*
X119271556Y-118525439D01*
X119385240Y-118601113D01*
X119387067Y-118602329D01*
X119389159Y-118602983D01*
X119389160Y-118602983D01*
X119519526Y-118643713D01*
X119521613Y-118644365D01*
X119571464Y-118645279D01*
X119660361Y-118646908D01*
X119660362Y-118646908D01*
X119662550Y-118646948D01*
X119664662Y-118646372D01*
X119664664Y-118646372D01*
X119796431Y-118610448D01*
X119796433Y-118610447D01*
X119798546Y-118609871D01*
X119898262Y-118548645D01*
X119914353Y-118544100D01*
X122477619Y-118544100D01*
X122480433Y-118544229D01*
X122490606Y-118545164D01*
X122490607Y-118545164D01*
X122491804Y-118545274D01*
X122508709Y-118544166D01*
X122510720Y-118544100D01*
X122527669Y-118544100D01*
X122538948Y-118542314D01*
X122541744Y-118542001D01*
X122801887Y-118524951D01*
X122802689Y-118524909D01*
X122827891Y-118523919D01*
X122830958Y-118523309D01*
X122834948Y-118522784D01*
X122836857Y-118522659D01*
X122836858Y-118522659D01*
X122838061Y-118522580D01*
X122839229Y-118522316D01*
X122839234Y-118522315D01*
X122862680Y-118517009D01*
X122863468Y-118516842D01*
X122993366Y-118491004D01*
X123132663Y-118463296D01*
X123133431Y-118463153D01*
X123158315Y-118458878D01*
X123159464Y-118458488D01*
X123161270Y-118457875D01*
X123165160Y-118456832D01*
X123167041Y-118456458D01*
X123168223Y-118456223D01*
X123169354Y-118455806D01*
X123169360Y-118455804D01*
X123191884Y-118447494D01*
X123192643Y-118447225D01*
X123452565Y-118358993D01*
X123453331Y-118358744D01*
X123464632Y-118355235D01*
X123477421Y-118351264D01*
X123478508Y-118350728D01*
X123480231Y-118349879D01*
X123483943Y-118348342D01*
X123485748Y-118347729D01*
X123485752Y-118347727D01*
X123486899Y-118347338D01*
X123509214Y-118335597D01*
X123509932Y-118335231D01*
X123708814Y-118237154D01*
X123716810Y-118234498D01*
X123717956Y-118234286D01*
X123717959Y-118234285D01*
X123720333Y-118233845D01*
X123722457Y-118232692D01*
X123767414Y-118208283D01*
X123768485Y-118207729D01*
X123787544Y-118198329D01*
X123787549Y-118198326D01*
X123788636Y-118197790D01*
X123793455Y-118194385D01*
X123796514Y-118192483D01*
X123801694Y-118189670D01*
X123819512Y-118175998D01*
X123820482Y-118175283D01*
X123862265Y-118145754D01*
X123862266Y-118145753D01*
X123864240Y-118144358D01*
X123866384Y-118141487D01*
X123872303Y-118135490D01*
X124273779Y-117827428D01*
X124274423Y-117826947D01*
X124293862Y-117812823D01*
X124293864Y-117812821D01*
X124294832Y-117812118D01*
X124297045Y-117809905D01*
X124300069Y-117807254D01*
X124301582Y-117806093D01*
X124302545Y-117805354D01*
X124319895Y-117787071D01*
X124320455Y-117786495D01*
X131664552Y-110442398D01*
X131667023Y-110440182D01*
X131672283Y-110435951D01*
X131672291Y-110435944D01*
X131673229Y-110435189D01*
X131674035Y-110434299D01*
X131674041Y-110434294D01*
X131686912Y-110420092D01*
X131687952Y-110418998D01*
X131724387Y-110382563D01*
X131726972Y-110377491D01*
X131731585Y-110370804D01*
X131949144Y-110130763D01*
X131950399Y-110129457D01*
X131962617Y-110117477D01*
X131962622Y-110117471D01*
X131963485Y-110116625D01*
X131969475Y-110108548D01*
X131971379Y-110106230D01*
X131977308Y-110099688D01*
X131978124Y-110098788D01*
X131988152Y-110083456D01*
X131989187Y-110081970D01*
X132009416Y-110054695D01*
X132208242Y-109786610D01*
X132209363Y-109785190D01*
X132220344Y-109772075D01*
X132220353Y-109772062D01*
X132221121Y-109771145D01*
X132226284Y-109762531D01*
X132227954Y-109760032D01*
X132233219Y-109752933D01*
X132233940Y-109751961D01*
X132242425Y-109735706D01*
X132243310Y-109734126D01*
X132432342Y-109418743D01*
X132433318Y-109417218D01*
X132442972Y-109403072D01*
X132443652Y-109402076D01*
X132447951Y-109392987D01*
X132449365Y-109390342D01*
X132453907Y-109382764D01*
X132453908Y-109382763D01*
X132454529Y-109381726D01*
X132461371Y-109364740D01*
X132462095Y-109363083D01*
X132619321Y-109030657D01*
X132620143Y-109029044D01*
X132623432Y-109023034D01*
X132628937Y-109012973D01*
X132632322Y-109003512D01*
X132633472Y-109000736D01*
X132637767Y-108991655D01*
X132642922Y-108974038D01*
X132643473Y-108972345D01*
X132767350Y-108626133D01*
X132768010Y-108624446D01*
X132774714Y-108608702D01*
X132774716Y-108608697D01*
X132775190Y-108607583D01*
X132775487Y-108606399D01*
X132777630Y-108597844D01*
X132778506Y-108594957D01*
X132781477Y-108586653D01*
X132781479Y-108586647D01*
X132781888Y-108585503D01*
X132785287Y-108567497D01*
X132785675Y-108565729D01*
X132877504Y-108199122D01*
X132877578Y-108198829D01*
X132884544Y-108172137D01*
X132884545Y-108172134D01*
X132884848Y-108170971D01*
X132884967Y-108169763D01*
X132885048Y-108169307D01*
X132885061Y-108169248D01*
X132885067Y-108169212D01*
X132885121Y-108168898D01*
X132885127Y-108168863D01*
X132885133Y-108168818D01*
X132885212Y-108168352D01*
X132885506Y-108167178D01*
X132888037Y-108138611D01*
X132888063Y-108138330D01*
X132963503Y-107372374D01*
X132963734Y-107370578D01*
X132966410Y-107353680D01*
X132966600Y-107352482D01*
X132966600Y-107342440D01*
X132966748Y-107339426D01*
X132967614Y-107330636D01*
X132967614Y-107330634D01*
X132967732Y-107329436D01*
X132966653Y-107311139D01*
X132966600Y-107309329D01*
X132966600Y-102440916D01*
X135574101Y-102440916D01*
X135574232Y-102442916D01*
X135580062Y-102487206D01*
X135581364Y-102491673D01*
X135627969Y-102591618D01*
X135631004Y-102595952D01*
X135708748Y-102673696D01*
X135713082Y-102676731D01*
X135813026Y-102723336D01*
X135817495Y-102724638D01*
X135861786Y-102730469D01*
X135863782Y-102730600D01*
X136106483Y-102730600D01*
X136110808Y-102728808D01*
X136112600Y-102724483D01*
X136112600Y-102724482D01*
X136289600Y-102724482D01*
X136291392Y-102728807D01*
X136295717Y-102730599D01*
X136538416Y-102730599D01*
X136540416Y-102730468D01*
X136584706Y-102724638D01*
X136589173Y-102723336D01*
X136689118Y-102676731D01*
X136693452Y-102673696D01*
X136771196Y-102595952D01*
X136774231Y-102591618D01*
X136820836Y-102491674D01*
X136822138Y-102487205D01*
X136827969Y-102442914D01*
X136828100Y-102440918D01*
X136828100Y-102348217D01*
X136826308Y-102343892D01*
X136821983Y-102342100D01*
X136295717Y-102342100D01*
X136291392Y-102343892D01*
X136289600Y-102348217D01*
X136289600Y-102724482D01*
X136112600Y-102724482D01*
X136112600Y-102348217D01*
X136110808Y-102343892D01*
X136106483Y-102342100D01*
X135580218Y-102342100D01*
X135575893Y-102343892D01*
X135574101Y-102348217D01*
X135574101Y-102440916D01*
X132966600Y-102440916D01*
X132966600Y-102158983D01*
X135574100Y-102158983D01*
X135575892Y-102163308D01*
X135580217Y-102165100D01*
X136106483Y-102165100D01*
X136110808Y-102163308D01*
X136112600Y-102158983D01*
X136289600Y-102158983D01*
X136291392Y-102163308D01*
X136295717Y-102165100D01*
X136821982Y-102165100D01*
X136826307Y-102163308D01*
X136828099Y-102158983D01*
X136828099Y-102066284D01*
X136827968Y-102064284D01*
X136822138Y-102019994D01*
X136820836Y-102015527D01*
X136774231Y-101915582D01*
X136771196Y-101911248D01*
X136693452Y-101833504D01*
X136689118Y-101830469D01*
X136589174Y-101783864D01*
X136584705Y-101782562D01*
X136540414Y-101776731D01*
X136538418Y-101776600D01*
X136295717Y-101776600D01*
X136291392Y-101778392D01*
X136289600Y-101782717D01*
X136289600Y-102158983D01*
X136112600Y-102158983D01*
X136112600Y-101782718D01*
X136110808Y-101778393D01*
X136106483Y-101776601D01*
X135863784Y-101776601D01*
X135861784Y-101776732D01*
X135817494Y-101782562D01*
X135813027Y-101783864D01*
X135713082Y-101830469D01*
X135708748Y-101833504D01*
X135631004Y-101911248D01*
X135627969Y-101915582D01*
X135581364Y-102015526D01*
X135580062Y-102019995D01*
X135574231Y-102064286D01*
X135574100Y-102066282D01*
X135574100Y-102158983D01*
X132966600Y-102158983D01*
X132966600Y-101379850D01*
X132975606Y-101358106D01*
X132997350Y-101349100D01*
X133075856Y-101349100D01*
X133077338Y-101348805D01*
X133077340Y-101348805D01*
X133149161Y-101334519D01*
X133152132Y-101333928D01*
X133238631Y-101276131D01*
X133296428Y-101189632D01*
X133311600Y-101113356D01*
X133890600Y-101113356D01*
X133905772Y-101189632D01*
X133963569Y-101276131D01*
X134050068Y-101333928D01*
X134053039Y-101334519D01*
X134124860Y-101348805D01*
X134124862Y-101348805D01*
X134126344Y-101349100D01*
X135125856Y-101349100D01*
X135127338Y-101348805D01*
X135127340Y-101348805D01*
X135199161Y-101334519D01*
X135202132Y-101333928D01*
X135288631Y-101276131D01*
X135307584Y-101247766D01*
X135327153Y-101234691D01*
X135333152Y-101234100D01*
X135623133Y-101234100D01*
X135644858Y-101243088D01*
X135694750Y-101292893D01*
X135799582Y-101344136D01*
X135801945Y-101344481D01*
X135801946Y-101344481D01*
X135831586Y-101348805D01*
X135867882Y-101354100D01*
X136534318Y-101354100D01*
X136535430Y-101353936D01*
X136535434Y-101353936D01*
X136600844Y-101344307D01*
X136600846Y-101344306D01*
X136603212Y-101343958D01*
X136639129Y-101326324D01*
X136705672Y-101293653D01*
X136707955Y-101292532D01*
X136790393Y-101209950D01*
X136841636Y-101105118D01*
X136843606Y-101091618D01*
X136851440Y-101037914D01*
X136851600Y-101036818D01*
X136851600Y-100670382D01*
X136851436Y-100669266D01*
X136841807Y-100603856D01*
X136841806Y-100603854D01*
X136841458Y-100601488D01*
X136799254Y-100515527D01*
X136791153Y-100499028D01*
X136790032Y-100496745D01*
X136707450Y-100414307D01*
X136602618Y-100363064D01*
X136600255Y-100362719D01*
X136600254Y-100362719D01*
X136565517Y-100357651D01*
X136534318Y-100353100D01*
X135867882Y-100353100D01*
X135866770Y-100353264D01*
X135866766Y-100353264D01*
X135801356Y-100362893D01*
X135801354Y-100362894D01*
X135798988Y-100363242D01*
X135796842Y-100364296D01*
X135796841Y-100364296D01*
X135771514Y-100376731D01*
X135694245Y-100414668D01*
X135692447Y-100416469D01*
X135664889Y-100444075D01*
X135643127Y-100453100D01*
X135333152Y-100453100D01*
X135311408Y-100444094D01*
X135307584Y-100439434D01*
X135291036Y-100414668D01*
X135288631Y-100411069D01*
X135218631Y-100364296D01*
X135212256Y-100360036D01*
X135199181Y-100340467D01*
X135203772Y-100317384D01*
X135212256Y-100308900D01*
X135269170Y-100270872D01*
X135273372Y-100266670D01*
X135322609Y-100192981D01*
X135324882Y-100187492D01*
X135337805Y-100122526D01*
X135338100Y-100119529D01*
X135338100Y-99948217D01*
X135336308Y-99943892D01*
X135331983Y-99942100D01*
X133920217Y-99942100D01*
X133915892Y-99943892D01*
X133914100Y-99948217D01*
X133914100Y-100119529D01*
X133914395Y-100122526D01*
X133927318Y-100187492D01*
X133929591Y-100192981D01*
X133978828Y-100266670D01*
X133983030Y-100270872D01*
X134039944Y-100308900D01*
X134053019Y-100328469D01*
X134048428Y-100351552D01*
X134039944Y-100360036D01*
X134033569Y-100364296D01*
X133963569Y-100411069D01*
X133905772Y-100497568D01*
X133905181Y-100500539D01*
X133892502Y-100564284D01*
X133890600Y-100573844D01*
X133890600Y-101113356D01*
X133311600Y-101113356D01*
X133311600Y-100573844D01*
X133309699Y-100564284D01*
X133297019Y-100500539D01*
X133296428Y-100497568D01*
X133238631Y-100411069D01*
X133168631Y-100364296D01*
X133162256Y-100360036D01*
X133149181Y-100340467D01*
X133153772Y-100317384D01*
X133162256Y-100308900D01*
X133219170Y-100270872D01*
X133223372Y-100266670D01*
X133272609Y-100192981D01*
X133274882Y-100187492D01*
X133287805Y-100122526D01*
X133288100Y-100119529D01*
X133288100Y-99948217D01*
X133286308Y-99943892D01*
X133281983Y-99942100D01*
X131870217Y-99942100D01*
X131865892Y-99943892D01*
X131864100Y-99948217D01*
X131864100Y-100119529D01*
X131864395Y-100122526D01*
X131877318Y-100187492D01*
X131879591Y-100192981D01*
X131928828Y-100266670D01*
X131933030Y-100270872D01*
X131989944Y-100308900D01*
X132003019Y-100328469D01*
X131998428Y-100351552D01*
X131989944Y-100360036D01*
X131983569Y-100364296D01*
X131913569Y-100411069D01*
X131855772Y-100497568D01*
X131855181Y-100500539D01*
X131842502Y-100564284D01*
X131840600Y-100573844D01*
X131840600Y-101113356D01*
X131855772Y-101189632D01*
X131913569Y-101276131D01*
X132000068Y-101333928D01*
X132003039Y-101334519D01*
X132074860Y-101348805D01*
X132074862Y-101348805D01*
X132076344Y-101349100D01*
X132154850Y-101349100D01*
X132176594Y-101358106D01*
X132185600Y-101379850D01*
X132185600Y-107301052D01*
X132185452Y-107304065D01*
X132180683Y-107352482D01*
X132113667Y-108032911D01*
X132112893Y-108037369D01*
X132030093Y-108367924D01*
X132029221Y-108370802D01*
X131910912Y-108701453D01*
X131909769Y-108704212D01*
X131768211Y-109003512D01*
X131759623Y-109021669D01*
X131758200Y-109024331D01*
X131577680Y-109325511D01*
X131576008Y-109328015D01*
X131509850Y-109417218D01*
X131366813Y-109610081D01*
X131364898Y-109612413D01*
X131122146Y-109880250D01*
X131121106Y-109881344D01*
X123783836Y-117218614D01*
X123780811Y-117221266D01*
X123383551Y-117526094D01*
X123378432Y-117529277D01*
X123184322Y-117625001D01*
X123180606Y-117626540D01*
X122962521Y-117700570D01*
X122958636Y-117701611D01*
X122949240Y-117703480D01*
X122732743Y-117746543D01*
X122728762Y-117747068D01*
X122485156Y-117763034D01*
X122483145Y-117763100D01*
X119912549Y-117763100D01*
X119895824Y-117758154D01*
X119811473Y-117703480D01*
X119811471Y-117703479D01*
X119809635Y-117702289D01*
X119733157Y-117679418D01*
X119676686Y-117662529D01*
X119676684Y-117662529D01*
X119674585Y-117661901D01*
X119604615Y-117661474D01*
X119535824Y-117661053D01*
X119535821Y-117661053D01*
X119533628Y-117661040D01*
X119398094Y-117699775D01*
X119396245Y-117700942D01*
X119396242Y-117700943D01*
X119280733Y-117773825D01*
X119280731Y-117773827D01*
X119278881Y-117774994D01*
X119185570Y-117880648D01*
X119184637Y-117882634D01*
X119184637Y-117882635D01*
X119126594Y-118006262D01*
X119126593Y-118006265D01*
X119125664Y-118008244D01*
X119103977Y-118147526D01*
X108701100Y-118147526D01*
X108701100Y-102353600D01*
X119301100Y-102353600D01*
X119346677Y-102874545D01*
X119482022Y-103379660D01*
X119703024Y-103853600D01*
X120002967Y-104281963D01*
X120372737Y-104651733D01*
X120801100Y-104951676D01*
X121275040Y-105172678D01*
X121276336Y-105173025D01*
X121276338Y-105173026D01*
X121556956Y-105248217D01*
X121780155Y-105308023D01*
X122301100Y-105353600D01*
X122822045Y-105308023D01*
X123045244Y-105248217D01*
X123325862Y-105173026D01*
X123325864Y-105173025D01*
X123327160Y-105172678D01*
X123801100Y-104951676D01*
X124229463Y-104651733D01*
X124599233Y-104281963D01*
X124899176Y-103853600D01*
X125120178Y-103379660D01*
X125255523Y-102874545D01*
X125301100Y-102353600D01*
X125255523Y-101832655D01*
X125202369Y-101634283D01*
X125120526Y-101328838D01*
X125120525Y-101328836D01*
X125120178Y-101327540D01*
X125103854Y-101292532D01*
X124963561Y-100991674D01*
X124899176Y-100853600D01*
X124599233Y-100425237D01*
X124229463Y-100055467D01*
X123801100Y-99755524D01*
X123327160Y-99534522D01*
X123325864Y-99534175D01*
X123325862Y-99534174D01*
X122976377Y-99440530D01*
X122822045Y-99399177D01*
X122301100Y-99353600D01*
X121780155Y-99399177D01*
X121625823Y-99440530D01*
X121276338Y-99534174D01*
X121276336Y-99534175D01*
X121275040Y-99534522D01*
X120801100Y-99755524D01*
X120372737Y-100055467D01*
X120002967Y-100425237D01*
X119703024Y-100853600D01*
X119638639Y-100991674D01*
X119498347Y-101292532D01*
X119482022Y-101327540D01*
X119481675Y-101328836D01*
X119481674Y-101328838D01*
X119399831Y-101634283D01*
X119346677Y-101832655D01*
X119301100Y-102353600D01*
X108701100Y-102353600D01*
X108701100Y-75449461D01*
X117368151Y-75449461D01*
X117402519Y-75793777D01*
X117476233Y-76131861D01*
X117476521Y-76132701D01*
X117476522Y-76132706D01*
X117521394Y-76263767D01*
X117588317Y-76459233D01*
X117737286Y-76771552D01*
X117737764Y-76772314D01*
X117920691Y-77063926D01*
X117920696Y-77063934D01*
X117921164Y-77064679D01*
X118137515Y-77334729D01*
X118138148Y-77335355D01*
X118138153Y-77335361D01*
X118208021Y-77404501D01*
X118383471Y-77578123D01*
X118384174Y-77578674D01*
X118384176Y-77578676D01*
X118635638Y-77775847D01*
X118655772Y-77791634D01*
X118656518Y-77792091D01*
X118656525Y-77792096D01*
X118742425Y-77844735D01*
X118950809Y-77972432D01*
X118951598Y-77972798D01*
X118951605Y-77972802D01*
X119263868Y-78117750D01*
X119263872Y-78117752D01*
X119264670Y-78118122D01*
X119265504Y-78118398D01*
X119265512Y-78118401D01*
X119509843Y-78199205D01*
X119593197Y-78226772D01*
X119932035Y-78296942D01*
X119932907Y-78297020D01*
X119932915Y-78297021D01*
X120235657Y-78324040D01*
X120235664Y-78324040D01*
X120236333Y-78324100D01*
X120459289Y-78324100D01*
X120460330Y-78324040D01*
X120715670Y-78309317D01*
X120715671Y-78309317D01*
X120716553Y-78309266D01*
X120717422Y-78309114D01*
X120717425Y-78309114D01*
X120886188Y-78279660D01*
X121057428Y-78249774D01*
X121058273Y-78249524D01*
X121058276Y-78249523D01*
X121223317Y-78200635D01*
X121389206Y-78151497D01*
X121390013Y-78151153D01*
X121390018Y-78151151D01*
X121502860Y-78103019D01*
X121707489Y-78015738D01*
X122008059Y-77844296D01*
X122286932Y-77639443D01*
X122540412Y-77403895D01*
X122765138Y-77140774D01*
X122815806Y-77065373D01*
X122957640Y-76854300D01*
X122958133Y-76853567D01*
X123116839Y-76546082D01*
X123239150Y-76222393D01*
X123323448Y-75886790D01*
X123335352Y-75796367D01*
X123368497Y-75544608D01*
X123368497Y-75544602D01*
X123368613Y-75543724D01*
X123374049Y-75197739D01*
X123339681Y-74853423D01*
X123272985Y-74547526D01*
X131103977Y-74547526D01*
X131104262Y-74549702D01*
X131120368Y-74672871D01*
X131122254Y-74687296D01*
X131179025Y-74816318D01*
X131269727Y-74924221D01*
X131271554Y-74925437D01*
X131271556Y-74925439D01*
X131383520Y-74999968D01*
X131387067Y-75002329D01*
X131389159Y-75002983D01*
X131389160Y-75002983D01*
X131519525Y-75043713D01*
X131519527Y-75043713D01*
X131521613Y-75044365D01*
X131544380Y-75044782D01*
X131565560Y-75053783D01*
X131694663Y-75182886D01*
X131697315Y-75185911D01*
X131926476Y-75484558D01*
X131973090Y-75545307D01*
X131976273Y-75550426D01*
X132061417Y-75723083D01*
X132062956Y-75726799D01*
X132129300Y-75922242D01*
X132130341Y-75926127D01*
X132163661Y-76093629D01*
X132170607Y-76128550D01*
X132171132Y-76132535D01*
X132177358Y-76227540D01*
X132183357Y-76319072D01*
X132183045Y-76325892D01*
X132181111Y-76338107D01*
X132180732Y-76340500D01*
X132181111Y-76342891D01*
X132185221Y-76368842D01*
X132185600Y-76373652D01*
X132185600Y-98327350D01*
X132176594Y-98349094D01*
X132154850Y-98358100D01*
X132076344Y-98358100D01*
X132074862Y-98358395D01*
X132074860Y-98358395D01*
X132020107Y-98369286D01*
X132000068Y-98373272D01*
X131913569Y-98431069D01*
X131855772Y-98517568D01*
X131840600Y-98593844D01*
X131840600Y-99133356D01*
X131855772Y-99209632D01*
X131913569Y-99296131D01*
X131916088Y-99297814D01*
X131916089Y-99297815D01*
X131989944Y-99347164D01*
X132003019Y-99366733D01*
X131998428Y-99389816D01*
X131989944Y-99398300D01*
X131933030Y-99436328D01*
X131928828Y-99440530D01*
X131879591Y-99514219D01*
X131877318Y-99519708D01*
X131864395Y-99584674D01*
X131864100Y-99587671D01*
X131864100Y-99758983D01*
X131865892Y-99763308D01*
X131870217Y-99765100D01*
X133281983Y-99765100D01*
X133286308Y-99763308D01*
X133288100Y-99758983D01*
X133288100Y-99587671D01*
X133287805Y-99584674D01*
X133274882Y-99519708D01*
X133272609Y-99514219D01*
X133223372Y-99440530D01*
X133219170Y-99436328D01*
X133162256Y-99398300D01*
X133149181Y-99378731D01*
X133153772Y-99355648D01*
X133162256Y-99347164D01*
X133236111Y-99297815D01*
X133236112Y-99297814D01*
X133238631Y-99296131D01*
X133296428Y-99209632D01*
X133311600Y-99133356D01*
X133890600Y-99133356D01*
X133905772Y-99209632D01*
X133963569Y-99296131D01*
X133966088Y-99297814D01*
X133966089Y-99297815D01*
X134039944Y-99347164D01*
X134053019Y-99366733D01*
X134048428Y-99389816D01*
X134039944Y-99398300D01*
X133983030Y-99436328D01*
X133978828Y-99440530D01*
X133929591Y-99514219D01*
X133927318Y-99519708D01*
X133914395Y-99584674D01*
X133914100Y-99587671D01*
X133914100Y-99758983D01*
X133915892Y-99763308D01*
X133920217Y-99765100D01*
X135331983Y-99765100D01*
X135336308Y-99763308D01*
X135338100Y-99758983D01*
X135338100Y-99587671D01*
X135337805Y-99584674D01*
X135324882Y-99519708D01*
X135322609Y-99514219D01*
X135273372Y-99440530D01*
X135269170Y-99436328D01*
X135212256Y-99398300D01*
X135199181Y-99378731D01*
X135203772Y-99355648D01*
X135212256Y-99347164D01*
X135286111Y-99297815D01*
X135286112Y-99297814D01*
X135288631Y-99296131D01*
X135346428Y-99209632D01*
X135361600Y-99133356D01*
X135361600Y-98593844D01*
X135346428Y-98517568D01*
X135288631Y-98431069D01*
X135202132Y-98373272D01*
X135199161Y-98372681D01*
X135196365Y-98371523D01*
X135196637Y-98370867D01*
X135179863Y-98359657D01*
X135175275Y-98336573D01*
X135180556Y-98324502D01*
X135346797Y-98095690D01*
X135349930Y-98092020D01*
X135445505Y-97996445D01*
X135452224Y-97991360D01*
X135453236Y-97990793D01*
X135455347Y-97989611D01*
X135491703Y-97950282D01*
X135492539Y-97949411D01*
X135508436Y-97933514D01*
X135509141Y-97932543D01*
X135509145Y-97932539D01*
X135511895Y-97928754D01*
X135514192Y-97925954D01*
X135517371Y-97922515D01*
X135518191Y-97921628D01*
X135518861Y-97920626D01*
X135518866Y-97920619D01*
X135530684Y-97902931D01*
X135531343Y-97901984D01*
X135562853Y-97858615D01*
X135563960Y-97855209D01*
X135567636Y-97847628D01*
X135733920Y-97598767D01*
X135736956Y-97594223D01*
X135740357Y-97589996D01*
X135744025Y-97586182D01*
X135757357Y-97572316D01*
X135771700Y-97542744D01*
X135773791Y-97539097D01*
X135774761Y-97537646D01*
X135775266Y-97536552D01*
X135775272Y-97536540D01*
X135785908Y-97513467D01*
X135786166Y-97512921D01*
X135797231Y-97490109D01*
X135797232Y-97490107D01*
X135797760Y-97489018D01*
X135798266Y-97487351D01*
X135799766Y-97483404D01*
X135812507Y-97455768D01*
X135812507Y-97455766D01*
X135813520Y-97453570D01*
X135816403Y-97429209D01*
X135817514Y-97423897D01*
X135848156Y-97322885D01*
X135851684Y-97315232D01*
X135852313Y-97314250D01*
X135852314Y-97314248D01*
X135853616Y-97312214D01*
X135867148Y-97260358D01*
X135867471Y-97259211D01*
X135873640Y-97238878D01*
X135873641Y-97238872D01*
X135873992Y-97237716D01*
X135874798Y-97231883D01*
X135875503Y-97228337D01*
X135876992Y-97222633D01*
X135879193Y-97200281D01*
X135879335Y-97199082D01*
X135880642Y-97189632D01*
X135886676Y-97146009D01*
X135886251Y-97143630D01*
X135886251Y-97143627D01*
X135886046Y-97142482D01*
X135885715Y-97134061D01*
X135887754Y-97113356D01*
X155040600Y-97113356D01*
X155040895Y-97114838D01*
X155040895Y-97114840D01*
X155055113Y-97186320D01*
X155055772Y-97189632D01*
X155113569Y-97276131D01*
X155200068Y-97333928D01*
X155203039Y-97334519D01*
X155274860Y-97348805D01*
X155274862Y-97348805D01*
X155276344Y-97349100D01*
X155354850Y-97349100D01*
X155376594Y-97358106D01*
X155385600Y-97379850D01*
X155385600Y-103501971D01*
X155385547Y-103503781D01*
X155384468Y-103522078D01*
X155384586Y-103523276D01*
X155384586Y-103523278D01*
X155385452Y-103532068D01*
X155385600Y-103535082D01*
X155385600Y-103545124D01*
X155385790Y-103546322D01*
X155388466Y-103563220D01*
X155388697Y-103565016D01*
X155400984Y-103689774D01*
X155400654Y-103698188D01*
X155400024Y-103701718D01*
X155404432Y-103733588D01*
X155407364Y-103754788D01*
X155407504Y-103755973D01*
X155409708Y-103778342D01*
X155411197Y-103784049D01*
X155411899Y-103787582D01*
X155412708Y-103793425D01*
X155413058Y-103794578D01*
X155419227Y-103814915D01*
X155419553Y-103816069D01*
X155433084Y-103867922D01*
X155434386Y-103869956D01*
X155434387Y-103869958D01*
X155435016Y-103870940D01*
X155438544Y-103878593D01*
X155467702Y-103974714D01*
X155468813Y-103980024D01*
X155471697Y-104004390D01*
X155472711Y-104006589D01*
X155485454Y-104034233D01*
X155486952Y-104038173D01*
X155487106Y-104038679D01*
X155487458Y-104039839D01*
X155487986Y-104040927D01*
X155499044Y-104063726D01*
X155499302Y-104064272D01*
X155509947Y-104087362D01*
X155510456Y-104088466D01*
X155511127Y-104089470D01*
X155511128Y-104089472D01*
X155511427Y-104089919D01*
X155513526Y-104093584D01*
X155527861Y-104123138D01*
X155529542Y-104124886D01*
X155544858Y-104140816D01*
X155548260Y-104145044D01*
X155711935Y-104390001D01*
X155715612Y-104397583D01*
X155716718Y-104400987D01*
X155748224Y-104444352D01*
X155748884Y-104445299D01*
X155760706Y-104462993D01*
X155760711Y-104463000D01*
X155761379Y-104463999D01*
X155762196Y-104464882D01*
X155762197Y-104464884D01*
X155765381Y-104468328D01*
X155767675Y-104471124D01*
X155771135Y-104475886D01*
X155787031Y-104491782D01*
X155787867Y-104492653D01*
X155824223Y-104531982D01*
X155826334Y-104533164D01*
X155827346Y-104533731D01*
X155834065Y-104538816D01*
X157378346Y-106083097D01*
X157378347Y-106083099D01*
X157413301Y-106118053D01*
X157414543Y-106119371D01*
X157426718Y-106133072D01*
X157434474Y-106139437D01*
X157436711Y-106141463D01*
X157465815Y-106170567D01*
X157480235Y-106177914D01*
X157485774Y-106181537D01*
X157556975Y-106239970D01*
X157562691Y-106246154D01*
X157564740Y-106249094D01*
X157566673Y-106250557D01*
X157607464Y-106281436D01*
X157608397Y-106282171D01*
X157625772Y-106296430D01*
X157630861Y-106299413D01*
X157633866Y-106301421D01*
X157638556Y-106304971D01*
X157639621Y-106305540D01*
X157658345Y-106315548D01*
X157659398Y-106316138D01*
X157700538Y-106340250D01*
X157705645Y-106343243D01*
X157708012Y-106343762D01*
X157708014Y-106343763D01*
X157709147Y-106344012D01*
X157717051Y-106346928D01*
X157805636Y-106394278D01*
X157810177Y-106397248D01*
X157827547Y-106410941D01*
X157829445Y-106412437D01*
X157835959Y-106414840D01*
X157860269Y-106423809D01*
X157864113Y-106425534D01*
X157865654Y-106426358D01*
X157866793Y-106426753D01*
X157890788Y-106435074D01*
X157891356Y-106435278D01*
X157915157Y-106444059D01*
X157915162Y-106444060D01*
X157916302Y-106444481D01*
X157918019Y-106444822D01*
X157922082Y-106445925D01*
X157953124Y-106456690D01*
X157955539Y-106456737D01*
X157955542Y-106456738D01*
X157977649Y-106457172D01*
X157983044Y-106457757D01*
X158123396Y-106485674D01*
X158271990Y-106515231D01*
X158279947Y-106517992D01*
X158283137Y-106519617D01*
X158328187Y-106526752D01*
X158336050Y-106527998D01*
X158337240Y-106528210D01*
X158359274Y-106532593D01*
X158363943Y-106532776D01*
X158365158Y-106532824D01*
X158368762Y-106533179D01*
X158373381Y-106533911D01*
X158373387Y-106533911D01*
X158374577Y-106534100D01*
X158397041Y-106534100D01*
X158398248Y-106534124D01*
X158451782Y-106536227D01*
X158454109Y-106535571D01*
X158454115Y-106535570D01*
X158455232Y-106535255D01*
X158463579Y-106534100D01*
X159169048Y-106534100D01*
X159190792Y-106543106D01*
X159194616Y-106547766D01*
X159213569Y-106576131D01*
X159300068Y-106633928D01*
X159303039Y-106634519D01*
X159374860Y-106648805D01*
X159374862Y-106648805D01*
X159376344Y-106649100D01*
X160375856Y-106649100D01*
X160377338Y-106648805D01*
X160377340Y-106648805D01*
X160449161Y-106634519D01*
X160452132Y-106633928D01*
X160538631Y-106576131D01*
X160596428Y-106489632D01*
X160602971Y-106456738D01*
X160611305Y-106414840D01*
X160611305Y-106414838D01*
X160611600Y-106413356D01*
X161190600Y-106413356D01*
X161190895Y-106414838D01*
X161190895Y-106414840D01*
X161199229Y-106456738D01*
X161205772Y-106489632D01*
X161263569Y-106576131D01*
X161266088Y-106577814D01*
X161301934Y-106601766D01*
X161315009Y-106621335D01*
X161315600Y-106627334D01*
X161315600Y-114462975D01*
X161315593Y-114463065D01*
X161315575Y-114463120D01*
X161315600Y-114523756D01*
X161315600Y-114555542D01*
X161315609Y-114555601D01*
X161315613Y-114555697D01*
X161315626Y-114586818D01*
X161316375Y-114589119D01*
X161316425Y-114589436D01*
X161316806Y-114594260D01*
X161316806Y-124321656D01*
X161317553Y-124323954D01*
X161318337Y-124326367D01*
X161319840Y-124335653D01*
X161345464Y-128022055D01*
X161345088Y-128027071D01*
X161340828Y-128053966D01*
X161341207Y-128056359D01*
X161341207Y-128056360D01*
X161345710Y-128084791D01*
X161345913Y-128086449D01*
X161345919Y-128087415D01*
X161346117Y-128088610D01*
X161346117Y-128088612D01*
X161348209Y-128101248D01*
X161348512Y-128103664D01*
X161367571Y-128328070D01*
X161370122Y-128358599D01*
X161370187Y-128358864D01*
X161370210Y-128359136D01*
X161377550Y-128388896D01*
X161434959Y-128623049D01*
X161442302Y-128653177D01*
X161442409Y-128653433D01*
X161442473Y-128653694D01*
X161442928Y-128654777D01*
X161442929Y-128654781D01*
X161454199Y-128681622D01*
X161454199Y-128681668D01*
X161454215Y-128681661D01*
X161528274Y-128858731D01*
X161530268Y-128865738D01*
X161532090Y-128877141D01*
X161550639Y-128913423D01*
X161552910Y-128917866D01*
X161553888Y-128919972D01*
X161559539Y-128933483D01*
X161560175Y-128934512D01*
X161560176Y-128934515D01*
X161566765Y-128945185D01*
X161567980Y-128947343D01*
X161574233Y-128959573D01*
X161574949Y-128960555D01*
X161582840Y-128971385D01*
X161584148Y-128973333D01*
X161608183Y-129012253D01*
X161610027Y-129013817D01*
X161616991Y-129019724D01*
X161621952Y-129025065D01*
X161876727Y-129374725D01*
X161894670Y-129399421D01*
X161894860Y-129399611D01*
X161895021Y-129399832D01*
X161895852Y-129400661D01*
X161895854Y-129400663D01*
X161916850Y-129421602D01*
X161916880Y-129421631D01*
X162705794Y-130210544D01*
X162714540Y-130228301D01*
X162721501Y-130281535D01*
X162722254Y-130287296D01*
X162730803Y-130306724D01*
X162775427Y-130408140D01*
X162779025Y-130416318D01*
X162869727Y-130524221D01*
X162871554Y-130525437D01*
X162871556Y-130525439D01*
X162985240Y-130601113D01*
X162987067Y-130602329D01*
X162989159Y-130602983D01*
X162989160Y-130602983D01*
X163119526Y-130643713D01*
X163121613Y-130644365D01*
X163171464Y-130645279D01*
X163260361Y-130646908D01*
X163260362Y-130646908D01*
X163262550Y-130646948D01*
X163264662Y-130646372D01*
X163264664Y-130646372D01*
X163396431Y-130610448D01*
X163396433Y-130610447D01*
X163398546Y-130609871D01*
X163518670Y-130536115D01*
X163613264Y-130431608D01*
X163674725Y-130304753D01*
X163698112Y-130165747D01*
X163698260Y-130153600D01*
X163678277Y-130014064D01*
X163619934Y-129885745D01*
X163527921Y-129778958D01*
X163526083Y-129777766D01*
X163526081Y-129777765D01*
X163411473Y-129703480D01*
X163411471Y-129703479D01*
X163409635Y-129702289D01*
X163274585Y-129661901D01*
X163272391Y-129661888D01*
X163270230Y-129661565D01*
X163270417Y-129660310D01*
X163252644Y-129652894D01*
X163109211Y-129509461D01*
X171428151Y-129509461D01*
X171462519Y-129853777D01*
X171536233Y-130191861D01*
X171536521Y-130192701D01*
X171536522Y-130192706D01*
X171569595Y-130289304D01*
X171648317Y-130519233D01*
X171797286Y-130831552D01*
X171797764Y-130832314D01*
X171980691Y-131123926D01*
X171980696Y-131123934D01*
X171981164Y-131124679D01*
X172197515Y-131394729D01*
X172198148Y-131395355D01*
X172198153Y-131395361D01*
X172268021Y-131464501D01*
X172443471Y-131638123D01*
X172444174Y-131638674D01*
X172444176Y-131638676D01*
X172521675Y-131699443D01*
X172715772Y-131851634D01*
X172716518Y-131852091D01*
X172716525Y-131852096D01*
X172802425Y-131904735D01*
X173010809Y-132032432D01*
X173011598Y-132032798D01*
X173011605Y-132032802D01*
X173323868Y-132177750D01*
X173323872Y-132177752D01*
X173324670Y-132178122D01*
X173325504Y-132178398D01*
X173325512Y-132178401D01*
X173569843Y-132259205D01*
X173653197Y-132286772D01*
X173992035Y-132356942D01*
X173992907Y-132357020D01*
X173992915Y-132357021D01*
X174295657Y-132384040D01*
X174295664Y-132384040D01*
X174296333Y-132384100D01*
X174519289Y-132384100D01*
X174520330Y-132384040D01*
X174775670Y-132369317D01*
X174775671Y-132369317D01*
X174776553Y-132369266D01*
X174777422Y-132369114D01*
X174777425Y-132369114D01*
X174893200Y-132348908D01*
X175117428Y-132309774D01*
X175118273Y-132309524D01*
X175118276Y-132309523D01*
X175283317Y-132260636D01*
X175449206Y-132211497D01*
X175450013Y-132211153D01*
X175450018Y-132211151D01*
X175562860Y-132163019D01*
X175767489Y-132075738D01*
X176068059Y-131904296D01*
X176346932Y-131699443D01*
X176600412Y-131463895D01*
X176825138Y-131200774D01*
X176875806Y-131125373D01*
X177017640Y-130914300D01*
X177018133Y-130913567D01*
X177176839Y-130606082D01*
X177299150Y-130282393D01*
X177383448Y-129946790D01*
X177391485Y-129885745D01*
X177428497Y-129604608D01*
X177428497Y-129604602D01*
X177428613Y-129603724D01*
X177434049Y-129257739D01*
X177399681Y-128913423D01*
X177336369Y-128623049D01*
X177326157Y-128576210D01*
X177326157Y-128576208D01*
X177325967Y-128575339D01*
X177322232Y-128564428D01*
X177267971Y-128405946D01*
X177213883Y-128247967D01*
X177207411Y-128234397D01*
X177120210Y-128051579D01*
X177064914Y-127935648D01*
X177013466Y-127853633D01*
X176881509Y-127643274D01*
X176881504Y-127643266D01*
X176881036Y-127642521D01*
X176664685Y-127372471D01*
X176664052Y-127371845D01*
X176664047Y-127371839D01*
X176419367Y-127129708D01*
X176419364Y-127129705D01*
X176418729Y-127129077D01*
X176341302Y-127068366D01*
X176147127Y-126916114D01*
X176147126Y-126916113D01*
X176146428Y-126915566D01*
X176145682Y-126915109D01*
X176145675Y-126915104D01*
X175852140Y-126735227D01*
X175851391Y-126734768D01*
X175850602Y-126734402D01*
X175850595Y-126734398D01*
X175538332Y-126589450D01*
X175538328Y-126589448D01*
X175537530Y-126589078D01*
X175536696Y-126588802D01*
X175536688Y-126588799D01*
X175292357Y-126507995D01*
X175209003Y-126480428D01*
X174870165Y-126410258D01*
X174869293Y-126410180D01*
X174869285Y-126410179D01*
X174566543Y-126383160D01*
X174566536Y-126383160D01*
X174565867Y-126383100D01*
X174342911Y-126383100D01*
X174342478Y-126383125D01*
X174342477Y-126383125D01*
X174086530Y-126397883D01*
X174086529Y-126397883D01*
X174085647Y-126397934D01*
X174084778Y-126398086D01*
X174084775Y-126398086D01*
X173969000Y-126418292D01*
X173744772Y-126457426D01*
X173743927Y-126457676D01*
X173743924Y-126457677D01*
X173578883Y-126506564D01*
X173412994Y-126555703D01*
X173412187Y-126556047D01*
X173412182Y-126556049D01*
X173335401Y-126588799D01*
X173094711Y-126691462D01*
X172794141Y-126862904D01*
X172515268Y-127067757D01*
X172261788Y-127303305D01*
X172037062Y-127566426D01*
X172036575Y-127567151D01*
X172036571Y-127567156D01*
X171985928Y-127642521D01*
X171844067Y-127853633D01*
X171685361Y-128161118D01*
X171563050Y-128484807D01*
X171478752Y-128820410D01*
X171478636Y-128821288D01*
X171478636Y-128821290D01*
X171453290Y-129013817D01*
X171433587Y-129163476D01*
X171428151Y-129509461D01*
X163109211Y-129509461D01*
X162491889Y-128892140D01*
X162488780Y-128888504D01*
X162252647Y-128564428D01*
X162249131Y-128558185D01*
X162187358Y-128410488D01*
X162185862Y-128405946D01*
X162147337Y-128248818D01*
X162143800Y-128234388D01*
X162143026Y-128229676D01*
X162137275Y-128161954D01*
X162129627Y-128071914D01*
X162129896Y-128064504D01*
X162131186Y-128056361D01*
X162131186Y-128056353D01*
X162131564Y-128053966D01*
X162126844Y-128024166D01*
X162126466Y-128019569D01*
X162121483Y-127302699D01*
X162100340Y-124260974D01*
X162100340Y-124200492D01*
X162099311Y-124197325D01*
X162097806Y-124187823D01*
X162097806Y-114585433D01*
X162097813Y-114585343D01*
X162097831Y-114585288D01*
X162097806Y-114524651D01*
X162097806Y-114492865D01*
X162097797Y-114492806D01*
X162097793Y-114492710D01*
X162097781Y-114464008D01*
X162097780Y-114461589D01*
X162097031Y-114459288D01*
X162096981Y-114458971D01*
X162096600Y-114454147D01*
X162096600Y-106679850D01*
X162105606Y-106658106D01*
X162127350Y-106649100D01*
X162425856Y-106649100D01*
X162427338Y-106648805D01*
X162427340Y-106648805D01*
X162499161Y-106634519D01*
X162502132Y-106633928D01*
X162588631Y-106576131D01*
X162646428Y-106489632D01*
X162652971Y-106456738D01*
X162661305Y-106414840D01*
X162661305Y-106414838D01*
X162661600Y-106413356D01*
X162661600Y-105873844D01*
X162646428Y-105797568D01*
X162588631Y-105711069D01*
X162565754Y-105695783D01*
X162512256Y-105660036D01*
X162499181Y-105640467D01*
X162503772Y-105617384D01*
X162512256Y-105608900D01*
X162569170Y-105570872D01*
X162573372Y-105566670D01*
X162622609Y-105492981D01*
X162624882Y-105487492D01*
X162637805Y-105422526D01*
X162638100Y-105419529D01*
X162638100Y-105248217D01*
X162636308Y-105243892D01*
X162631983Y-105242100D01*
X161220217Y-105242100D01*
X161215892Y-105243892D01*
X161214100Y-105248217D01*
X161214100Y-105419529D01*
X161214395Y-105422526D01*
X161227318Y-105487492D01*
X161229591Y-105492981D01*
X161278828Y-105566670D01*
X161283030Y-105570872D01*
X161339944Y-105608900D01*
X161353019Y-105628469D01*
X161348428Y-105651552D01*
X161339944Y-105660036D01*
X161286446Y-105695783D01*
X161263569Y-105711069D01*
X161205772Y-105797568D01*
X161190600Y-105873844D01*
X161190600Y-106413356D01*
X160611600Y-106413356D01*
X160611600Y-105873844D01*
X160596428Y-105797568D01*
X160538631Y-105711069D01*
X160515754Y-105695783D01*
X160462256Y-105660036D01*
X160449181Y-105640467D01*
X160453772Y-105617384D01*
X160462256Y-105608900D01*
X160519170Y-105570872D01*
X160523372Y-105566670D01*
X160572609Y-105492981D01*
X160574882Y-105487492D01*
X160587805Y-105422526D01*
X160588100Y-105419529D01*
X160588100Y-105248217D01*
X160586308Y-105243892D01*
X160581983Y-105242100D01*
X159170217Y-105242100D01*
X159165892Y-105243892D01*
X159164100Y-105248217D01*
X159164100Y-105419529D01*
X159164395Y-105422526D01*
X159177318Y-105487492D01*
X159179591Y-105492981D01*
X159228828Y-105566670D01*
X159233030Y-105570872D01*
X159289944Y-105608900D01*
X159303019Y-105628469D01*
X159298428Y-105651552D01*
X159289944Y-105660036D01*
X159236446Y-105695783D01*
X159213569Y-105711069D01*
X159211886Y-105713588D01*
X159194616Y-105739434D01*
X159175047Y-105752509D01*
X159169048Y-105753100D01*
X158446802Y-105753100D01*
X158440803Y-105752509D01*
X158160097Y-105696673D01*
X158151601Y-105693633D01*
X158070415Y-105650238D01*
X158065403Y-105646889D01*
X157972775Y-105570872D01*
X157961941Y-105561981D01*
X157959705Y-105559956D01*
X156833105Y-104433356D01*
X159140600Y-104433356D01*
X159140895Y-104434838D01*
X159140895Y-104434840D01*
X159148113Y-104471128D01*
X159155772Y-104509632D01*
X159213569Y-104596131D01*
X159216088Y-104597814D01*
X159216089Y-104597815D01*
X159289944Y-104647164D01*
X159303019Y-104666733D01*
X159298428Y-104689816D01*
X159289944Y-104698300D01*
X159233030Y-104736328D01*
X159228828Y-104740530D01*
X159179591Y-104814219D01*
X159177318Y-104819708D01*
X159164395Y-104884674D01*
X159164100Y-104887671D01*
X159164100Y-105058983D01*
X159165892Y-105063308D01*
X159170217Y-105065100D01*
X160581983Y-105065100D01*
X160586308Y-105063308D01*
X160588100Y-105058983D01*
X160588100Y-104887671D01*
X160587805Y-104884674D01*
X160574882Y-104819708D01*
X160572609Y-104814219D01*
X160523372Y-104740530D01*
X160519170Y-104736328D01*
X160462256Y-104698300D01*
X160449181Y-104678731D01*
X160453772Y-104655648D01*
X160462256Y-104647164D01*
X160536111Y-104597815D01*
X160536112Y-104597814D01*
X160538631Y-104596131D01*
X160596428Y-104509632D01*
X160604087Y-104471128D01*
X160611305Y-104434840D01*
X160611305Y-104434838D01*
X160611600Y-104433356D01*
X161190600Y-104433356D01*
X161190895Y-104434838D01*
X161190895Y-104434840D01*
X161198113Y-104471128D01*
X161205772Y-104509632D01*
X161263569Y-104596131D01*
X161266088Y-104597814D01*
X161266089Y-104597815D01*
X161339944Y-104647164D01*
X161353019Y-104666733D01*
X161348428Y-104689816D01*
X161339944Y-104698300D01*
X161283030Y-104736328D01*
X161278828Y-104740530D01*
X161229591Y-104814219D01*
X161227318Y-104819708D01*
X161214395Y-104884674D01*
X161214100Y-104887671D01*
X161214100Y-105058983D01*
X161215892Y-105063308D01*
X161220217Y-105065100D01*
X162631983Y-105065100D01*
X162636308Y-105063308D01*
X162638100Y-105058983D01*
X162638100Y-104887671D01*
X162637805Y-104884674D01*
X162624882Y-104819708D01*
X162622609Y-104814219D01*
X162573372Y-104740530D01*
X162569170Y-104736328D01*
X162512256Y-104698300D01*
X162499181Y-104678731D01*
X162503772Y-104655648D01*
X162512256Y-104647164D01*
X162586111Y-104597815D01*
X162586112Y-104597814D01*
X162588631Y-104596131D01*
X162646428Y-104509632D01*
X162654087Y-104471128D01*
X162661305Y-104434840D01*
X162661305Y-104434838D01*
X162661600Y-104433356D01*
X162661600Y-103893844D01*
X162658567Y-103878593D01*
X162647019Y-103820539D01*
X162646428Y-103817568D01*
X162588631Y-103731069D01*
X162502132Y-103673272D01*
X162499161Y-103672681D01*
X162427340Y-103658395D01*
X162427338Y-103658395D01*
X162425856Y-103658100D01*
X162347350Y-103658100D01*
X162325606Y-103649094D01*
X162316600Y-103627350D01*
X162316600Y-102353600D01*
X169501100Y-102353600D01*
X169546677Y-102874545D01*
X169682022Y-103379660D01*
X169903024Y-103853600D01*
X170202967Y-104281963D01*
X170572737Y-104651733D01*
X171001100Y-104951676D01*
X171475040Y-105172678D01*
X171476336Y-105173025D01*
X171476338Y-105173026D01*
X171756956Y-105248217D01*
X171980155Y-105308023D01*
X172501100Y-105353600D01*
X173022045Y-105308023D01*
X173245244Y-105248217D01*
X173525862Y-105173026D01*
X173525864Y-105173025D01*
X173527160Y-105172678D01*
X174001100Y-104951676D01*
X174429463Y-104651733D01*
X174799233Y-104281963D01*
X175099176Y-103853600D01*
X175320178Y-103379660D01*
X175455523Y-102874545D01*
X175501100Y-102353600D01*
X175455523Y-101832655D01*
X175402369Y-101634283D01*
X175320526Y-101328838D01*
X175320525Y-101328836D01*
X175320178Y-101327540D01*
X175303854Y-101292532D01*
X175163561Y-100991674D01*
X175099176Y-100853600D01*
X174799233Y-100425237D01*
X174429463Y-100055467D01*
X174001100Y-99755524D01*
X173527160Y-99534522D01*
X173525864Y-99534175D01*
X173525862Y-99534174D01*
X173176377Y-99440530D01*
X173022045Y-99399177D01*
X172501100Y-99353600D01*
X171980155Y-99399177D01*
X171825823Y-99440530D01*
X171476338Y-99534174D01*
X171476336Y-99534175D01*
X171475040Y-99534522D01*
X171001100Y-99755524D01*
X170572737Y-100055467D01*
X170202967Y-100425237D01*
X169903024Y-100853600D01*
X169838639Y-100991674D01*
X169698347Y-101292532D01*
X169682022Y-101327540D01*
X169681675Y-101328836D01*
X169681674Y-101328838D01*
X169599831Y-101634283D01*
X169546677Y-101832655D01*
X169501100Y-102353600D01*
X162316600Y-102353600D01*
X162316600Y-98513583D01*
X162316637Y-98512074D01*
X162335556Y-98126958D01*
X162335852Y-98123955D01*
X162341454Y-98086193D01*
X162347955Y-98042363D01*
X162390907Y-97752806D01*
X162391495Y-97749847D01*
X162421738Y-97629108D01*
X162482667Y-97385863D01*
X162483537Y-97382995D01*
X162484663Y-97379850D01*
X162548912Y-97200282D01*
X162609947Y-97029700D01*
X162611102Y-97026912D01*
X162737910Y-96758799D01*
X162771530Y-96687714D01*
X162772950Y-96685059D01*
X162965852Y-96363224D01*
X162967524Y-96360721D01*
X162974325Y-96351552D01*
X163191047Y-96059335D01*
X163192962Y-96057003D01*
X163451875Y-95771335D01*
X163452915Y-95770241D01*
X171501685Y-87721471D01*
X171502939Y-87720286D01*
X171745813Y-87503241D01*
X171748509Y-87501092D01*
X171901997Y-87392186D01*
X172004496Y-87319460D01*
X172007404Y-87317632D01*
X172282138Y-87165791D01*
X172285242Y-87164296D01*
X172575233Y-87044178D01*
X172578487Y-87043039D01*
X172880108Y-86956144D01*
X172883470Y-86955376D01*
X173142024Y-86911445D01*
X173192924Y-86902797D01*
X173196346Y-86902411D01*
X173521563Y-86884148D01*
X173523286Y-86884100D01*
X174821679Y-86884100D01*
X174843423Y-86893106D01*
X174845218Y-86895064D01*
X174869727Y-86924221D01*
X174871554Y-86925437D01*
X174871556Y-86925439D01*
X174968494Y-86989966D01*
X174987067Y-87002329D01*
X174989159Y-87002983D01*
X174989160Y-87002983D01*
X175025495Y-87014335D01*
X175121613Y-87044365D01*
X175171464Y-87045279D01*
X175260361Y-87046908D01*
X175260362Y-87046908D01*
X175262550Y-87046948D01*
X175264662Y-87046372D01*
X175264664Y-87046372D01*
X175396431Y-87010448D01*
X175396433Y-87010447D01*
X175398546Y-87009871D01*
X175518670Y-86936115D01*
X175613264Y-86831608D01*
X175674725Y-86704753D01*
X175698112Y-86565747D01*
X175698260Y-86553600D01*
X175678277Y-86414064D01*
X175629727Y-86307283D01*
X175620842Y-86287741D01*
X175620840Y-86287738D01*
X175619934Y-86285745D01*
X175598495Y-86260863D01*
X175529354Y-86180621D01*
X175527921Y-86178958D01*
X175526083Y-86177766D01*
X175526081Y-86177765D01*
X175411473Y-86103480D01*
X175411471Y-86103479D01*
X175409635Y-86102289D01*
X175333157Y-86079418D01*
X175276686Y-86062529D01*
X175276684Y-86062529D01*
X175274585Y-86061901D01*
X175204615Y-86061474D01*
X175135824Y-86061053D01*
X175135821Y-86061053D01*
X175133628Y-86061040D01*
X174998094Y-86099775D01*
X174996899Y-86100529D01*
X174984858Y-86103100D01*
X173532757Y-86103100D01*
X173529657Y-86102943D01*
X173528121Y-86102787D01*
X173520261Y-86101991D01*
X173519065Y-86102058D01*
X173519059Y-86102058D01*
X173501368Y-86103052D01*
X173499644Y-86103100D01*
X173480733Y-86103100D01*
X173471398Y-86104578D01*
X173468331Y-86104907D01*
X173138378Y-86123437D01*
X173137011Y-86123483D01*
X173131945Y-86123539D01*
X173116936Y-86123707D01*
X173116930Y-86123708D01*
X173115726Y-86123721D01*
X173108746Y-86124907D01*
X173105323Y-86125293D01*
X173099462Y-86125622D01*
X173099459Y-86125622D01*
X173098255Y-86125690D01*
X173097073Y-86125946D01*
X173097072Y-86125946D01*
X173077471Y-86130189D01*
X173076116Y-86130451D01*
X172868910Y-86165657D01*
X172738644Y-86187790D01*
X172737293Y-86187988D01*
X172716169Y-86190608D01*
X172715009Y-86190942D01*
X172715010Y-86190942D01*
X172709365Y-86192568D01*
X172706002Y-86193336D01*
X172700210Y-86194320D01*
X172699027Y-86194521D01*
X172697891Y-86194904D01*
X172697880Y-86194907D01*
X172678857Y-86201325D01*
X172677550Y-86201734D01*
X172475856Y-86259841D01*
X172348631Y-86296494D01*
X172347296Y-86296846D01*
X172326614Y-86301811D01*
X172321944Y-86303745D01*
X172320074Y-86304520D01*
X172316822Y-86305658D01*
X172310018Y-86307618D01*
X172290733Y-86316640D01*
X172289470Y-86317196D01*
X171973265Y-86448172D01*
X171971979Y-86448672D01*
X171953094Y-86455519D01*
X171951958Y-86455931D01*
X171950896Y-86456518D01*
X171945761Y-86459356D01*
X171942651Y-86460854D01*
X171937236Y-86463096D01*
X171937230Y-86463099D01*
X171936117Y-86463560D01*
X171935089Y-86464190D01*
X171935085Y-86464192D01*
X171917964Y-86474684D01*
X171916771Y-86475378D01*
X171617210Y-86640940D01*
X171615988Y-86641580D01*
X171596914Y-86651031D01*
X171595939Y-86651723D01*
X171591132Y-86655133D01*
X171588215Y-86656965D01*
X171582026Y-86660386D01*
X171581073Y-86661129D01*
X171581065Y-86661134D01*
X171565240Y-86673466D01*
X171564133Y-86674289D01*
X171284991Y-86872351D01*
X171283848Y-86873124D01*
X171266967Y-86883997D01*
X171266955Y-86884006D01*
X171265946Y-86884656D01*
X171260659Y-86889380D01*
X171257974Y-86891521D01*
X171253189Y-86894916D01*
X171253182Y-86894922D01*
X171252201Y-86895618D01*
X171251337Y-86896463D01*
X171251332Y-86896467D01*
X171236977Y-86910503D01*
X171235978Y-86911437D01*
X170997670Y-87124403D01*
X170989581Y-87131632D01*
X170987167Y-87133581D01*
X170979520Y-87139136D01*
X170966136Y-87152520D01*
X170964882Y-87153704D01*
X170951687Y-87165495D01*
X170951682Y-87165501D01*
X170950786Y-87166301D01*
X170948673Y-87168891D01*
X170944812Y-87173622D01*
X170942731Y-87175925D01*
X162909469Y-95209187D01*
X162906998Y-95211403D01*
X162901738Y-95215634D01*
X162901730Y-95215641D01*
X162900792Y-95216396D01*
X162899986Y-95217286D01*
X162899980Y-95217291D01*
X162887110Y-95231492D01*
X162886070Y-95232586D01*
X162871635Y-95247021D01*
X162870930Y-95247992D01*
X162870926Y-95247996D01*
X162866951Y-95253467D01*
X162864861Y-95256039D01*
X162828524Y-95296131D01*
X162608722Y-95538646D01*
X162607468Y-95539951D01*
X162598937Y-95548317D01*
X162594374Y-95552791D01*
X162593654Y-95553762D01*
X162593653Y-95553763D01*
X162588392Y-95560856D01*
X162586479Y-95563188D01*
X162579736Y-95570628D01*
X162579078Y-95571635D01*
X162579075Y-95571638D01*
X162569714Y-95585951D01*
X162568679Y-95587437D01*
X162335289Y-95902127D01*
X162334167Y-95903549D01*
X162323181Y-95916670D01*
X162323172Y-95916683D01*
X162322404Y-95917600D01*
X162317238Y-95926219D01*
X162315568Y-95928717D01*
X162310310Y-95935807D01*
X162309585Y-95936785D01*
X162309028Y-95937853D01*
X162309025Y-95937857D01*
X162301105Y-95953031D01*
X162300220Y-95954611D01*
X162098811Y-96290641D01*
X162097837Y-96292163D01*
X162087501Y-96307308D01*
X162086986Y-96308398D01*
X162086982Y-96308404D01*
X162083207Y-96316387D01*
X162081783Y-96319051D01*
X162076624Y-96327658D01*
X162076175Y-96328773D01*
X162076169Y-96328785D01*
X162069776Y-96344658D01*
X162069051Y-96346317D01*
X161901542Y-96700484D01*
X161900720Y-96702097D01*
X161891927Y-96718166D01*
X161891520Y-96719303D01*
X161891517Y-96719310D01*
X161888545Y-96727617D01*
X161887392Y-96730402D01*
X161883097Y-96739484D01*
X161882758Y-96740641D01*
X161882758Y-96740642D01*
X161877948Y-96757077D01*
X161877396Y-96758778D01*
X161745394Y-97127701D01*
X161744750Y-97129344D01*
X161737567Y-97146216D01*
X161737277Y-97147375D01*
X161737274Y-97147383D01*
X161735127Y-97155958D01*
X161734254Y-97158836D01*
X161730869Y-97168296D01*
X161730645Y-97169481D01*
X161730641Y-97169497D01*
X161727466Y-97186320D01*
X161727078Y-97188089D01*
X161631894Y-97568089D01*
X161631403Y-97569832D01*
X161625906Y-97587333D01*
X161625729Y-97588528D01*
X161624431Y-97597276D01*
X161623845Y-97600225D01*
X161621405Y-97609965D01*
X161621299Y-97611161D01*
X161621298Y-97611167D01*
X161619789Y-97628208D01*
X161619577Y-97629995D01*
X161564643Y-98000340D01*
X161562092Y-98017536D01*
X161561774Y-98019317D01*
X161558019Y-98037272D01*
X161557960Y-98038477D01*
X161557526Y-98047308D01*
X161557230Y-98050310D01*
X161555758Y-98060234D01*
X161555770Y-98061437D01*
X161555938Y-98078558D01*
X161555902Y-98080369D01*
X161537187Y-98461336D01*
X161536845Y-98464637D01*
X161535823Y-98471093D01*
X161535600Y-98472500D01*
X161535600Y-98492886D01*
X161535563Y-98494395D01*
X161534658Y-98512827D01*
X161534562Y-98514772D01*
X161534693Y-98515976D01*
X161535421Y-98522695D01*
X161535600Y-98526009D01*
X161535600Y-103627350D01*
X161526594Y-103649094D01*
X161504850Y-103658100D01*
X161426344Y-103658100D01*
X161424862Y-103658395D01*
X161424860Y-103658395D01*
X161353039Y-103672681D01*
X161350068Y-103673272D01*
X161263569Y-103731069D01*
X161205772Y-103817568D01*
X161205181Y-103820539D01*
X161193634Y-103878593D01*
X161190600Y-103893844D01*
X161190600Y-104433356D01*
X160611600Y-104433356D01*
X160611600Y-103893844D01*
X160608567Y-103878593D01*
X160597019Y-103820539D01*
X160596428Y-103817568D01*
X160538631Y-103731069D01*
X160452132Y-103673272D01*
X160449161Y-103672681D01*
X160377340Y-103658395D01*
X160377338Y-103658395D01*
X160375856Y-103658100D01*
X160297350Y-103658100D01*
X160275606Y-103649094D01*
X160266600Y-103627350D01*
X160266600Y-102675902D01*
X160275606Y-102654158D01*
X160292871Y-102645480D01*
X160298254Y-102644688D01*
X160300849Y-102644306D01*
X160300850Y-102644306D01*
X160303212Y-102643958D01*
X160407955Y-102592532D01*
X160490393Y-102509950D01*
X160541636Y-102405118D01*
X160551600Y-102336818D01*
X160551600Y-101970382D01*
X160542895Y-101911248D01*
X160541807Y-101903856D01*
X160541806Y-101903854D01*
X160541458Y-101901488D01*
X160490032Y-101796745D01*
X160407450Y-101714307D01*
X160302618Y-101663064D01*
X160300255Y-101662719D01*
X160300254Y-101662719D01*
X160265517Y-101657651D01*
X160234318Y-101653100D01*
X159567882Y-101653100D01*
X159566770Y-101653264D01*
X159566766Y-101653264D01*
X159501356Y-101662893D01*
X159501354Y-101662894D01*
X159498988Y-101663242D01*
X159394245Y-101714668D01*
X159311807Y-101797250D01*
X159260564Y-101902082D01*
X159260219Y-101904445D01*
X159260219Y-101904446D01*
X159255151Y-101939183D01*
X159250600Y-101970382D01*
X159250600Y-102336818D01*
X159250764Y-102337930D01*
X159250764Y-102337934D01*
X159260307Y-102402754D01*
X159260742Y-102405712D01*
X159261796Y-102407858D01*
X159261796Y-102407859D01*
X159302947Y-102491674D01*
X159312168Y-102510455D01*
X159394750Y-102592893D01*
X159397035Y-102594010D01*
X159468354Y-102628871D01*
X159483933Y-102646511D01*
X159485600Y-102656497D01*
X159485600Y-103627350D01*
X159476594Y-103649094D01*
X159454850Y-103658100D01*
X159376344Y-103658100D01*
X159374862Y-103658395D01*
X159374860Y-103658395D01*
X159303039Y-103672681D01*
X159300068Y-103673272D01*
X159213569Y-103731069D01*
X159155772Y-103817568D01*
X159155181Y-103820539D01*
X159143634Y-103878593D01*
X159140600Y-103893844D01*
X159140600Y-104433356D01*
X156833105Y-104433356D01*
X156374458Y-103974709D01*
X156370634Y-103970049D01*
X156302395Y-103867922D01*
X156211622Y-103732071D01*
X156207768Y-103723920D01*
X156181043Y-103635822D01*
X156179867Y-103629911D01*
X156173388Y-103564121D01*
X156166748Y-103496707D01*
X156166600Y-103493694D01*
X156166600Y-100940916D01*
X159274101Y-100940916D01*
X159274232Y-100942916D01*
X159280062Y-100987206D01*
X159281364Y-100991673D01*
X159327969Y-101091618D01*
X159331004Y-101095952D01*
X159408748Y-101173696D01*
X159413082Y-101176731D01*
X159513026Y-101223336D01*
X159517495Y-101224638D01*
X159561786Y-101230469D01*
X159563782Y-101230600D01*
X159806483Y-101230600D01*
X159810808Y-101228808D01*
X159812600Y-101224483D01*
X159812600Y-101224482D01*
X159989600Y-101224482D01*
X159991392Y-101228807D01*
X159995717Y-101230599D01*
X160238416Y-101230599D01*
X160240416Y-101230468D01*
X160284706Y-101224638D01*
X160289173Y-101223336D01*
X160389118Y-101176731D01*
X160393452Y-101173696D01*
X160471196Y-101095952D01*
X160474231Y-101091618D01*
X160520836Y-100991674D01*
X160522138Y-100987205D01*
X160527969Y-100942914D01*
X160528100Y-100940918D01*
X160528100Y-100848217D01*
X160526308Y-100843892D01*
X160521983Y-100842100D01*
X159995717Y-100842100D01*
X159991392Y-100843892D01*
X159989600Y-100848217D01*
X159989600Y-101224482D01*
X159812600Y-101224482D01*
X159812600Y-100848217D01*
X159810808Y-100843892D01*
X159806483Y-100842100D01*
X159280218Y-100842100D01*
X159275893Y-100843892D01*
X159274101Y-100848217D01*
X159274101Y-100940916D01*
X156166600Y-100940916D01*
X156166600Y-100658983D01*
X159274100Y-100658983D01*
X159275892Y-100663308D01*
X159280217Y-100665100D01*
X159806483Y-100665100D01*
X159810808Y-100663308D01*
X159812600Y-100658983D01*
X159989600Y-100658983D01*
X159991392Y-100663308D01*
X159995717Y-100665100D01*
X160521982Y-100665100D01*
X160526307Y-100663308D01*
X160528099Y-100658983D01*
X160528099Y-100566284D01*
X160527968Y-100564284D01*
X160522138Y-100519994D01*
X160520836Y-100515527D01*
X160474231Y-100415582D01*
X160471196Y-100411248D01*
X160393452Y-100333504D01*
X160389118Y-100330469D01*
X160289174Y-100283864D01*
X160284705Y-100282562D01*
X160240414Y-100276731D01*
X160238418Y-100276600D01*
X159995717Y-100276600D01*
X159991392Y-100278392D01*
X159989600Y-100282717D01*
X159989600Y-100658983D01*
X159812600Y-100658983D01*
X159812600Y-100282718D01*
X159810808Y-100278393D01*
X159806483Y-100276601D01*
X159563784Y-100276601D01*
X159561784Y-100276732D01*
X159517494Y-100282562D01*
X159513027Y-100283864D01*
X159413082Y-100330469D01*
X159408748Y-100333504D01*
X159331004Y-100411248D01*
X159327969Y-100415582D01*
X159281364Y-100515526D01*
X159280062Y-100519995D01*
X159274231Y-100564286D01*
X159274100Y-100566282D01*
X159274100Y-100658983D01*
X156166600Y-100658983D01*
X156166600Y-100140916D01*
X157174101Y-100140916D01*
X157174232Y-100142916D01*
X157180062Y-100187206D01*
X157181364Y-100191673D01*
X157227969Y-100291618D01*
X157231004Y-100295952D01*
X157308748Y-100373696D01*
X157313082Y-100376731D01*
X157413026Y-100423336D01*
X157417495Y-100424638D01*
X157461786Y-100430469D01*
X157463782Y-100430600D01*
X157706483Y-100430600D01*
X157710808Y-100428808D01*
X157712600Y-100424483D01*
X157712600Y-100424482D01*
X157889600Y-100424482D01*
X157891392Y-100428807D01*
X157895717Y-100430599D01*
X158138416Y-100430599D01*
X158140416Y-100430468D01*
X158184706Y-100424638D01*
X158189173Y-100423336D01*
X158289118Y-100376731D01*
X158293452Y-100373696D01*
X158371196Y-100295952D01*
X158374231Y-100291618D01*
X158420836Y-100191674D01*
X158422138Y-100187205D01*
X158427969Y-100142914D01*
X158428100Y-100140918D01*
X158428100Y-100048217D01*
X158426308Y-100043892D01*
X158421983Y-100042100D01*
X157895717Y-100042100D01*
X157891392Y-100043892D01*
X157889600Y-100048217D01*
X157889600Y-100424482D01*
X157712600Y-100424482D01*
X157712600Y-100048217D01*
X157710808Y-100043892D01*
X157706483Y-100042100D01*
X157180218Y-100042100D01*
X157175893Y-100043892D01*
X157174101Y-100048217D01*
X157174101Y-100140916D01*
X156166600Y-100140916D01*
X156166600Y-99858983D01*
X157174100Y-99858983D01*
X157175892Y-99863308D01*
X157180217Y-99865100D01*
X157706483Y-99865100D01*
X157710808Y-99863308D01*
X157712600Y-99858983D01*
X157889600Y-99858983D01*
X157891392Y-99863308D01*
X157895717Y-99865100D01*
X158421982Y-99865100D01*
X158426307Y-99863308D01*
X158428099Y-99858983D01*
X158428099Y-99766284D01*
X158427968Y-99764284D01*
X158422138Y-99719994D01*
X158420836Y-99715527D01*
X158374231Y-99615582D01*
X158371196Y-99611248D01*
X158293452Y-99533504D01*
X158289118Y-99530469D01*
X158189174Y-99483864D01*
X158184705Y-99482562D01*
X158140414Y-99476731D01*
X158138418Y-99476600D01*
X157895717Y-99476600D01*
X157891392Y-99478392D01*
X157889600Y-99482717D01*
X157889600Y-99858983D01*
X157712600Y-99858983D01*
X157712600Y-99482718D01*
X157710808Y-99478393D01*
X157706483Y-99476601D01*
X157463784Y-99476601D01*
X157461784Y-99476732D01*
X157417494Y-99482562D01*
X157413027Y-99483864D01*
X157313082Y-99530469D01*
X157308748Y-99533504D01*
X157231004Y-99611248D01*
X157227969Y-99615582D01*
X157181364Y-99715526D01*
X157180062Y-99719995D01*
X157174231Y-99764286D01*
X157174100Y-99766282D01*
X157174100Y-99858983D01*
X156166600Y-99858983D01*
X156166600Y-97379850D01*
X156175606Y-97358106D01*
X156197350Y-97349100D01*
X156275856Y-97349100D01*
X156277338Y-97348805D01*
X156277340Y-97348805D01*
X156349161Y-97334519D01*
X156352132Y-97333928D01*
X156438631Y-97276131D01*
X156496428Y-97189632D01*
X156497087Y-97186320D01*
X156511305Y-97114840D01*
X156511305Y-97114838D01*
X156511600Y-97113356D01*
X157090600Y-97113356D01*
X157090895Y-97114838D01*
X157090895Y-97114840D01*
X157105113Y-97186320D01*
X157105772Y-97189632D01*
X157163569Y-97276131D01*
X157250068Y-97333928D01*
X157253039Y-97334519D01*
X157324860Y-97348805D01*
X157324862Y-97348805D01*
X157326344Y-97349100D01*
X157404850Y-97349100D01*
X157426594Y-97358106D01*
X157435600Y-97379850D01*
X157435600Y-98031298D01*
X157426594Y-98053042D01*
X157409329Y-98061720D01*
X157403946Y-98062512D01*
X157401351Y-98062894D01*
X157401350Y-98062894D01*
X157398988Y-98063242D01*
X157294245Y-98114668D01*
X157211807Y-98197250D01*
X157160564Y-98302082D01*
X157150600Y-98370382D01*
X157150600Y-98736818D01*
X157150764Y-98737930D01*
X157150764Y-98737934D01*
X157160307Y-98802754D01*
X157160742Y-98805712D01*
X157212168Y-98910455D01*
X157294750Y-98992893D01*
X157399582Y-99044136D01*
X157401945Y-99044481D01*
X157401946Y-99044481D01*
X157436683Y-99049549D01*
X157467882Y-99054100D01*
X158134318Y-99054100D01*
X158135430Y-99053936D01*
X158135434Y-99053936D01*
X158200844Y-99044307D01*
X158200846Y-99044306D01*
X158203212Y-99043958D01*
X158307955Y-98992532D01*
X158390393Y-98909950D01*
X158441636Y-98805118D01*
X158451600Y-98736818D01*
X158451600Y-98370382D01*
X158450021Y-98359657D01*
X158441807Y-98303856D01*
X158441806Y-98303854D01*
X158441458Y-98301488D01*
X158390032Y-98196745D01*
X158307450Y-98114307D01*
X158233846Y-98078329D01*
X158218267Y-98060689D01*
X158216600Y-98050703D01*
X158216600Y-97379850D01*
X158225606Y-97358106D01*
X158247350Y-97349100D01*
X158325856Y-97349100D01*
X158327338Y-97348805D01*
X158327340Y-97348805D01*
X158399161Y-97334519D01*
X158402132Y-97333928D01*
X158488631Y-97276131D01*
X158546428Y-97189632D01*
X158547087Y-97186320D01*
X158561305Y-97114840D01*
X158561305Y-97114838D01*
X158561600Y-97113356D01*
X158561600Y-96573844D01*
X158546428Y-96497568D01*
X158488631Y-96411069D01*
X158486111Y-96409385D01*
X158412256Y-96360036D01*
X158399181Y-96340467D01*
X158403772Y-96317384D01*
X158412256Y-96308900D01*
X158469170Y-96270872D01*
X158473372Y-96266670D01*
X158522609Y-96192981D01*
X158524882Y-96187492D01*
X158537805Y-96122526D01*
X158538100Y-96119529D01*
X158538100Y-95948217D01*
X158536308Y-95943892D01*
X158531983Y-95942100D01*
X157120217Y-95942100D01*
X157115892Y-95943892D01*
X157114100Y-95948217D01*
X157114100Y-96119529D01*
X157114395Y-96122526D01*
X157127318Y-96187492D01*
X157129591Y-96192981D01*
X157178828Y-96266670D01*
X157183030Y-96270872D01*
X157239944Y-96308900D01*
X157253019Y-96328469D01*
X157248428Y-96351552D01*
X157239944Y-96360036D01*
X157166089Y-96409385D01*
X157163569Y-96411069D01*
X157105772Y-96497568D01*
X157090600Y-96573844D01*
X157090600Y-97113356D01*
X156511600Y-97113356D01*
X156511600Y-96573844D01*
X156496428Y-96497568D01*
X156438631Y-96411069D01*
X156436111Y-96409385D01*
X156362256Y-96360036D01*
X156349181Y-96340467D01*
X156353772Y-96317384D01*
X156362256Y-96308900D01*
X156419170Y-96270872D01*
X156423372Y-96266670D01*
X156472609Y-96192981D01*
X156474882Y-96187492D01*
X156487805Y-96122526D01*
X156488100Y-96119529D01*
X156488100Y-95948217D01*
X156486308Y-95943892D01*
X156481983Y-95942100D01*
X155070217Y-95942100D01*
X155065892Y-95943892D01*
X155064100Y-95948217D01*
X155064100Y-96119529D01*
X155064395Y-96122526D01*
X155077318Y-96187492D01*
X155079591Y-96192981D01*
X155128828Y-96266670D01*
X155133030Y-96270872D01*
X155189944Y-96308900D01*
X155203019Y-96328469D01*
X155198428Y-96351552D01*
X155189944Y-96360036D01*
X155116089Y-96409385D01*
X155113569Y-96411069D01*
X155055772Y-96497568D01*
X155040600Y-96573844D01*
X155040600Y-97113356D01*
X135887754Y-97113356D01*
X135891314Y-97077219D01*
X135898503Y-97004225D01*
X135898734Y-97002430D01*
X135901600Y-96984335D01*
X135906089Y-96955993D01*
X135906468Y-96953600D01*
X135901979Y-96925258D01*
X135901600Y-96920448D01*
X135901600Y-89101021D01*
X135901705Y-89098482D01*
X135974482Y-88220191D01*
X135975031Y-88216420D01*
X135996713Y-88113016D01*
X136061073Y-87806066D01*
X136061697Y-87803602D01*
X136109189Y-87644080D01*
X136183824Y-87393387D01*
X136184642Y-87391004D01*
X136340220Y-86992293D01*
X136341240Y-86989966D01*
X136529216Y-86605454D01*
X136530426Y-86603219D01*
X136689857Y-86335658D01*
X136749510Y-86235547D01*
X136750888Y-86233437D01*
X136999597Y-85885099D01*
X137001158Y-85883093D01*
X137277765Y-85556503D01*
X137279486Y-85554633D01*
X137582133Y-85251986D01*
X137584003Y-85250265D01*
X137910593Y-84973658D01*
X137912599Y-84972097D01*
X138010550Y-84902161D01*
X138260937Y-84723388D01*
X138263047Y-84722010D01*
X138488068Y-84587927D01*
X138630719Y-84502926D01*
X138632954Y-84501716D01*
X139017466Y-84313740D01*
X139019793Y-84312720D01*
X139095822Y-84283053D01*
X139418504Y-84157142D01*
X139420887Y-84156324D01*
X139769398Y-84052567D01*
X139831102Y-84034197D01*
X139833566Y-84033573D01*
X139876288Y-84024615D01*
X140252471Y-83945738D01*
X140254956Y-83945324D01*
X140679679Y-83892382D01*
X140682191Y-83892174D01*
X141118539Y-83874126D01*
X141119809Y-83874100D01*
X146890073Y-83874100D01*
X146891682Y-83874142D01*
X147224471Y-83891582D01*
X147227672Y-83891919D01*
X147230602Y-83892383D01*
X147545899Y-83942321D01*
X147549034Y-83942987D01*
X147680847Y-83978307D01*
X147860261Y-84026382D01*
X147863322Y-84027376D01*
X148164135Y-84142847D01*
X148167075Y-84144157D01*
X148454142Y-84290425D01*
X148456930Y-84292034D01*
X148727148Y-84467516D01*
X148729752Y-84469408D01*
X148980148Y-84672173D01*
X148982540Y-84674326D01*
X149210375Y-84902161D01*
X149212528Y-84904553D01*
X149415286Y-85154939D01*
X149417178Y-85157543D01*
X149592666Y-85427770D01*
X149594275Y-85430558D01*
X149740543Y-85717625D01*
X149741853Y-85720565D01*
X149857325Y-86021380D01*
X149858319Y-86024441D01*
X149898129Y-86173010D01*
X149936693Y-86316930D01*
X149941711Y-86335658D01*
X149942379Y-86338800D01*
X149975157Y-86545752D01*
X149992781Y-86657028D01*
X149993118Y-86660229D01*
X150008818Y-86959823D01*
X150008481Y-86966242D01*
X150005732Y-86983600D01*
X150006111Y-86985993D01*
X150010221Y-87011942D01*
X150010600Y-87016752D01*
X150010600Y-89499680D01*
X150010402Y-89503160D01*
X150009631Y-89509927D01*
X150009684Y-89511131D01*
X150010571Y-89531457D01*
X150010600Y-89532798D01*
X150010600Y-89554335D01*
X150010789Y-89555525D01*
X150010789Y-89555531D01*
X150011665Y-89561058D01*
X150012015Y-89564527D01*
X150029120Y-89956283D01*
X150030651Y-89991358D01*
X150030669Y-89993493D01*
X150030249Y-90009511D01*
X150031861Y-90021757D01*
X150032093Y-90024408D01*
X150032632Y-90036750D01*
X150032873Y-90037933D01*
X150035827Y-90052456D01*
X150036181Y-90054572D01*
X150093146Y-90487257D01*
X150093352Y-90489393D01*
X150094331Y-90505394D01*
X150094592Y-90506571D01*
X150097003Y-90517448D01*
X150097469Y-90520089D01*
X150099080Y-90532325D01*
X150099422Y-90533479D01*
X150099422Y-90533480D01*
X150103631Y-90547689D01*
X150104168Y-90549767D01*
X150198626Y-90975841D01*
X150199017Y-90977951D01*
X150201387Y-90993807D01*
X150205100Y-91005584D01*
X150205794Y-91008174D01*
X150208465Y-91020220D01*
X150208904Y-91021335D01*
X150208906Y-91021341D01*
X150214335Y-91035124D01*
X150215052Y-91037147D01*
X150346290Y-91453382D01*
X150346863Y-91455450D01*
X150350604Y-91471030D01*
X150355328Y-91482434D01*
X150356245Y-91484954D01*
X150359957Y-91496726D01*
X150367115Y-91511083D01*
X150367987Y-91512996D01*
X150409803Y-91613949D01*
X150535010Y-91916225D01*
X150535762Y-91918236D01*
X150540847Y-91933433D01*
X150546548Y-91944384D01*
X150547675Y-91946802D01*
X150551939Y-91957096D01*
X150551942Y-91957101D01*
X150552403Y-91958215D01*
X150553033Y-91959243D01*
X150553034Y-91959245D01*
X150560770Y-91971870D01*
X150561827Y-91973737D01*
X150763361Y-92360881D01*
X150764280Y-92362809D01*
X150770666Y-92377494D01*
X150771309Y-92378503D01*
X150771313Y-92378511D01*
X150777300Y-92387909D01*
X150778637Y-92390225D01*
X150784338Y-92401176D01*
X150785056Y-92402147D01*
X150785059Y-92402151D01*
X150793881Y-92414074D01*
X150795096Y-92415842D01*
X151029566Y-92783886D01*
X151030655Y-92785734D01*
X151037734Y-92798770D01*
X151038313Y-92799836D01*
X151039050Y-92800796D01*
X151045835Y-92809639D01*
X151047373Y-92811836D01*
X151053998Y-92822235D01*
X151054799Y-92823140D01*
X151054801Y-92823143D01*
X151064609Y-92834228D01*
X151065975Y-92835885D01*
X151331660Y-93182132D01*
X151332906Y-93183879D01*
X151341752Y-93197244D01*
X151342569Y-93198135D01*
X151342574Y-93198142D01*
X151350093Y-93206347D01*
X151351819Y-93208404D01*
X151358591Y-93217231D01*
X151358600Y-93217241D01*
X151359329Y-93218191D01*
X151360203Y-93219020D01*
X151370955Y-93229224D01*
X151372459Y-93230755D01*
X151667307Y-93552525D01*
X151668695Y-93554149D01*
X151678672Y-93566692D01*
X151687777Y-93575035D01*
X151689655Y-93576913D01*
X151698008Y-93586029D01*
X151710566Y-93596018D01*
X151712190Y-93597406D01*
X152033945Y-93892241D01*
X152035476Y-93893745D01*
X152046509Y-93905371D01*
X152047459Y-93906100D01*
X152047469Y-93906109D01*
X152056296Y-93912881D01*
X152058353Y-93914607D01*
X152066557Y-93922125D01*
X152066563Y-93922130D01*
X152067456Y-93922948D01*
X152068465Y-93923616D01*
X152068469Y-93923619D01*
X152080826Y-93931798D01*
X152082562Y-93933036D01*
X152396928Y-94174257D01*
X152428809Y-94198720D01*
X152430463Y-94200083D01*
X152442465Y-94210702D01*
X152443487Y-94211353D01*
X152452870Y-94217331D01*
X152455067Y-94218869D01*
X152464865Y-94226387D01*
X152465927Y-94226963D01*
X152465926Y-94226963D01*
X152478960Y-94234040D01*
X152480809Y-94235130D01*
X152848872Y-94469613D01*
X152850634Y-94470824D01*
X152862552Y-94479643D01*
X152862560Y-94479648D01*
X152863525Y-94480362D01*
X152874477Y-94486063D01*
X152876801Y-94487405D01*
X152886182Y-94493382D01*
X152886186Y-94493384D01*
X152887206Y-94494034D01*
X152901920Y-94500432D01*
X152903816Y-94501337D01*
X153238277Y-94675446D01*
X153290960Y-94702871D01*
X153292828Y-94703928D01*
X153306485Y-94712297D01*
X153307604Y-94712760D01*
X153307603Y-94712760D01*
X153317883Y-94717018D01*
X153320315Y-94718152D01*
X153330195Y-94723296D01*
X153330201Y-94723299D01*
X153331268Y-94723854D01*
X153332407Y-94724235D01*
X153332409Y-94724236D01*
X153346471Y-94728941D01*
X153348481Y-94729693D01*
X153751688Y-94896707D01*
X153753640Y-94897597D01*
X153766889Y-94904203D01*
X153766899Y-94904207D01*
X153767974Y-94904743D01*
X153769122Y-94905105D01*
X153779746Y-94908455D01*
X153782248Y-94909365D01*
X153793669Y-94914096D01*
X153803514Y-94916460D01*
X153809254Y-94917838D01*
X153811321Y-94918411D01*
X154227553Y-95049648D01*
X154229576Y-95050365D01*
X154243351Y-95055791D01*
X154243359Y-95055793D01*
X154244480Y-95056235D01*
X154256526Y-95058905D01*
X154259095Y-95059593D01*
X154270893Y-95063313D01*
X154286749Y-95065682D01*
X154288848Y-95066071D01*
X154714941Y-95160534D01*
X154717007Y-95161068D01*
X154732376Y-95165620D01*
X154742053Y-95166894D01*
X154744612Y-95167231D01*
X154747253Y-95167697D01*
X154756531Y-95169753D01*
X154759307Y-95170369D01*
X154767302Y-95170858D01*
X154775308Y-95171348D01*
X154777444Y-95171554D01*
X155040907Y-95206240D01*
X155062461Y-95219643D01*
X155070887Y-95232253D01*
X155113569Y-95296131D01*
X155116088Y-95297814D01*
X155116089Y-95297815D01*
X155189944Y-95347164D01*
X155203019Y-95366733D01*
X155198428Y-95389816D01*
X155189944Y-95398300D01*
X155133030Y-95436328D01*
X155128828Y-95440530D01*
X155079591Y-95514219D01*
X155077318Y-95519708D01*
X155064395Y-95584674D01*
X155064100Y-95587671D01*
X155064100Y-95758983D01*
X155065892Y-95763308D01*
X155070217Y-95765100D01*
X156481983Y-95765100D01*
X156486308Y-95763308D01*
X156488100Y-95758983D01*
X156488100Y-95587671D01*
X156487805Y-95584674D01*
X156474882Y-95519708D01*
X156472609Y-95514219D01*
X156423372Y-95440530D01*
X156419170Y-95436328D01*
X156362256Y-95398300D01*
X156349181Y-95378731D01*
X156353772Y-95355648D01*
X156362256Y-95347164D01*
X156436111Y-95297815D01*
X156436112Y-95297814D01*
X156438631Y-95296131D01*
X156496428Y-95209632D01*
X156504652Y-95168287D01*
X156511305Y-95134840D01*
X156511305Y-95134838D01*
X156511600Y-95133356D01*
X156511600Y-94593844D01*
X156496428Y-94517568D01*
X156438631Y-94431069D01*
X156352132Y-94373272D01*
X156317579Y-94366399D01*
X156277340Y-94358395D01*
X156277338Y-94358395D01*
X156275856Y-94358100D01*
X155276344Y-94358100D01*
X155274862Y-94358395D01*
X155274860Y-94358395D01*
X155234621Y-94366399D01*
X155200068Y-94373272D01*
X155197550Y-94374954D01*
X155197551Y-94374954D01*
X155126946Y-94422131D01*
X155105848Y-94427050D01*
X154883019Y-94397714D01*
X154880377Y-94397248D01*
X154461480Y-94304381D01*
X154458889Y-94303687D01*
X154049668Y-94174659D01*
X154047147Y-94173741D01*
X153650758Y-94009551D01*
X153648327Y-94008418D01*
X153267718Y-93810286D01*
X153265395Y-93808944D01*
X152903533Y-93578412D01*
X152901336Y-93576874D01*
X152560921Y-93315664D01*
X152558866Y-93313939D01*
X152242528Y-93024068D01*
X152240631Y-93022171D01*
X151950761Y-92705835D01*
X151949036Y-92703780D01*
X151687826Y-92363365D01*
X151686288Y-92361168D01*
X151455758Y-91999308D01*
X151454416Y-91996985D01*
X151256285Y-91616380D01*
X151255152Y-91613949D01*
X151090958Y-91217552D01*
X151090040Y-91215031D01*
X150961013Y-90805809D01*
X150960319Y-90803218D01*
X150867452Y-90384323D01*
X150866986Y-90381681D01*
X150857573Y-90310182D01*
X150810979Y-89956272D01*
X150810746Y-89953610D01*
X150791629Y-89515737D01*
X150791600Y-89514396D01*
X150791600Y-87016752D01*
X150791979Y-87011942D01*
X150796089Y-86985993D01*
X150796468Y-86983600D01*
X150792702Y-86959823D01*
X150790246Y-86944315D01*
X150789909Y-86941114D01*
X150772469Y-86608332D01*
X150772427Y-86606723D01*
X150772427Y-86587019D01*
X150772239Y-86585830D01*
X150772238Y-86585822D01*
X150771073Y-86578470D01*
X150770736Y-86575268D01*
X150770346Y-86567828D01*
X150770283Y-86566620D01*
X150766184Y-86547335D01*
X150765891Y-86545752D01*
X150712040Y-86205749D01*
X150711829Y-86204154D01*
X150710405Y-86190608D01*
X150709766Y-86184527D01*
X150707523Y-86176156D01*
X150706854Y-86173010D01*
X150705690Y-86165657D01*
X150705689Y-86165654D01*
X150705501Y-86164465D01*
X150699406Y-86145706D01*
X150698964Y-86144211D01*
X150612057Y-85819873D01*
X150609852Y-85811643D01*
X150609476Y-85810078D01*
X150605626Y-85791970D01*
X150605376Y-85790792D01*
X150604944Y-85789666D01*
X150604942Y-85789660D01*
X150602270Y-85782697D01*
X150601276Y-85779640D01*
X150601268Y-85779612D01*
X150599037Y-85771284D01*
X150591024Y-85753287D01*
X150590410Y-85751804D01*
X150578419Y-85720565D01*
X150467025Y-85430375D01*
X150466488Y-85428858D01*
X150460401Y-85410124D01*
X150457754Y-85404929D01*
X150456470Y-85402408D01*
X150455160Y-85399468D01*
X150452058Y-85391386D01*
X150446261Y-85381345D01*
X150442202Y-85374314D01*
X150441434Y-85372899D01*
X150285142Y-85066159D01*
X150284448Y-85064706D01*
X150276920Y-85047797D01*
X150276918Y-85047793D01*
X150276429Y-85046695D01*
X150275774Y-85045687D01*
X150275770Y-85045679D01*
X150271718Y-85039441D01*
X150270107Y-85036651D01*
X150266725Y-85030013D01*
X150266724Y-85030011D01*
X150266174Y-85028932D01*
X150265466Y-85027958D01*
X150265459Y-85027946D01*
X150254584Y-85012978D01*
X150253672Y-85011652D01*
X150066163Y-84722914D01*
X150065322Y-84721541D01*
X150056082Y-84705537D01*
X150055477Y-84704489D01*
X150050031Y-84697764D01*
X150048142Y-84695163D01*
X150044076Y-84688902D01*
X150044071Y-84688896D01*
X150043420Y-84687893D01*
X150042617Y-84687001D01*
X150042613Y-84686996D01*
X150030224Y-84673236D01*
X150029179Y-84672013D01*
X149812523Y-84404463D01*
X149811543Y-84403186D01*
X149808748Y-84399339D01*
X149799965Y-84387251D01*
X149793838Y-84381124D01*
X149791695Y-84378743D01*
X149786241Y-84372008D01*
X149785355Y-84371210D01*
X149785351Y-84371206D01*
X149771593Y-84358819D01*
X149770425Y-84357711D01*
X149526982Y-84114268D01*
X149525874Y-84113100D01*
X149513494Y-84099350D01*
X149513490Y-84099346D01*
X149512692Y-84098460D01*
X149505973Y-84093019D01*
X149503581Y-84090867D01*
X149497449Y-84084735D01*
X149481503Y-84073149D01*
X149480226Y-84072169D01*
X149212686Y-83855520D01*
X149211463Y-83854475D01*
X149197704Y-83842087D01*
X149197699Y-83842083D01*
X149196807Y-83841280D01*
X149195804Y-83840629D01*
X149195798Y-83840624D01*
X149189537Y-83836558D01*
X149186934Y-83834667D01*
X149181151Y-83829984D01*
X149181150Y-83829983D01*
X149180211Y-83829223D01*
X149179168Y-83828621D01*
X149179161Y-83828616D01*
X149163145Y-83819370D01*
X149161771Y-83818528D01*
X149155051Y-83814164D01*
X148873012Y-83631004D01*
X148871730Y-83630123D01*
X148855768Y-83618526D01*
X148848053Y-83614595D01*
X148845273Y-83612989D01*
X148839027Y-83608933D01*
X148839018Y-83608928D01*
X148838006Y-83608271D01*
X148819966Y-83600239D01*
X148818563Y-83599569D01*
X148691082Y-83534614D01*
X148511801Y-83443266D01*
X148510386Y-83442498D01*
X148494364Y-83433248D01*
X148494361Y-83433247D01*
X148493314Y-83432642D01*
X148485230Y-83429539D01*
X148482292Y-83428230D01*
X148475658Y-83424850D01*
X148475654Y-83424849D01*
X148474576Y-83424299D01*
X148455836Y-83418210D01*
X148454331Y-83417677D01*
X148132881Y-83294285D01*
X148131399Y-83293670D01*
X148114521Y-83286155D01*
X148113416Y-83285663D01*
X148105060Y-83283424D01*
X148102003Y-83282430D01*
X148095040Y-83279758D01*
X148095034Y-83279756D01*
X148093908Y-83279324D01*
X148084064Y-83277232D01*
X148074622Y-83275224D01*
X148073057Y-83274848D01*
X147918764Y-83233505D01*
X147740492Y-83185737D01*
X147738997Y-83185295D01*
X147720235Y-83179199D01*
X147711687Y-83177845D01*
X147708546Y-83177178D01*
X147700172Y-83174934D01*
X147698979Y-83174809D01*
X147698965Y-83174806D01*
X147680548Y-83172870D01*
X147678953Y-83172660D01*
X147338948Y-83118809D01*
X147337365Y-83118516D01*
X147330340Y-83117023D01*
X147318080Y-83114417D01*
X147312682Y-83114134D01*
X147309432Y-83113964D01*
X147306230Y-83113627D01*
X147298878Y-83112462D01*
X147298870Y-83112461D01*
X147297681Y-83112273D01*
X147277977Y-83112273D01*
X147276368Y-83112231D01*
X146943586Y-83094791D01*
X146940385Y-83094454D01*
X146933034Y-83093290D01*
X146933035Y-83093290D01*
X146931835Y-83093100D01*
X146912127Y-83093100D01*
X146910518Y-83093058D01*
X146892054Y-83092090D01*
X146892049Y-83092090D01*
X146890844Y-83092027D01*
X146889647Y-83092153D01*
X146889641Y-83092153D01*
X146882233Y-83092932D01*
X146879019Y-83093100D01*
X141135509Y-83093100D01*
X141131958Y-83092894D01*
X141126878Y-83092303D01*
X141126874Y-83092303D01*
X141125671Y-83092163D01*
X141124461Y-83092213D01*
X141124460Y-83092213D01*
X141107997Y-83092894D01*
X141104033Y-83093058D01*
X141103646Y-83093074D01*
X141102375Y-83093100D01*
X141080365Y-83093100D01*
X141074115Y-83094090D01*
X141070586Y-83094441D01*
X140721695Y-83108872D01*
X140648185Y-83111913D01*
X140645901Y-83111922D01*
X140630853Y-83111424D01*
X140629658Y-83111573D01*
X140629656Y-83111573D01*
X140617640Y-83113070D01*
X140615111Y-83113280D01*
X140603010Y-83113781D01*
X140603006Y-83113781D01*
X140601810Y-83113831D01*
X140587044Y-83116800D01*
X140584806Y-83117163D01*
X140174821Y-83168269D01*
X140156628Y-83170537D01*
X140154348Y-83170735D01*
X140139314Y-83171481D01*
X140138128Y-83171730D01*
X140138126Y-83171730D01*
X140135835Y-83172211D01*
X140126276Y-83174215D01*
X140123784Y-83174631D01*
X140114862Y-83175743D01*
X140111764Y-83176129D01*
X140111763Y-83176129D01*
X140110569Y-83176278D01*
X140109408Y-83176613D01*
X140109409Y-83176613D01*
X140096112Y-83180452D01*
X140093892Y-83181005D01*
X139671580Y-83269554D01*
X139669326Y-83269939D01*
X139655614Y-83271763D01*
X139655608Y-83271764D01*
X139654415Y-83271923D01*
X139641646Y-83275724D01*
X139639211Y-83276341D01*
X139626163Y-83279077D01*
X139625024Y-83279510D01*
X139625026Y-83279510D01*
X139612090Y-83284434D01*
X139609924Y-83285168D01*
X139196392Y-83408282D01*
X139194176Y-83408852D01*
X139179465Y-83412064D01*
X139178348Y-83412500D01*
X139178331Y-83412505D01*
X139167051Y-83416907D01*
X139164651Y-83417732D01*
X139163884Y-83417960D01*
X139153061Y-83421182D01*
X139153058Y-83421183D01*
X139151903Y-83421527D01*
X139150815Y-83422048D01*
X139150812Y-83422049D01*
X139138329Y-83428025D01*
X139136232Y-83428934D01*
X139127832Y-83432212D01*
X138734263Y-83585783D01*
X138732104Y-83586535D01*
X138717712Y-83590949D01*
X138705756Y-83596794D01*
X138703434Y-83597812D01*
X138692160Y-83602211D01*
X138692152Y-83602215D01*
X138691024Y-83602655D01*
X138678013Y-83610263D01*
X138676023Y-83611329D01*
X138288365Y-83800844D01*
X138286276Y-83801770D01*
X138272307Y-83807354D01*
X138271269Y-83807973D01*
X138271262Y-83807976D01*
X138260877Y-83814164D01*
X138258643Y-83815373D01*
X138247771Y-83820688D01*
X138247764Y-83820692D01*
X138246676Y-83821224D01*
X138245680Y-83821923D01*
X138234347Y-83829874D01*
X138232426Y-83831118D01*
X138216473Y-83840624D01*
X137861768Y-84051981D01*
X137859767Y-84053075D01*
X137847373Y-84059261D01*
X137847364Y-84059266D01*
X137846293Y-84059801D01*
X137845313Y-84060501D01*
X137835465Y-84067532D01*
X137833339Y-84068921D01*
X137821896Y-84075740D01*
X137820969Y-84076512D01*
X137820965Y-84076515D01*
X137810324Y-84085378D01*
X137808519Y-84086771D01*
X137521030Y-84292034D01*
X137457352Y-84337499D01*
X137455442Y-84338758D01*
X137442583Y-84346565D01*
X137441666Y-84347342D01*
X137441660Y-84347346D01*
X137432429Y-84355164D01*
X137430424Y-84356725D01*
X137419585Y-84364464D01*
X137418733Y-84365302D01*
X137418720Y-84365313D01*
X137408845Y-84375028D01*
X137407164Y-84376564D01*
X137077913Y-84655425D01*
X137076112Y-84656838D01*
X137064911Y-84664975D01*
X137064903Y-84664982D01*
X137063931Y-84665688D01*
X137054513Y-84675106D01*
X137052642Y-84676827D01*
X137043417Y-84684640D01*
X137043411Y-84684646D01*
X137042490Y-84685426D01*
X137041702Y-84686341D01*
X137032670Y-84696828D01*
X137031114Y-84698505D01*
X136726005Y-85003614D01*
X136724328Y-85005170D01*
X136712926Y-85014990D01*
X136712146Y-85015911D01*
X136712140Y-85015917D01*
X136704327Y-85025142D01*
X136702606Y-85027013D01*
X136693188Y-85036431D01*
X136692482Y-85037403D01*
X136692475Y-85037411D01*
X136684338Y-85048612D01*
X136682928Y-85050409D01*
X136404064Y-85379664D01*
X136402528Y-85381345D01*
X136392813Y-85391220D01*
X136392802Y-85391233D01*
X136391964Y-85392085D01*
X136391264Y-85393066D01*
X136384225Y-85402924D01*
X136382664Y-85404929D01*
X136374846Y-85414160D01*
X136374842Y-85414166D01*
X136374065Y-85415083D01*
X136373441Y-85416111D01*
X136366258Y-85427942D01*
X136364999Y-85429852D01*
X136122007Y-85770185D01*
X136114273Y-85781017D01*
X136112891Y-85782809D01*
X136103240Y-85794396D01*
X136102625Y-85795429D01*
X136102623Y-85795431D01*
X136096422Y-85805838D01*
X136095033Y-85807963D01*
X136087301Y-85818793D01*
X136086766Y-85819864D01*
X136086761Y-85819873D01*
X136080575Y-85832267D01*
X136079478Y-85834274D01*
X135858618Y-86204926D01*
X135857374Y-86206847D01*
X135848724Y-86219176D01*
X135848192Y-86220264D01*
X135848188Y-86220271D01*
X135842873Y-86231143D01*
X135841664Y-86233377D01*
X135835476Y-86243762D01*
X135835473Y-86243769D01*
X135834854Y-86244807D01*
X135829271Y-86258773D01*
X135828344Y-86260863D01*
X135790240Y-86338807D01*
X135642224Y-86641580D01*
X135638834Y-86648514D01*
X135637771Y-86650498D01*
X135630155Y-86663524D01*
X135629715Y-86664652D01*
X135629711Y-86664660D01*
X135625312Y-86675934D01*
X135624294Y-86678256D01*
X135618449Y-86690212D01*
X135618095Y-86691366D01*
X135614035Y-86704603D01*
X135613283Y-86706763D01*
X135481535Y-87044405D01*
X135456433Y-87108735D01*
X135455532Y-87110813D01*
X135449027Y-87124403D01*
X135448683Y-87125559D01*
X135445233Y-87137147D01*
X135444407Y-87139551D01*
X135440005Y-87150831D01*
X135440000Y-87150848D01*
X135439564Y-87151965D01*
X135436886Y-87164229D01*
X135436352Y-87166676D01*
X135435782Y-87168891D01*
X135312667Y-87582430D01*
X135311937Y-87584586D01*
X135306577Y-87598663D01*
X135303841Y-87611711D01*
X135303224Y-87614146D01*
X135299423Y-87626915D01*
X135299264Y-87628108D01*
X135299263Y-87628114D01*
X135297439Y-87641826D01*
X135297054Y-87644080D01*
X135206720Y-88074902D01*
X135206495Y-88075893D01*
X135201136Y-88097818D01*
X135200849Y-88098993D01*
X135200749Y-88100198D01*
X135200749Y-88100199D01*
X135200471Y-88103555D01*
X135199921Y-88107328D01*
X135199229Y-88110630D01*
X135198981Y-88111814D01*
X135198922Y-88113012D01*
X135198921Y-88113016D01*
X135197802Y-88135551D01*
X135197735Y-88136564D01*
X135123229Y-89035725D01*
X135122955Y-89037996D01*
X135120600Y-89052865D01*
X135120600Y-89066181D01*
X135120495Y-89068720D01*
X135119396Y-89081983D01*
X135119486Y-89083190D01*
X135120515Y-89096995D01*
X135120600Y-89099281D01*
X135120600Y-96920448D01*
X135120221Y-96925258D01*
X135115732Y-96953600D01*
X135116111Y-96955992D01*
X135116111Y-96955994D01*
X135116951Y-96961298D01*
X135117182Y-96969122D01*
X135106832Y-97074205D01*
X135105656Y-97080116D01*
X135077450Y-97173100D01*
X135073596Y-97181250D01*
X134961639Y-97348805D01*
X134908939Y-97427675D01*
X134905115Y-97432335D01*
X134817973Y-97519477D01*
X134752509Y-97584940D01*
X134497362Y-97936120D01*
X134492461Y-97941423D01*
X134483341Y-97949212D01*
X134459673Y-97987834D01*
X134458344Y-97989824D01*
X134449994Y-98001317D01*
X134449444Y-98002397D01*
X134449440Y-98002403D01*
X134443552Y-98013958D01*
X134442373Y-98016065D01*
X134434968Y-98028149D01*
X134429534Y-98041267D01*
X134428534Y-98043434D01*
X134409064Y-98081647D01*
X134409063Y-98081650D01*
X134407964Y-98083807D01*
X134406087Y-98095659D01*
X134404128Y-98102602D01*
X134359891Y-98209400D01*
X134334441Y-98270843D01*
X134324460Y-98294938D01*
X134324177Y-98296117D01*
X134314955Y-98334528D01*
X134301122Y-98353569D01*
X134285055Y-98358100D01*
X134126344Y-98358100D01*
X134124862Y-98358395D01*
X134124860Y-98358395D01*
X134070107Y-98369286D01*
X134050068Y-98373272D01*
X133963569Y-98431069D01*
X133905772Y-98517568D01*
X133890600Y-98593844D01*
X133890600Y-99133356D01*
X133311600Y-99133356D01*
X133311600Y-98593844D01*
X133296428Y-98517568D01*
X133238631Y-98431069D01*
X133152132Y-98373272D01*
X133132093Y-98369286D01*
X133077340Y-98358395D01*
X133077338Y-98358395D01*
X133075856Y-98358100D01*
X132997350Y-98358100D01*
X132975606Y-98349094D01*
X132966600Y-98327350D01*
X132966600Y-77253600D01*
X144401100Y-77253600D01*
X144446677Y-77774545D01*
X144582022Y-78279660D01*
X144582589Y-78280876D01*
X144595851Y-78309317D01*
X144803024Y-78753600D01*
X145102967Y-79181963D01*
X145472737Y-79551733D01*
X145901100Y-79851676D01*
X146375040Y-80072678D01*
X146376336Y-80073025D01*
X146376338Y-80073026D01*
X146681783Y-80154869D01*
X146880155Y-80208023D01*
X147401100Y-80253600D01*
X147922045Y-80208023D01*
X148120417Y-80154869D01*
X148425862Y-80073026D01*
X148425864Y-80073025D01*
X148427160Y-80072678D01*
X148901100Y-79851676D01*
X149329463Y-79551733D01*
X149699233Y-79181963D01*
X149999176Y-78753600D01*
X150206349Y-78309317D01*
X150219611Y-78280876D01*
X150220178Y-78279660D01*
X150355523Y-77774545D01*
X150401100Y-77253600D01*
X150355523Y-76732655D01*
X150258681Y-76371235D01*
X150220526Y-76228838D01*
X150220525Y-76228836D01*
X150220178Y-76227540D01*
X149999176Y-75753600D01*
X149699233Y-75325237D01*
X149329463Y-74955467D01*
X148901100Y-74655524D01*
X148427160Y-74434522D01*
X148425864Y-74434175D01*
X148425862Y-74434174D01*
X147923347Y-74299526D01*
X147923348Y-74299526D01*
X147922045Y-74299177D01*
X147401100Y-74253600D01*
X146880155Y-74299177D01*
X146878852Y-74299526D01*
X146878853Y-74299526D01*
X146376338Y-74434174D01*
X146376336Y-74434175D01*
X146375040Y-74434522D01*
X145901100Y-74655524D01*
X145472737Y-74955467D01*
X145102967Y-75325237D01*
X144803024Y-75753600D01*
X144582022Y-76227540D01*
X144581675Y-76228836D01*
X144581674Y-76228838D01*
X144543519Y-76371235D01*
X144446677Y-76732655D01*
X144401100Y-77253600D01*
X132966600Y-77253600D01*
X132966600Y-76373652D01*
X132966979Y-76368842D01*
X132971089Y-76342893D01*
X132971089Y-76342891D01*
X132971468Y-76340500D01*
X132964814Y-76298487D01*
X132964501Y-76295688D01*
X132949015Y-76059416D01*
X132948973Y-76058612D01*
X132948030Y-76034617D01*
X132947983Y-76033408D01*
X132947373Y-76030341D01*
X132946848Y-76026352D01*
X132946723Y-76024442D01*
X132946723Y-76024440D01*
X132946644Y-76023239D01*
X132941075Y-75998628D01*
X132940908Y-75997840D01*
X132895671Y-75770427D01*
X132892029Y-75752116D01*
X132891884Y-75751336D01*
X132887810Y-75727627D01*
X132887607Y-75726443D01*
X132886599Y-75723474D01*
X132885562Y-75719600D01*
X132885189Y-75717727D01*
X132885187Y-75717720D01*
X132884951Y-75716534D01*
X132876232Y-75692901D01*
X132875964Y-75692144D01*
X132795410Y-75454841D01*
X132795161Y-75454075D01*
X132788039Y-75431139D01*
X132787681Y-75429985D01*
X132787145Y-75428898D01*
X132786296Y-75427175D01*
X132784759Y-75423463D01*
X132784146Y-75421658D01*
X132784144Y-75421654D01*
X132783755Y-75420507D01*
X132772015Y-75398193D01*
X132771649Y-75397475D01*
X132684149Y-75220042D01*
X132681493Y-75212046D01*
X132681281Y-75210901D01*
X132681281Y-75210900D01*
X132680840Y-75208522D01*
X132655271Y-75161428D01*
X132654720Y-75160364D01*
X132645324Y-75141311D01*
X132645321Y-75141307D01*
X132644786Y-75140221D01*
X132641386Y-75135410D01*
X132639474Y-75132336D01*
X132636665Y-75127162D01*
X132622997Y-75109349D01*
X132622281Y-75108378D01*
X132591353Y-75064616D01*
X132588482Y-75062472D01*
X132582485Y-75056553D01*
X132303456Y-74692916D01*
X132302984Y-74692283D01*
X132297779Y-74685119D01*
X132288170Y-74671893D01*
X132285957Y-74669680D01*
X132283306Y-74666656D01*
X132282145Y-74665143D01*
X132281406Y-74664180D01*
X132263106Y-74646814D01*
X132262529Y-74646252D01*
X132093532Y-74477254D01*
X132084837Y-74459870D01*
X132078588Y-74416237D01*
X132078277Y-74414064D01*
X132026200Y-74299526D01*
X132020842Y-74287741D01*
X132020840Y-74287738D01*
X132019934Y-74285745D01*
X131927921Y-74178958D01*
X131926083Y-74177766D01*
X131926081Y-74177765D01*
X131811473Y-74103480D01*
X131811471Y-74103479D01*
X131809635Y-74102289D01*
X131733157Y-74079418D01*
X131676686Y-74062529D01*
X131676684Y-74062529D01*
X131674585Y-74061901D01*
X131604615Y-74061474D01*
X131535824Y-74061053D01*
X131535821Y-74061053D01*
X131533628Y-74061040D01*
X131398094Y-74099775D01*
X131396245Y-74100942D01*
X131396242Y-74100943D01*
X131280733Y-74173825D01*
X131280731Y-74173827D01*
X131278881Y-74174994D01*
X131185570Y-74280648D01*
X131184637Y-74282634D01*
X131184637Y-74282635D01*
X131126594Y-74406262D01*
X131126593Y-74406265D01*
X131125664Y-74408244D01*
X131125327Y-74410406D01*
X131125327Y-74410407D01*
X131108989Y-74515339D01*
X131103977Y-74547526D01*
X123272985Y-74547526D01*
X123265967Y-74515339D01*
X123238492Y-74435089D01*
X123192078Y-74299526D01*
X123153883Y-74187967D01*
X123112718Y-74101662D01*
X123005302Y-73876462D01*
X123004914Y-73875648D01*
X122953466Y-73793633D01*
X122821509Y-73583274D01*
X122821504Y-73583266D01*
X122821036Y-73582521D01*
X122604685Y-73312471D01*
X122604052Y-73311845D01*
X122604047Y-73311839D01*
X122359367Y-73069708D01*
X122359364Y-73069705D01*
X122358729Y-73069077D01*
X122281302Y-73008366D01*
X122087127Y-72856114D01*
X122087126Y-72856113D01*
X122086428Y-72855566D01*
X122085682Y-72855109D01*
X122085675Y-72855104D01*
X121792140Y-72675227D01*
X121791391Y-72674768D01*
X121790602Y-72674402D01*
X121790595Y-72674398D01*
X121478332Y-72529450D01*
X121478328Y-72529448D01*
X121477530Y-72529078D01*
X121476696Y-72528802D01*
X121476688Y-72528799D01*
X121214887Y-72442217D01*
X121149003Y-72420428D01*
X120810165Y-72350258D01*
X120809293Y-72350180D01*
X120809285Y-72350179D01*
X120506543Y-72323160D01*
X120506536Y-72323160D01*
X120505867Y-72323100D01*
X120282911Y-72323100D01*
X120282478Y-72323125D01*
X120282477Y-72323125D01*
X120026530Y-72337883D01*
X120026529Y-72337883D01*
X120025647Y-72337934D01*
X120024778Y-72338086D01*
X120024775Y-72338086D01*
X119909000Y-72358292D01*
X119684772Y-72397426D01*
X119683927Y-72397676D01*
X119683924Y-72397677D01*
X119533560Y-72442217D01*
X119352994Y-72495703D01*
X119352187Y-72496047D01*
X119352182Y-72496049D01*
X119290075Y-72522540D01*
X119034711Y-72631462D01*
X119033937Y-72631904D01*
X119033936Y-72631904D01*
X118996118Y-72653475D01*
X118734141Y-72802904D01*
X118455268Y-73007757D01*
X118201788Y-73243305D01*
X117977062Y-73506426D01*
X117976575Y-73507151D01*
X117976571Y-73507156D01*
X117925928Y-73582521D01*
X117784067Y-73793633D01*
X117625361Y-74101118D01*
X117625046Y-74101952D01*
X117625045Y-74101954D01*
X117624468Y-74103480D01*
X117503050Y-74424807D01*
X117418752Y-74760410D01*
X117418636Y-74761288D01*
X117418636Y-74761290D01*
X117381364Y-75044405D01*
X117373587Y-75103476D01*
X117368151Y-75449461D01*
X108701100Y-75449461D01*
X108701100Y-72097607D01*
X110800600Y-72097607D01*
X110800601Y-72209592D01*
X110807271Y-72282194D01*
X110857973Y-72443983D01*
X110858931Y-72445566D01*
X110858933Y-72445569D01*
X110889296Y-72495703D01*
X110945803Y-72589008D01*
X111065692Y-72708897D01*
X111138205Y-72752812D01*
X111209131Y-72795767D01*
X111209134Y-72795769D01*
X111210717Y-72796727D01*
X111298013Y-72824084D01*
X111370954Y-72846943D01*
X111370957Y-72846944D01*
X111372506Y-72847429D01*
X111374127Y-72847578D01*
X111374138Y-72847579D01*
X111445107Y-72854100D01*
X111501060Y-72854100D01*
X111557092Y-72854099D01*
X111557798Y-72854034D01*
X111557801Y-72854034D01*
X111628065Y-72847579D01*
X111628068Y-72847578D01*
X111629694Y-72847429D01*
X111791483Y-72796727D01*
X111793066Y-72795769D01*
X111793069Y-72795767D01*
X111863995Y-72752812D01*
X111936508Y-72708897D01*
X112056397Y-72589008D01*
X112112904Y-72495703D01*
X112143267Y-72445569D01*
X112143269Y-72445566D01*
X112144227Y-72443983D01*
X112193330Y-72287296D01*
X112194443Y-72283746D01*
X112194444Y-72283743D01*
X112194929Y-72282194D01*
X112201600Y-72209593D01*
X112201599Y-72147526D01*
X155703977Y-72147526D01*
X155704262Y-72149702D01*
X155721790Y-72283746D01*
X155722254Y-72287296D01*
X155779025Y-72416318D01*
X155869727Y-72524221D01*
X155871554Y-72525437D01*
X155871556Y-72525439D01*
X155967055Y-72589008D01*
X155987067Y-72602329D01*
X156121613Y-72644365D01*
X156124537Y-72644419D01*
X156127546Y-72644474D01*
X156148725Y-72653475D01*
X158995453Y-75500204D01*
X159029442Y-75534193D01*
X159030817Y-75535662D01*
X159176007Y-75701220D01*
X159178456Y-75704411D01*
X159293125Y-75876025D01*
X159295136Y-75879509D01*
X159386417Y-76064608D01*
X159387956Y-76068324D01*
X159454300Y-76263767D01*
X159455341Y-76267652D01*
X159474659Y-76364767D01*
X159495607Y-76470081D01*
X159496132Y-76474069D01*
X159510534Y-76693808D01*
X159510600Y-76695819D01*
X159510600Y-93332901D01*
X159510009Y-93338900D01*
X159458866Y-93596012D01*
X159454173Y-93619603D01*
X159451135Y-93628095D01*
X159407738Y-93709285D01*
X159404389Y-93714297D01*
X159319475Y-93817765D01*
X159317449Y-93820001D01*
X158872208Y-94265242D01*
X158867548Y-94269066D01*
X158629570Y-94428078D01*
X158621420Y-94431932D01*
X158533323Y-94458656D01*
X158527181Y-94459854D01*
X158527170Y-94459855D01*
X158504700Y-94452854D01*
X158498818Y-94446315D01*
X158490314Y-94433588D01*
X158488631Y-94431069D01*
X158402132Y-94373272D01*
X158367579Y-94366399D01*
X158327340Y-94358395D01*
X158327338Y-94358395D01*
X158325856Y-94358100D01*
X157326344Y-94358100D01*
X157324862Y-94358395D01*
X157324860Y-94358395D01*
X157284621Y-94366399D01*
X157250068Y-94373272D01*
X157163569Y-94431069D01*
X157105772Y-94517568D01*
X157090600Y-94593844D01*
X157090600Y-95133356D01*
X157090895Y-95134838D01*
X157090895Y-95134840D01*
X157097548Y-95168287D01*
X157105772Y-95209632D01*
X157163569Y-95296131D01*
X157166088Y-95297814D01*
X157166089Y-95297815D01*
X157239944Y-95347164D01*
X157253019Y-95366733D01*
X157248428Y-95389816D01*
X157239944Y-95398300D01*
X157183030Y-95436328D01*
X157178828Y-95440530D01*
X157129591Y-95514219D01*
X157127318Y-95519708D01*
X157114395Y-95584674D01*
X157114100Y-95587671D01*
X157114100Y-95758983D01*
X157115892Y-95763308D01*
X157120217Y-95765100D01*
X158531983Y-95765100D01*
X158536308Y-95763308D01*
X158538100Y-95758983D01*
X158538100Y-95587671D01*
X158537805Y-95584674D01*
X158524882Y-95519708D01*
X158522609Y-95514219D01*
X158473372Y-95440530D01*
X158469170Y-95436328D01*
X158412256Y-95398300D01*
X158399181Y-95378731D01*
X158403772Y-95355648D01*
X158412256Y-95347164D01*
X158486111Y-95297815D01*
X158486112Y-95297814D01*
X158488631Y-95296131D01*
X158514668Y-95257163D01*
X158534238Y-95244088D01*
X158537223Y-95243645D01*
X158587272Y-95238716D01*
X158595686Y-95239046D01*
X158599215Y-95239676D01*
X158652284Y-95232336D01*
X158653484Y-95232194D01*
X158674635Y-95230111D01*
X158674639Y-95230110D01*
X158675840Y-95229992D01*
X158677005Y-95229688D01*
X158677016Y-95229686D01*
X158681545Y-95228504D01*
X158685094Y-95227798D01*
X158689729Y-95227157D01*
X158690922Y-95226992D01*
X158692068Y-95226644D01*
X158692074Y-95226643D01*
X158703878Y-95223062D01*
X158712429Y-95220467D01*
X158713559Y-95220149D01*
X158765420Y-95206616D01*
X158767454Y-95205314D01*
X158767456Y-95205313D01*
X158768438Y-95204684D01*
X158776091Y-95201156D01*
X158872213Y-95171998D01*
X158877524Y-95170887D01*
X158881283Y-95170442D01*
X158901889Y-95168003D01*
X158904086Y-95166990D01*
X158904087Y-95166990D01*
X158931732Y-95154246D01*
X158935672Y-95152748D01*
X158936178Y-95152594D01*
X158936179Y-95152594D01*
X158937338Y-95152242D01*
X158961247Y-95140645D01*
X158961787Y-95140390D01*
X158977045Y-95133356D01*
X158985965Y-95129244D01*
X158986977Y-95128568D01*
X158986980Y-95128566D01*
X158987422Y-95128271D01*
X158991083Y-95126173D01*
X159020636Y-95111839D01*
X159038316Y-95094839D01*
X159042543Y-95091439D01*
X159080854Y-95065841D01*
X159287500Y-94927765D01*
X159295082Y-94924088D01*
X159296184Y-94923730D01*
X159298486Y-94922982D01*
X159341851Y-94891476D01*
X159342798Y-94890816D01*
X159360492Y-94878994D01*
X159360499Y-94878989D01*
X159361498Y-94878321D01*
X159365827Y-94874319D01*
X159368623Y-94872025D01*
X159373385Y-94868565D01*
X159389281Y-94852669D01*
X159390152Y-94851833D01*
X159390174Y-94851812D01*
X159429481Y-94815477D01*
X159431230Y-94812354D01*
X159436315Y-94805635D01*
X159875551Y-94366399D01*
X159876869Y-94365157D01*
X159889672Y-94353780D01*
X159890568Y-94352984D01*
X159896939Y-94345221D01*
X159898965Y-94342985D01*
X159928065Y-94313885D01*
X159935410Y-94299471D01*
X159939037Y-94293925D01*
X159997468Y-94222728D01*
X160003650Y-94217012D01*
X160004608Y-94216344D01*
X160006594Y-94214960D01*
X160038933Y-94172239D01*
X160039681Y-94171291D01*
X160053160Y-94154867D01*
X160053167Y-94154858D01*
X160053927Y-94153931D01*
X160054533Y-94152897D01*
X160054540Y-94152887D01*
X160056912Y-94148841D01*
X160058919Y-94145837D01*
X160061740Y-94142110D01*
X160061741Y-94142108D01*
X160062471Y-94141144D01*
X160073062Y-94121330D01*
X160073642Y-94120293D01*
X160099517Y-94076147D01*
X160100741Y-94074059D01*
X160101261Y-94071691D01*
X160101511Y-94070553D01*
X160104426Y-94062653D01*
X160151779Y-93974060D01*
X160154750Y-93969518D01*
X160168436Y-93952158D01*
X160168437Y-93952156D01*
X160169935Y-93950256D01*
X160181305Y-93919437D01*
X160183034Y-93915586D01*
X160183290Y-93915107D01*
X160183291Y-93915105D01*
X160183857Y-93914046D01*
X160192577Y-93888901D01*
X160192771Y-93888361D01*
X160201560Y-93864538D01*
X160201564Y-93864524D01*
X160201979Y-93863399D01*
X160202213Y-93862224D01*
X160202216Y-93862212D01*
X160202318Y-93861697D01*
X160203425Y-93857615D01*
X160213397Y-93828860D01*
X160214189Y-93826576D01*
X160214236Y-93824161D01*
X160214237Y-93824158D01*
X160214671Y-93802049D01*
X160215256Y-93796654D01*
X160258964Y-93576924D01*
X160272731Y-93507714D01*
X160275491Y-93499754D01*
X160276018Y-93498720D01*
X160277117Y-93496563D01*
X160285498Y-93443643D01*
X160285707Y-93442473D01*
X160289858Y-93421610D01*
X160289858Y-93421606D01*
X160290093Y-93420427D01*
X160290324Y-93414543D01*
X160290679Y-93410938D01*
X160291411Y-93406319D01*
X160291411Y-93406313D01*
X160291600Y-93405123D01*
X160291600Y-93382660D01*
X160291624Y-93381453D01*
X160293632Y-93330337D01*
X160293727Y-93327919D01*
X160293071Y-93325592D01*
X160293070Y-93325586D01*
X160292755Y-93324469D01*
X160291600Y-93316122D01*
X160291600Y-76701344D01*
X160291729Y-76698530D01*
X160292664Y-76688357D01*
X160292664Y-76688356D01*
X160292774Y-76687159D01*
X160291666Y-76670254D01*
X160291600Y-76668243D01*
X160291600Y-76651294D01*
X160289814Y-76640015D01*
X160289501Y-76637218D01*
X160274015Y-76400941D01*
X160273973Y-76400137D01*
X160273030Y-76376146D01*
X160272983Y-76374938D01*
X160272373Y-76371871D01*
X160271848Y-76367881D01*
X160271723Y-76365969D01*
X160271723Y-76365966D01*
X160271644Y-76364767D01*
X160271380Y-76363601D01*
X160271379Y-76363593D01*
X160266074Y-76340150D01*
X160265907Y-76339363D01*
X160217027Y-76093629D01*
X160216880Y-76092837D01*
X160212813Y-76069167D01*
X160212608Y-76067972D01*
X160211605Y-76065017D01*
X160210565Y-76061138D01*
X160209953Y-76058063D01*
X160201212Y-76034368D01*
X160200944Y-76033609D01*
X160163787Y-75924150D01*
X160120400Y-75796337D01*
X160120161Y-75795601D01*
X160113039Y-75772663D01*
X160113038Y-75772660D01*
X160112681Y-75771511D01*
X160112149Y-75770433D01*
X160112147Y-75770427D01*
X160111298Y-75768705D01*
X160109761Y-75764993D01*
X160109147Y-75763185D01*
X160109145Y-75763181D01*
X160108756Y-75762034D01*
X160097006Y-75739702D01*
X160096640Y-75738984D01*
X159985822Y-75514267D01*
X159985475Y-75513541D01*
X159979327Y-75500204D01*
X159974915Y-75490633D01*
X159973180Y-75488036D01*
X159971172Y-75484558D01*
X159970322Y-75482835D01*
X159970319Y-75482831D01*
X159969785Y-75481747D01*
X159955223Y-75461142D01*
X159954773Y-75460488D01*
X159947405Y-75449461D01*
X171428151Y-75449461D01*
X171462519Y-75793777D01*
X171536233Y-76131861D01*
X171536521Y-76132701D01*
X171536522Y-76132706D01*
X171581394Y-76263767D01*
X171648317Y-76459233D01*
X171797286Y-76771552D01*
X171797764Y-76772314D01*
X171980691Y-77063926D01*
X171980696Y-77063934D01*
X171981164Y-77064679D01*
X172197515Y-77334729D01*
X172198148Y-77335355D01*
X172198153Y-77335361D01*
X172268021Y-77404501D01*
X172443471Y-77578123D01*
X172444174Y-77578674D01*
X172444176Y-77578676D01*
X172695638Y-77775847D01*
X172715772Y-77791634D01*
X172716518Y-77792091D01*
X172716525Y-77792096D01*
X172802425Y-77844735D01*
X173010809Y-77972432D01*
X173011598Y-77972798D01*
X173011605Y-77972802D01*
X173323868Y-78117750D01*
X173323872Y-78117752D01*
X173324670Y-78118122D01*
X173325504Y-78118398D01*
X173325512Y-78118401D01*
X173569843Y-78199205D01*
X173653197Y-78226772D01*
X173992035Y-78296942D01*
X173992907Y-78297020D01*
X173992915Y-78297021D01*
X174295657Y-78324040D01*
X174295664Y-78324040D01*
X174296333Y-78324100D01*
X174519289Y-78324100D01*
X174520330Y-78324040D01*
X174775670Y-78309317D01*
X174775671Y-78309317D01*
X174776553Y-78309266D01*
X174777422Y-78309114D01*
X174777425Y-78309114D01*
X174946188Y-78279660D01*
X175117428Y-78249774D01*
X175118273Y-78249524D01*
X175118276Y-78249523D01*
X175283317Y-78200635D01*
X175449206Y-78151497D01*
X175450013Y-78151153D01*
X175450018Y-78151151D01*
X175562860Y-78103019D01*
X175767489Y-78015738D01*
X176068059Y-77844296D01*
X176346932Y-77639443D01*
X176600412Y-77403895D01*
X176825138Y-77140774D01*
X176875806Y-77065373D01*
X177017640Y-76854300D01*
X177018133Y-76853567D01*
X177176839Y-76546082D01*
X177299150Y-76222393D01*
X177383448Y-75886790D01*
X177395352Y-75796367D01*
X177428497Y-75544608D01*
X177428497Y-75544602D01*
X177428613Y-75543724D01*
X177434049Y-75197739D01*
X177399681Y-74853423D01*
X177325967Y-74515339D01*
X177298492Y-74435089D01*
X177252078Y-74299526D01*
X177213883Y-74187967D01*
X177172718Y-74101662D01*
X177065302Y-73876462D01*
X177064914Y-73875648D01*
X177013466Y-73793633D01*
X176881509Y-73583274D01*
X176881504Y-73583266D01*
X176881036Y-73582521D01*
X176664685Y-73312471D01*
X176664052Y-73311845D01*
X176664047Y-73311839D01*
X176419367Y-73069708D01*
X176419364Y-73069705D01*
X176418729Y-73069077D01*
X176341302Y-73008366D01*
X176147127Y-72856114D01*
X176147126Y-72856113D01*
X176146428Y-72855566D01*
X176145682Y-72855109D01*
X176145675Y-72855104D01*
X175852140Y-72675227D01*
X175851391Y-72674768D01*
X175850602Y-72674402D01*
X175850595Y-72674398D01*
X175538332Y-72529450D01*
X175538328Y-72529448D01*
X175537530Y-72529078D01*
X175536696Y-72528802D01*
X175536688Y-72528799D01*
X175274887Y-72442217D01*
X175209003Y-72420428D01*
X174870165Y-72350258D01*
X174869293Y-72350180D01*
X174869285Y-72350179D01*
X174566543Y-72323160D01*
X174566536Y-72323160D01*
X174565867Y-72323100D01*
X174342911Y-72323100D01*
X174342478Y-72323125D01*
X174342477Y-72323125D01*
X174086530Y-72337883D01*
X174086529Y-72337883D01*
X174085647Y-72337934D01*
X174084778Y-72338086D01*
X174084775Y-72338086D01*
X173969000Y-72358292D01*
X173744772Y-72397426D01*
X173743927Y-72397676D01*
X173743924Y-72397677D01*
X173593560Y-72442217D01*
X173412994Y-72495703D01*
X173412187Y-72496047D01*
X173412182Y-72496049D01*
X173350075Y-72522540D01*
X173094711Y-72631462D01*
X173093937Y-72631904D01*
X173093936Y-72631904D01*
X173056118Y-72653475D01*
X172794141Y-72802904D01*
X172515268Y-73007757D01*
X172261788Y-73243305D01*
X172037062Y-73506426D01*
X172036575Y-73507151D01*
X172036571Y-73507156D01*
X171985928Y-73582521D01*
X171844067Y-73793633D01*
X171685361Y-74101118D01*
X171685046Y-74101952D01*
X171685045Y-74101954D01*
X171684468Y-74103480D01*
X171563050Y-74424807D01*
X171478752Y-74760410D01*
X171478636Y-74761288D01*
X171478636Y-74761290D01*
X171441364Y-75044405D01*
X171433587Y-75103476D01*
X171428151Y-75449461D01*
X159947405Y-75449461D01*
X159927343Y-75419435D01*
X159815554Y-75252131D01*
X159815121Y-75251464D01*
X159802309Y-75231159D01*
X159801664Y-75230136D01*
X159800867Y-75229227D01*
X159800863Y-75229222D01*
X159799602Y-75227784D01*
X159797151Y-75224590D01*
X159796092Y-75223004D01*
X159796088Y-75222999D01*
X159795420Y-75221999D01*
X159778288Y-75203466D01*
X159777779Y-75202900D01*
X159643623Y-75049925D01*
X159639344Y-75043612D01*
X159635171Y-75035422D01*
X159601186Y-75001437D01*
X159599811Y-74999968D01*
X159589434Y-74988135D01*
X159589432Y-74988133D01*
X159588640Y-74987230D01*
X159587720Y-74986465D01*
X159587716Y-74986461D01*
X159579859Y-74979927D01*
X159577778Y-74978029D01*
X159547703Y-74947954D01*
X156697357Y-72097607D01*
X184800600Y-72097607D01*
X184800601Y-72209592D01*
X184807271Y-72282194D01*
X184857973Y-72443983D01*
X184858931Y-72445566D01*
X184858933Y-72445569D01*
X184889296Y-72495703D01*
X184945803Y-72589008D01*
X185065692Y-72708897D01*
X185138205Y-72752812D01*
X185209131Y-72795767D01*
X185209134Y-72795769D01*
X185210717Y-72796727D01*
X185298013Y-72824084D01*
X185370954Y-72846943D01*
X185370957Y-72846944D01*
X185372506Y-72847429D01*
X185374127Y-72847578D01*
X185374138Y-72847579D01*
X185445107Y-72854100D01*
X185501060Y-72854100D01*
X185557092Y-72854099D01*
X185557798Y-72854034D01*
X185557801Y-72854034D01*
X185628065Y-72847579D01*
X185628068Y-72847578D01*
X185629694Y-72847429D01*
X185791483Y-72796727D01*
X185793066Y-72795769D01*
X185793069Y-72795767D01*
X185863995Y-72752812D01*
X185936508Y-72708897D01*
X186056397Y-72589008D01*
X186112904Y-72495703D01*
X186143267Y-72445569D01*
X186143269Y-72445566D01*
X186144227Y-72443983D01*
X186193330Y-72287296D01*
X186194443Y-72283746D01*
X186194444Y-72283743D01*
X186194929Y-72282194D01*
X186201600Y-72209593D01*
X186201599Y-72097608D01*
X186194929Y-72025006D01*
X186144227Y-71863217D01*
X186143269Y-71861634D01*
X186143267Y-71861631D01*
X186093198Y-71778958D01*
X186056397Y-71718192D01*
X185936508Y-71598303D01*
X185863995Y-71554388D01*
X185793069Y-71511433D01*
X185793066Y-71511431D01*
X185791483Y-71510473D01*
X185704187Y-71483116D01*
X185631246Y-71460257D01*
X185631243Y-71460256D01*
X185629694Y-71459771D01*
X185628073Y-71459622D01*
X185557800Y-71453165D01*
X185557801Y-71453165D01*
X185557093Y-71453100D01*
X185501140Y-71453100D01*
X185445108Y-71453101D01*
X185444402Y-71453166D01*
X185444399Y-71453166D01*
X185374135Y-71459621D01*
X185374132Y-71459622D01*
X185372506Y-71459771D01*
X185210717Y-71510473D01*
X185209134Y-71511431D01*
X185209131Y-71511433D01*
X185138205Y-71554388D01*
X185065692Y-71598303D01*
X184945803Y-71718192D01*
X184909002Y-71778958D01*
X184858933Y-71861631D01*
X184858931Y-71861634D01*
X184857973Y-71863217D01*
X184807271Y-72025006D01*
X184800600Y-72097607D01*
X156697357Y-72097607D01*
X156696294Y-72096544D01*
X156687599Y-72079159D01*
X156679621Y-72023446D01*
X156678277Y-72014064D01*
X156619934Y-71885745D01*
X156602045Y-71864983D01*
X156529354Y-71780621D01*
X156527921Y-71778958D01*
X156526083Y-71777766D01*
X156526081Y-71777765D01*
X156411473Y-71703480D01*
X156411471Y-71703479D01*
X156409635Y-71702289D01*
X156333157Y-71679418D01*
X156276686Y-71662529D01*
X156276684Y-71662529D01*
X156274585Y-71661901D01*
X156204615Y-71661474D01*
X156135824Y-71661053D01*
X156135821Y-71661053D01*
X156133628Y-71661040D01*
X155998094Y-71699775D01*
X155996245Y-71700942D01*
X155996242Y-71700943D01*
X155880733Y-71773825D01*
X155880731Y-71773827D01*
X155878881Y-71774994D01*
X155785570Y-71880648D01*
X155784637Y-71882634D01*
X155784637Y-71882635D01*
X155726594Y-72006262D01*
X155726593Y-72006265D01*
X155725664Y-72008244D01*
X155725327Y-72010406D01*
X155725327Y-72010407D01*
X155711639Y-72098319D01*
X155703977Y-72147526D01*
X112201599Y-72147526D01*
X112201599Y-72097608D01*
X112194929Y-72025006D01*
X112144227Y-71863217D01*
X112143269Y-71861634D01*
X112143267Y-71861631D01*
X112093198Y-71778958D01*
X112056397Y-71718192D01*
X111936508Y-71598303D01*
X111863995Y-71554388D01*
X111793069Y-71511433D01*
X111793066Y-71511431D01*
X111791483Y-71510473D01*
X111704187Y-71483116D01*
X111631246Y-71460257D01*
X111631243Y-71460256D01*
X111629694Y-71459771D01*
X111628073Y-71459622D01*
X111557800Y-71453165D01*
X111557801Y-71453165D01*
X111557093Y-71453100D01*
X111501140Y-71453100D01*
X111445108Y-71453101D01*
X111444402Y-71453166D01*
X111444399Y-71453166D01*
X111374135Y-71459621D01*
X111374132Y-71459622D01*
X111372506Y-71459771D01*
X111210717Y-71510473D01*
X111209134Y-71511431D01*
X111209131Y-71511433D01*
X111138205Y-71554388D01*
X111065692Y-71598303D01*
X110945803Y-71718192D01*
X110909002Y-71778958D01*
X110858933Y-71861631D01*
X110858931Y-71861634D01*
X110857973Y-71863217D01*
X110807271Y-72025006D01*
X110800600Y-72097607D01*
X108701100Y-72097607D01*
X108701100Y-71279813D01*
X108701882Y-71272922D01*
X108705467Y-71257332D01*
X108706243Y-71253958D01*
X108705318Y-71249869D01*
X108703221Y-71240601D01*
X108702529Y-71231804D01*
X108716367Y-71020664D01*
X108716892Y-71016676D01*
X108762040Y-70789703D01*
X108763081Y-70785818D01*
X108837469Y-70566680D01*
X108839008Y-70562964D01*
X108941361Y-70355411D01*
X108943372Y-70351927D01*
X109071946Y-70159503D01*
X109074395Y-70156312D01*
X109226979Y-69982323D01*
X109229823Y-69979479D01*
X109403812Y-69826895D01*
X109407003Y-69824446D01*
X109599427Y-69695872D01*
X109602911Y-69693861D01*
X109810464Y-69591508D01*
X109814180Y-69589969D01*
X110033318Y-69515581D01*
X110037203Y-69514540D01*
X110150689Y-69491966D01*
X110264180Y-69469392D01*
X110268161Y-69468867D01*
X110478914Y-69455054D01*
X110487812Y-69455770D01*
X110500742Y-69458743D01*
X110504118Y-69457979D01*
X110504119Y-69457979D01*
X110520121Y-69454358D01*
X110526907Y-69453600D01*
X186474887Y-69453600D01*
X186481777Y-69454382D01*
G37*
%TD.AperFunction*%
%TD*%
M02*
